<?xml version="1.0" standalone="no"?>
<!DOCTYPE svg PUBLIC "-//W3C//DTD SVG 20010904//EN"
 "http://www.w3.org/TR/2001/REC-SVG-20010904/DTD/svg10.dtd">
<svg version="1.0" xmlns="http://www.w3.org/2000/svg"
 width="994.000000pt" height="994.000000pt" viewBox="0 0 994.000000 994.000000"
 preserveAspectRatio="xMidYMid meet">

<g transform="translate(0.000000,994.000000) scale(0.100000,-0.100000)"
fill="#000000" stroke="none">
<path d="M4685 9929 c-1792 -102 -3389 -1166 -4180 -2784 -654 -1337 -669
-2895 -42 -4263 242 -528 577 -1004 1006 -1432 759 -757 1735 -1244 2791
-1394 276 -39 425 -50 710 -49 286 0 437 10 710 49 2173 309 3894 2030 4204
4205 39 274 50 424 49 709 0 286 -10 437 -49 710 -131 925 -520 1786 -1133
2510 -133 158 -390 416 -546 550 -976 835 -2239 1262 -3520 1189z m631 -439
c1410 -110 2670 -857 3448 -2042 593 -904 837 -1972 700 -3068 -83 -667 -337
-1345 -717 -1915 -335 -502 -784 -950 -1282 -1278 -913 -602 -1983 -848 -3085
-711 -546 68 -1127 260 -1615 533 -1244 698 -2090 1932 -2284 3331 -35 252
-44 441 -38 738 8 357 37 597 112 922 409 1767 1863 3138 3650 3438 117 20
350 48 450 55 121 8 544 6 661 -3z"/>
<path d="M7592 6928 c-48 -80 -142 -256 -141 -264 1 -11 244 -224 255 -224 9
0 165 284 163 298 0 6 -146 133 -229 200 l-28 22 -20 -32z"/>
<path d="M2210 6419 c-58 -51 -120 -104 -137 -120 -32 -27 -32 -29 -23 -81 34
-190 99 -765 140 -1246 10 -128 22 -237 25 -242 10 -16 30 -12 153 26 l115 36
-7 187 c-22 617 -99 1491 -134 1519 -9 6 -18 12 -22 12 -3 0 -53 -41 -110 -91z"/>
<path d="M7653 6221 c-97 -25 -192 -119 -258 -255 -64 -132 -79 -198 -79 -346
-1 -114 1 -130 25 -180 35 -75 72 -116 133 -148 48 -26 58 -27 191 -27 77 0
155 3 174 8 l34 7 -6 -46 c-2 -25 -11 -52 -18 -60 -20 -19 -115 -42 -254 -61
-175 -23 -703 -24 -832 0 -293 54 -377 165 -352 469 5 62 11 118 14 125 2 6
-2 17 -10 23 -10 8 -39 -1 -124 -41 l-110 -52 -10 -51 c-23 -115 -31 -187 -31
-291 0 -183 40 -286 148 -387 69 -63 129 -97 234 -132 132 -44 245 -56 549
-56 454 0 694 35 842 124 92 56 139 140 180 326 26 117 30 419 8 540 -44 243
-151 436 -271 489 -53 23 -132 33 -177 22z m120 -389 c36 -34 71 -102 90 -176
19 -71 21 -70 -130 -71 -98 0 -115 3 -140 21 -33 24 -41 76 -23 137 12 41 63
104 94 118 32 13 77 1 109 -29z"/>
<path d="M5368 5777 l-128 -122 44 -130 c47 -137 76 -260 76 -320 0 -32 -4
-38 -37 -51 -52 -22 -206 -30 -287 -14 -36 7 -66 13 -66 14 0 0 22 89 50 196
27 107 46 198 41 203 -4 4 -77 -7 -161 -25 l-153 -33 -23 -125 c-31 -167 -43
-208 -68 -225 -30 -22 -112 -19 -163 6 -69 34 -87 72 -164 367 -18 69 -38 126
-46 129 -7 3 -57 -34 -114 -83 -56 -49 -115 -100 -132 -114 l-30 -26 56 -165
c30 -90 62 -199 71 -241 20 -97 21 -210 2 -247 -21 -39 -96 -106 -155 -135
-134 -69 -339 -74 -457 -13 -48 25 -109 98 -135 163 -23 56 -24 70 -23 276 0
146 -3 219 -10 221 -6 2 -59 -18 -118 -45 l-106 -50 -12 -65 c-66 -384 -17
-627 159 -786 240 -214 717 -172 958 86 67 72 131 192 161 302 11 39 24 69 28
68 5 -2 34 -12 64 -23 93 -33 193 -24 270 25 l38 24 59 -24 c168 -68 418 -53
553 33 228 145 272 417 149 912 -32 126 -44 160 -57 160 -4 0 -64 -55 -134
-123z"/>
<path d="M2086 3804 c-20 -20 -20 -48 0 -68 14 -15 296 -16 2954 -16 2658 0
2940 1 2954 16 20 20 20 48 0 68 -14 15 -296 16 -2954 16 -2658 0 -2940 -1
-2954 -16z"/>
<path d="M2969 3334 c-9 -11 -10 -20 -2 -32 9 -16 188 -17 2508 -17 2320 0
2499 1 2508 17 8 12 7 21 -2 32 -12 15 -244 16 -2506 16 -2262 0 -2494 -1
-2506 -16z"/>
<path d="M4064 2869 c-3 -6 -2 -15 3 -20 5 -5 789 -8 1959 -7 1725 3 1949 5
1949 18 0 13 -225 15 -1952 18 -1400 1 -1954 -1 -1959 -9z"/>
</g>
</svg>
