<?xml version="1.0" encoding="UTF-8" standalone="no"?>
<!DOCTYPE svg PUBLIC "-//W3C//DTD SVG 1.1//EN" "http://www.w3.org/Graphics/SVG/1.1/DTD/svg11.dtd">
<svg xmlns="http://www.w3.org/2000/svg">
<metadata>
This is a custom SVG webfont generated by Font Squirrel.
Copyright   : Copyright c 20102012 by Titus Nemeth Published by Rosetta All rights reserved
Designer    : Titus Nemeth
Foundry     : Titus Nemeth
Foundry URL : httpwwwrosettatypecom
</metadata>
<defs>
<font id="NassimBold" horiz-adv-x="1251">
<font-face units-per-em="2048" ascent="1229" descent="-819"/>
<missing-glyph horiz-adv-x="495"/>
<glyph unicode=" " horiz-adv-x="495"/>
<glyph unicode="	" horiz-adv-x="495"/>
<glyph unicode=" " horiz-adv-x="495"/>
<glyph unicode="!" horiz-adv-x="720" d="M176 1487l410 57l-115 -981q-10 -68 -29.5 -93.5t-64.5 -25.5h-39zM209 150q0 82 47 127t137 45q88 0 136.5 -46.5t48.5 -125.5q0 -76 -45.5 -121t-139.5 -45q-96 0 -140 45t-44 121z"/>
<glyph unicode="&quot;" horiz-adv-x="854" d="M23 1534q76 70 168 70t170 -70l-107 -492h-127zM404 1534q76 70 168 70t170 -70l-107 -492h-127z"/>
<glyph unicode="#" horiz-adv-x="1329" d="M63 352l50 185h219l53 192h-211l49 186h209l94 334h209l-90 -334h199l90 334h213l-92 -334h215l-49 -186h-220l-51 -192h211l-53 -185h-207l-98 -362h-211l100 362h-198l-99 -362h-213l99 362h-218zM543 537h198l52 192h-197z"/>
<glyph unicode="$" d="M143 121l82 258h178l29 -191q45 -37 100.5 -58t120.5 -21q80 0 126 42t46 119q0 59 -45 101.5t-112.5 76t-148.5 68.5t-148.5 81t-112.5 112.5t-45 164.5q0 139 95 230.5t251 124.5v215h223v-211q176 -14 308 -92l-76 -252h-170l-37 184q-29 14 -63.5 23.5t-77.5 9.5 q-80 0 -133.5 -40t-53.5 -108q0 -57 45 -98t115 -74.5t148.5 -69.5t148.5 -83t115 -115.5t45 -169.5q0 -127 -83 -224t-239 -134v-215h-223v215q-96 4 -208 40t-200 91z"/>
<glyph unicode="%" horiz-adv-x="1984" d="M115 905q0 186 106.5 267t276.5 81q168 0 275.5 -80.5t107.5 -267.5q0 -96 -29 -163.5t-80 -110.5t-121.5 -61.5t-152.5 -18.5q-84 0 -155 18.5t-121 61.5t-78.5 110.5t-28.5 163.5zM393 905q0 -254 105 -254q102 0 102 254q0 127 -24.5 184.5t-77.5 57.5t-79 -57.5 t-26 -184.5zM416 41l1042 1253l113 -96l-1041 -1253zM1106 336q0 186 107.5 268t277.5 82q166 0 271.5 -82t105.5 -268q0 -96 -29 -164t-79 -111t-119.5 -61t-149.5 -18q-86 0 -156.5 18t-121 61t-79 111t-28.5 164zM1386 336q0 -131 25 -192.5t80 -61.5q53 0 77.5 61.5 t24.5 192.5q0 127 -24.5 185.5t-77.5 58.5q-55 0 -80 -58.5t-25 -185.5z"/>
<glyph unicode="&amp;" horiz-adv-x="1478" d="M96 330q0 123 83 226t253 163q-86 106 -124 185t-38 163q0 72 33 141.5t92.5 123.5t144.5 87t189 33q90 0 161 -25.5t120 -68.5t73.5 -97.5t24.5 -113.5q0 -123 -95 -222.5t-286 -162.5l266 -342q49 125 49 307l203 113l25 -33q-8 -131 -60.5 -261t-138.5 -216 q45 -49 88 -85t87 -60.5t95.5 -38t116.5 -21.5l-22 -94q-47 -23 -106.5 -36t-131.5 -13q-86 0 -154.5 33.5t-146.5 127.5q-90 -80 -188.5 -120.5t-212.5 -40.5q-90 0 -164 25.5t-127 73.5t-81 111.5t-28 137.5zM385 403q0 -100 66.5 -163.5t169.5 -63.5q63 0 113 15.5 t89 39.5l-327 418q-55 -45 -83 -104.5t-28 -141.5zM522 1130q0 -63 29 -129.5t117 -173.5q160 129 159 281q0 80 -46 129t-111 49q-68 0 -108 -46.5t-40 -109.5z"/>
<glyph unicode="'" horiz-adv-x="495" d="M72 1534q76 70 168 70t170 -70l-107 -492h-127z"/>
<glyph unicode="(" horiz-adv-x="759" d="M84 633q0 360 152.5 631.5t429.5 451.5l53 -121q-78 -76 -138.5 -168t-101.5 -209.5t-61.5 -262t-20.5 -322.5q0 -180 20.5 -323.5t61.5 -259.5t101.5 -208t138.5 -170l-53 -127q-276 180 -429 453t-153 635z"/>
<glyph unicode=")" horiz-adv-x="759" d="M41 -328q76 78 136.5 170t101 208t62 259.5t21.5 323.5q0 178 -21.5 322.5t-62 262t-101 210t-136.5 167.5l57 121q272 -180 425 -451.5t153 -631.5q0 -362 -152.5 -634.5t-425.5 -453.5z"/>
<glyph unicode="*" horiz-adv-x="1136" d="M82 1257q0 78 35 121t96 43q57 0 149.5 -57t188.5 -168l-105 438q59 39 129 39q59 0 94.5 -35.5t35.5 -107.5q0 -27 -9.5 -66t-24 -84t-37 -93t-46.5 -91l381 238q37 -29 61.5 -74t24.5 -88q0 -61 -60.5 -98t-183.5 -37q-57 0 -111.5 6t-99.5 20l338 -291 q-8 -20 -24.5 -44.5t-37 -45t-45 -34t-55.5 -13.5q-76 0 -133 110.5t-74 299.5l-176 -416q-80 8 -132 49t-52 96q0 59 88 142.5t242 148.5l-449 31q-8 32 -8 61z"/>
<glyph unicode="+" d="M131 520v189h395v419h201v-419h395v-189h-395v-420h-201v420h-395z"/>
<glyph unicode="," horiz-adv-x="770" d="M109 96l178 291q137 -51 209.5 -141t72.5 -203q0 -125 -78.5 -243.5t-281.5 -231.5l-88 92q80 78 124 152.5t54 146.5z"/>
<glyph unicode="-" horiz-adv-x="954" d="M82 463v65q0 88 49 123t131 35h604v-76q0 -84 -46 -115.5t-152 -31.5h-586z"/>
<glyph unicode="." horiz-adv-x="802" d="M197 158q0 178 188 178q88 0 133 -48t45 -130q0 -78 -42 -127t-136 -49q-104 0 -146 47t-42 129z"/>
<glyph unicode="/" horiz-adv-x="950" d="M0 -209l727 1903l223 -92l-729 -1897z"/>
<glyph unicode="0" horiz-adv-x="1474" d="M123 618q0 147 45 265t127 200t194.5 126t247.5 44t248 -44t195 -126t128 -199.5t46 -265.5q0 -147 -46 -266t-128 -201.5t-195 -125.5t-248 -43t-247.5 43t-194.5 125.5t-127 201.5t-45 266zM463 618q0 -242 76.5 -354t197.5 -112q123 0 200 112.5t77 353.5 q0 240 -77 350.5t-200 110.5q-121 0 -197.5 -110.5t-76.5 -350.5z"/>
<glyph unicode="1" horiz-adv-x="1036" d="M41 918l592 346l133 -62v-1046l217 -41l-22 -115h-764l24 115q135 16 176 49t41 98v707l-2 4l-319 -182z"/>
<glyph unicode="2" horiz-adv-x="1243" d="M72 1024v2q94 104 237.5 165.5t306.5 61.5q96 0 181.5 -29.5t147 -80.5t96 -120t34.5 -146q0 -59 -18.5 -120t-67.5 -124.5t-130 -129t-202 -138.5l-286 -183l2 -8l757 133l9 -10l-64 -297h-987l12 123l322 305q90 84 148.5 146.5t94 114.5t50 95t14.5 90 q0 72 -31.5 126.5t-87.5 78.5q-72 -31 -152.5 -102.5t-154.5 -161.5h-4z"/>
<glyph unicode="3" horiz-adv-x="1234" d="M84 1051l4 4q88 86 224.5 142t297.5 56q90 0 170 -25.5t140.5 -69.5t95.5 -102.5t35 -121.5q0 -115 -105.5 -199t-341.5 -123v-8q133 -8 229.5 -33.5t159 -66.5t92 -94.5t29.5 -112.5q0 -190 -223 -330.5t-684 -191.5l-103 145v6q328 55 499 147.5t171 215.5 q0 96 -103.5 154.5t-334.5 70.5l-4 6l33 125q195 31 273.5 102.5t78.5 159.5q0 59 -34 108.5t-89 63.5q-63 -20 -144 -76.5t-169 -146.5h-9z"/>
<glyph unicode="4" horiz-adv-x="1337" d="M84 221v4l719 1039h12l227 -119v-840l246 25l2 -11l-61 -202h-187v-305l-317 -43l-12 6v342h-539zM274 250l5 -2l434 35v256q0 137 8 228t20 148l-8 7z"/>
<glyph unicode="5" horiz-adv-x="1189" d="M66 -74q330 55 495.5 158.5t165.5 269.5q0 115 -86 174.5t-240 59.5q-47 0 -99 -6.5t-95 -18.5l-8 4l-25 670h864l-73 -270h-527l-61 -279l4 -2q49 23 123 39t145 16q80 0 156 -24.5t134 -70.5t93 -114.5t35 -152.5q0 -113 -54.5 -210t-166 -177t-278.5 -136.5 t-396 -80.5l-106 145v6z"/>
<glyph unicode="6" horiz-adv-x="1345" d="M150 563q0 190 68.5 349t190 275t293.5 185.5t381 85.5l4 -8l-30 -160q-254 -45 -387 -179t-174 -357h6q57 53 142 86.5t179 33.5q90 0 167 -29.5t133.5 -86t89 -131t32.5 -164.5q0 -102 -42 -191.5t-115.5 -153t-173 -100t-214.5 -36.5q-117 0 -218 40.5t-175 115.5 t-115.5 182.5t-41.5 242.5zM487 545q0 -190 61.5 -291.5t172.5 -101.5q80 0 138.5 63.5t58.5 200.5q0 131 -74 204.5t-178 73.5q-47 0 -91.5 -9t-80.5 -23q-6 -20 -7 -56v-61z"/>
<glyph unicode="7" horiz-adv-x="1165" d="M25 1223v14h1103l-20 -186q-223 -219 -365.5 -520.5t-191.5 -718.5l-326 -43l-10 2q66 393 227.5 688t401.5 510v8h-735z"/>
<glyph unicode="8" horiz-adv-x="1306" d="M141 348q0 109 71 202t218 144v2q-123 70 -188.5 154t-65.5 199q0 82 37 156.5t105.5 131t160.5 89t205 32.5q98 0 180 -27.5t141.5 -75.5t93.5 -112.5t34 -142.5q0 -94 -63.5 -175t-188.5 -126v-6q289 -147 288 -387q0 -98 -39.5 -177t-109.5 -133.5t-166 -84 t-213 -29.5q-119 0 -211 28.5t-156.5 76.5t-98.5 115.5t-34 145.5zM428 385q0 -121 75 -185.5t183 -64.5q96 0 150.5 49t54.5 127q0 86 -77 161t-275 157q-51 -35 -81 -96.5t-30 -147.5zM438 1128q0 -70 74 -134t254 -138q49 45 71.5 94t22.5 115q0 100 -65.5 166.5 t-151.5 66.5q-96 0 -150.5 -50t-54.5 -120z"/>
<glyph unicode="9" horiz-adv-x="1333" d="M90 768q0 98 42 185t117 154t176 106.5t218 39.5q123 0 224.5 -42t175 -122.5t113.5 -193.5t40 -254q0 -360 -250 -586.5t-729 -279.5l-102 145v6q164 25 293 75t224 124t151.5 167t72.5 197h-6q-55 -57 -136 -93t-194 -36q-96 0 -175 28t-136 81t-88 130t-31 169z M420 795q0 -129 71.5 -193.5t188.5 -64.5q53 0 95 9t81 23v88q0 209 -63.5 315.5t-165.5 106.5q-88 0 -147.5 -76.5t-59.5 -207.5z"/>
<glyph unicode=":" horiz-adv-x="808" d="M230 910q0 178 188 178q88 0 133 -48t45 -130q0 -78 -42 -127t-136 -49q-104 0 -146 47t-42 129zM230 158q0 178 188 178q88 0 133 -48t45 -130q0 -78 -42 -127t-136 -49q-104 0 -146 47t-42 129z"/>
<glyph unicode=";" horiz-adv-x="837" d="M168 96l178 291q137 -51 209.5 -141t72.5 -203q0 -125 -78.5 -243.5t-281.5 -231.5l-88 92q80 78 124 152.5t54 146.5zM230 910q0 178 188 178q88 0 133 -48t45 -130q0 -78 -42 -127t-136 -49q-104 0 -146 47t-42 129z"/>
<glyph unicode="&lt;" d="M168 526v185l919 563v-244l-684 -412l684 -409v-244z"/>
<glyph unicode="=" d="M131 307v189h991v-189h-991zM131 719v188h991v-188h-991z"/>
<glyph unicode="&gt;" d="M166 -35v244l682 409l-682 412v244l917 -563v-185z"/>
<glyph unicode="?" horiz-adv-x="1081" d="M51 1348q109 96 239 158.5t277 62.5q92 0 174 -28t141.5 -75t93.5 -111.5t34 -140.5q0 -49 -9.5 -92t-36 -91t-73.5 -101t-123 -119q-115 -94 -156 -148.5t-41 -93.5q0 -33 10.5 -56.5t30.5 -51.5l-147 -45q-135 104 -135 229q0 31 8 60.5t28.5 65.5t57.5 78t94 97 q61 59 101 101.5t63 75t33 60t10 56.5q0 27 -10 51.5t-23 40.5q-14 8 -28.5 12.5t-45.5 4.5q-68 0 -153.5 -46.5t-210.5 -164.5zM373 150q0 82 48 127t138 45q86 0 134 -46.5t48 -125.5q0 -76 -44 -121t-138 -45q-96 0 -141 45t-45 121z"/>
<glyph unicode="@" horiz-adv-x="1992" d="M121 397q0 166 72.5 333t209 300t330 217t432.5 84q156 0 291 -45t235.5 -128t158 -203.5t57.5 -274.5q0 -137 -45 -246.5t-119 -184.5t-169 -114t-196 -39q-123 0 -194.5 75t-85.5 198q-88 -135 -164 -190.5t-152 -55.5q-80 0 -137 67.5t-57 206.5q0 98 40 206 t107.5 198t153.5 148.5t182 58.5q84 0 172 -26t170 -73q-49 -109 -78.5 -239.5t-29.5 -229.5q0 -96 32.5 -145t87.5 -49q92 0 158 111.5t66 310.5q0 240 -139.5 375t-372.5 135q-156 0 -291 -63.5t-234.5 -169t-158 -245t-58.5 -294.5q0 -231 140.5 -351.5t404.5 -120.5 q70 0 125 5.5t102 15.5t88 23.5t84 29.5l54 -80q-115 -72 -239 -104.5t-286 -32.5q-174 0 -313 40t-235.5 118t-147.5 191.5t-51 256.5zM831 477q0 -80 18.5 -112.5t51.5 -32.5q37 0 85 52t87 153q33 80 50.5 150.5t23.5 123.5q-25 8 -53.5 14t-53.5 6q-23 0 -39 -3t-28 -9 q-27 -12 -51.5 -47t-45 -81t-33 -101.5t-12.5 -112.5z"/>
<glyph unicode="A" horiz-adv-x="1673" d="M2 0l23 125q96 14 152 56t97 147l426 1077l283 78l508 -1317l184 -41l-22 -125h-662l23 125l110 31l-92 264h-534l-101 -254l154 -41l-21 -125h-528zM555 584h422l-207 553z"/>
<glyph unicode="B" horiz-adv-x="1507" d="M72 1311l20 125h649q164 0 275.5 -28t180.5 -77t100.5 -115.5t31.5 -142.5q0 -117 -73.5 -195.5t-221.5 -111.5v-8q176 -23 275.5 -113t99.5 -229q0 -195 -156.5 -305.5t-437.5 -110.5h-709l23 125q70 10 101.5 36.5t31.5 86.5v1022zM602 166h148q152 0 222 58.5 t70 189.5q0 256 -307 256h-133v-504zM602 819h115q141 0 198.5 55.5t57.5 172.5q0 115 -66.5 169t-212.5 54h-92v-451z"/>
<glyph unicode="C" horiz-adv-x="1447" d="M92 668q0 164 57.5 308t162 249.5t249 169t322.5 63.5q135 0 265 -30.5t228 -73.5l-78 -320h-153l-49 168q-39 27 -105.5 47.5t-132.5 20.5q-82 0 -152.5 -36t-124 -105.5t-83 -175t-29.5 -248.5q0 -285 113.5 -416t294.5 -131q72 0 133 12t98 37l82 207h170l-29 -318 q-113 -66 -239.5 -96.5t-282.5 -30.5q-152 0 -284 49.5t-228 139.5t-150.5 219t-54.5 291z"/>
<glyph unicode="D" horiz-adv-x="1660" d="M74 1311l18 125h684q193 0 340.5 -49.5t248.5 -136.5t151.5 -206.5t50.5 -261.5q0 -182 -58.5 -326.5t-169 -245.5t-266 -155.5t-348.5 -54.5h-616l22 125q70 10 101.5 37.5t31.5 91.5v1016zM604 166h62q125 0 222 27.5t165.5 91t102.5 166t34 249.5q0 301 -130 435.5 t-384 134.5h-72v-1104z"/>
<glyph unicode="E" horiz-adv-x="1349" d="M74 1311l18 125h1188l-86 -355h-156l-24 174l-410 43v-456h453l-39 -174h-414v-518l438 38l88 183h160l-41 -371h-1140l22 125q70 10 101.5 36.5t31.5 88.5v1020z"/>
<glyph unicode="F" horiz-adv-x="1296" d="M74 1311l18 125h1161l-88 -355h-155l-25 174l-381 43v-456h453l-39 -174h-414v-502l289 -41l-19 -125h-765l22 125q70 10 101.5 36.5t31.5 88.5v1020z"/>
<glyph unicode="G" horiz-adv-x="1556" d="M92 668q0 164 60.5 308t170 249.5t261 169t338.5 63.5q129 0 257 -30.5t226 -73.5l-76 -320h-160l-47 170q-41 25 -103.5 45.5t-125.5 20.5q-90 0 -167 -36t-134 -105.5t-90 -175t-33 -248.5q0 -285 113.5 -416t294.5 -131q72 0 126 13t93 36v346l-252 33l22 127h555 v-590q-143 -74 -286.5 -114t-325.5 -40q-152 0 -284 49.5t-228 139.5t-150.5 219t-54.5 291z"/>
<glyph unicode="H" horiz-adv-x="1859" d="M74 1311l18 125h668l-23 -125q-70 -12 -101.5 -39t-31.5 -86v-344h651v428l-190 41l22 125h664l-18 -125q-72 -12 -105 -39t-33 -86v-1020l191 -41l-21 -125h-665l22 125q72 10 102.5 36.5t30.5 86.5v420h-651v-502l191 -41l-21 -125h-665l22 125q70 10 101.5 36.5 t31.5 86.5v1022z"/>
<glyph unicode="I" horiz-adv-x="868" d="M74 1311l18 125h668l-23 -125q-70 -12 -101.5 -39t-31.5 -86v-1020l191 -41l-21 -125h-665l22 125q70 10 101.5 36.5t31.5 86.5v1022z"/>
<glyph unicode="J" horiz-adv-x="729" d="M-31 -469q82 68 134.5 125t95.5 129q6 43 8 107.5t2 121.5v1256l-191 41l21 125h666l-21 -125q-72 -12 -102.5 -39t-30.5 -84v-1194q0 -119 -20.5 -205t-75 -152.5t-147.5 -123t-236 -115.5z"/>
<glyph unicode="K" horiz-adv-x="1638" d="M72 1311l20 125h666l-21 -125q-70 -12 -102.5 -39t-32.5 -86v-1020l191 -41l-19 -125h-668l23 125q70 10 101.5 36.5t31.5 86.5v1022zM694 680l492 590l-164 41l20 125h562l-21 -125q-53 -6 -91 -15.5t-70.5 -30t-66.5 -54t-77 -89.5l-270 -321l311 -432q49 -70 87 -112 t72.5 -67.5t69.5 -37t76 -17.5l-22 -119q-39 -18 -101.5 -29.5t-111.5 -11.5q-66 0 -116 12.5t-96.5 45.5t-92.5 88t-107 143z"/>
<glyph unicode="L" horiz-adv-x="1290" d="M74 1311l18 125h668l-23 -125q-70 -12 -101.5 -39t-31.5 -86v-1036l381 43l94 223h170l-37 -416h-1103l22 125q70 10 101.5 36.5t31.5 88.5v1020z"/>
<glyph unicode="M" horiz-adv-x="2097" d="M51 0l23 125q70 10 102.5 49t44.5 131l109 965l-174 41l18 125h430l451 -975l446 975h422l-22 -125q-84 -12 -113 -46q-22 -26 -22 -75q0 -14 1 -29l115 -995l193 -41l-21 -125h-674l23 125q132 21 132 116q0 8 -1 17l-59 543q-8 63 -11.5 96t-3.5 78h-6 q-10 -37 -23.5 -77t-41.5 -95l-338 -746h-160l-354 750q-18 41 -37 90t-27 78l-4 -2q1 -22 1 -50v-29q-1 -46 -7 -108l-60 -620l191 -41l-19 -125h-524z"/>
<glyph unicode="N" horiz-adv-x="1685" d="M74 1311l18 125h381l717 -793q41 -47 61.5 -73.5t42.5 -51.5l4 2q-2 31 -5 73t-3 101v576l-145 41l18 125h473l-20 -125q-72 -12 -104.5 -39t-32.5 -84v-1188h-199l-743 823q-23 25 -48.5 62t-39.5 57l-5 -2q8 -57 9 -156v-618l188 -41l-20 -125h-512l22 125 q70 10 101.5 36.5t31.5 86.5v1022z"/>
<glyph unicode="O" horiz-adv-x="1679" d="M92 657q0 168 57.5 313.5t161 255t246.5 171t315 61.5q168 0 301.5 -51t225.5 -143.5t140 -221.5t48 -288q0 -166 -55 -308.5t-157.5 -249t-246 -167t-313.5 -60.5t-303 48.5t-226 138.5t-143.5 215.5t-50.5 285.5zM469 705q0 -141 30.5 -245t87 -170.5t128 -99 t153.5 -32.5q86 0 149.5 29.5t107.5 95t65.5 169t21.5 253.5q0 143 -31.5 248.5t-87 175t-128 105.5t-154.5 36q-168 0 -255 -132t-87 -433z"/>
<glyph unicode="P" horiz-adv-x="1431" d="M74 1311l18 125h670q160 0 275.5 -33t192.5 -90.5t115.5 -135t38.5 -169.5q0 -111 -45 -203t-127 -155.5t-198.5 -99.5t-263.5 -36h-146v-348l240 -41l-19 -125h-716l22 125q70 10 101.5 36.5t31.5 86.5v1022zM604 662h64q168 0 259 89t91 234q0 123 -77 206t-249 83h-88 v-612z"/>
<glyph unicode="Q" horiz-adv-x="1679" d="M92 666q0 166 57.5 310t161 251.5t246.5 169t315 61.5q168 0 301.5 -51t225.5 -143.5t140 -221.5t48 -288q0 -133 -33.5 -247t-93 -207t-141.5 -159.5t-180 -107.5q90 -76 159.5 -126t129 -82t113.5 -45t116 -13q66 0 118 10t105 26l41 -116q-90 -68 -183 -105t-194 -37 q-84 0 -161.5 21.5t-157.5 71t-169 131t-196 200.5q-365 0 -566.5 185.5t-201.5 511.5zM469 705q0 -141 30.5 -245t87 -170.5t128 -99t153.5 -32.5q86 0 149.5 29.5t107.5 95t65.5 169t21.5 253.5q0 143 -31.5 248.5t-87 175t-128 105.5t-154.5 36q-168 0 -255 -132 t-87 -433z"/>
<glyph unicode="R" horiz-adv-x="1593" d="M74 1311l18 125h674q307 0 463.5 -113t156.5 -313q0 -102 -68.5 -199.5t-197.5 -142.5l232 -369q27 -45 50 -73.5t45.5 -48t50.5 -29t65 -15.5l-21 -119q-37 -16 -87 -28.5t-112 -12.5q-104 0 -171.5 49.5t-133.5 161.5l-227 391h-207v-409l195 -41l-21 -125h-669l22 125 q70 10 101.5 36.5t31.5 86.5v1022zM604 721h125q156 0 224.5 69.5t68.5 206.5q0 133 -82 204t-256 71h-80v-551z"/>
<glyph unicode="S" horiz-adv-x="1300" d="M100 150l84 307h181l30 -195q49 -53 129 -84t172 -31q98 0 151.5 42t53.5 110q0 37 -16.5 70.5t-57.5 68.5t-108.5 76t-167.5 90q-199 96 -281 192.5t-82 213.5q0 88 41 170t114 143t177.5 98t229.5 37q123 0 226 -31.5t187 -80.5l-76 -287h-155l-33 155q-31 27 -90 43.5 t-123 16.5q-86 0 -146.5 -38t-60.5 -91q0 -29 11.5 -53.5t44 -53t95 -63.5t165.5 -86q119 -61 197.5 -116.5t123.5 -113t63.5 -116t18.5 -123.5q0 -98 -39 -181t-111.5 -141.5t-171 -93.5t-214.5 -35q-150 0 -297.5 51.5t-264.5 129.5z"/>
<glyph unicode="T" horiz-adv-x="1447" d="M27 1436h1394l-69 -332h-170l-29 162l-260 37v-1137l190 -41l-18 -125h-668l23 125q70 10 101.5 36.5t31.5 86.5v1055l-256 -37l-31 -162h-170z"/>
<glyph unicode="U" horiz-adv-x="1693" d="M51 1311l21 125h665l-20 -125q-72 -12 -102.5 -39t-30.5 -84v-613q0 -207 96 -300t270 -93q162 0 254 91.5t92 287.5v709l-184 41l18 125h512l-22 -125q-70 -12 -101.5 -39t-31.5 -86v-574q0 -643 -604 -643q-330 0 -486.5 151.5t-154.5 473.5v676z"/>
<glyph unicode="V" horiz-adv-x="1531" d="M14 1311l19 125h680l-21 -125l-155 -41l280 -731q18 -53 36.5 -105.5t29.5 -89.5h8q8 37 23.5 85t35.5 106l264 735l-165 41l18 125h467l-23 -125q-61 -8 -98 -41t-76 -137l-407 -1133h-256l-506 1270z"/>
<glyph unicode="W" horiz-adv-x="2140" d="M14 1311l19 125h672l-21 -125l-154 -41l195 -715q20 -78 28.5 -116t16.5 -77h6q8 41 17.5 78t31.5 107l258 833h207l262 -833q23 -70 33 -108t19 -77h6q6 35 12 69t23 106l186 733l-158 41l21 125h446l-20 -125q-39 -6 -64.5 -15.5t-43 -30t-32 -52t-24.5 -80.5 l-281 -1133h-274l-248 782q-14 37 -25.5 80t-15.5 80h-4q-16 -74 -41 -158l-240 -784h-276l-385 1270z"/>
<glyph unicode="X" horiz-adv-x="1630" d="M47 0l21 125q74 10 126 41t105 108l313 455l-395 541l-158 41l23 125h713l-21 -125l-133 -41l264 -379l266 375l-147 45l18 125h508l-22 -125q-45 -8 -81 -18.5t-65.5 -29t-57.5 -48t-60 -76.5l-258 -369l421 -598l158 -47l-22 -125h-713l22 125l146 49l-301 426 l-297 -428l205 -47l-21 -125h-557z"/>
<glyph unicode="Y" horiz-adv-x="1499" d="M14 1311l19 125h655l-20 -125l-129 -45l319 -525l303 525l-164 45l19 125h485l-22 -125q-37 -6 -63.5 -15.5t-49.5 -28t-45.5 -50t-48.5 -80.5l-326 -568v-401l191 -43l-21 -125h-667l22 125q72 10 102.5 36.5t30.5 86.5v299l-457 723z"/>
<glyph unicode="Z" horiz-adv-x="1337" d="M72 133l776 1163l-459 -41l-45 -188h-172l-72 369h1112l33 -129l-774 -1166l510 52l86 210h186l-39 -403h-1110z"/>
<glyph unicode="[" horiz-adv-x="714" d="M84 641q0 365 20.5 608.5t42.5 366.5q94 45 226.5 81t304.5 50v-145q-68 -6 -137.5 -22.5t-108.5 -33.5q-16 -100 -23.5 -334.5t-7.5 -574.5t7.5 -574.5t23.5 -332.5q39 -18 108.5 -35t137.5 -23v-143q-172 16 -304 50t-227 81q-23 119 -43 366.5t-20 614.5z"/>
<glyph unicode="\" horiz-adv-x="950" d="M0 1602l221 92l729 -1903l-223 -86z"/>
<glyph unicode="]" horiz-adv-x="714" d="M41 -328q66 6 133.5 22.5t108.5 35.5q16 98 24 332.5t8 574.5t-8 574.5t-24 334.5q-41 16 -109 32.5t-133 23.5v145q168 -14 300 -50t228 -81q23 -123 41.5 -366.5t18.5 -608.5q0 -367 -18.5 -614.5t-41.5 -366.5q-96 -47 -228 -81t-300 -50v143z"/>
<glyph unicode="^" horiz-adv-x="1361" d="M80 487l495 949h216l491 -949h-297l-307 687l-299 -687h-299z"/>
<glyph unicode="_" horiz-adv-x="1361" d="M0 -68h1362v-186h-1362v186z"/>
<glyph unicode="`" horiz-adv-x="952" d="M242 1561q0 59 51 103t147 58l301 -450l-67 -60l-211 117q-68 35 -110 66.5t-66.5 59.5t-34.5 53.5t-10 52.5z"/>
<glyph unicode="a" horiz-adv-x="1200" d="M72 295q0 121 110 203q63 47 189.5 87t322.5 64v19q0 119 -26.5 186.5t-75.5 95.5q-66 -29 -146.5 -94t-158.5 -154l-191 197q111 92 226.5 138t285.5 46q84 0 160 -25.5t132 -76.5t89 -125t33 -170v-504l158 -41v-51q-39 -51 -98.5 -82t-123.5 -31q-78 0 -146.5 44.5 t-94.5 121.5q-57 -68 -127 -117t-162 -49q-66 0 -128 23t-114.5 63.5t-83 99t-30.5 132.5zM395 336q0 -80 38 -121t97 -41q102 0 166 74q0 31 -1 74t-1 94v96q-76 -6 -149.5 -16.5t-122.5 -30.5q-12 -20 -19.5 -56t-7.5 -73z"/>
<glyph unicode="b" horiz-adv-x="1329" d="M-31 1386l21 101l489 57v-510q0 -49 -5 -89t-11 -62q80 102 167 154.5t197 52.5q94 0 171 -36t134.5 -100.5t89 -159t31.5 -210.5q0 -145 -48 -260t-131 -192t-198.5 -118t-250.5 -41q-121 0 -249 34t-220 89v1239zM479 201q35 -35 86 -55.5t115 -20.5q80 0 123 22 q53 66 81.5 165.5t28.5 217.5q0 190 -63.5 280.5t-147.5 90.5q-61 0 -121.5 -38t-101.5 -97v-565z"/>
<glyph unicode="c" horiz-adv-x="1028" d="M74 473q0 131 45 244.5t124 196.5t186.5 129.5t236.5 46.5q190 0 333 -89l-61 -260h-193l-24 144q-35 29 -103 28q-35 0 -74.5 -8t-62.5 -22q-33 -55 -50 -151.5t-17 -205.5q0 -190 78.5 -278t236.5 -88q55 0 105.5 12t103.5 35l39 -131q-76 -51 -166 -77t-207 -26 q-252 0 -391 128t-139 372z"/>
<glyph unicode="d" horiz-adv-x="1376" d="M74 473q0 111 32.5 220.5t100 198.5t171 143.5t243.5 54.5q88 0 145 -29t100 -80q-8 29 -13 64.5t-5 82.5v207l-186 51l18 101l494 57v-1388l163 -41l-22 -115l-397 -31l-46 172q-57 -86 -133.5 -127t-201.5 -41q-96 0 -180.5 34t-147 99.5t-99 157.5t-36.5 209zM414 526 q0 -104 19.5 -174.5t52 -114.5t75.5 -61.5t92 -17.5q68 0 115 33.5t80 95.5v530q-33 47 -86 74t-117 27q-68 0 -123 -27q-49 -63 -78.5 -156.5t-29.5 -208.5z"/>
<glyph unicode="e" horiz-adv-x="1124" d="M68 473q0 131 42 244.5t119.5 196.5t185 129.5t236.5 46.5q90 0 166 -26t132.5 -75t86 -115.5t29.5 -148.5q0 -133 -55 -229h-600q2 -168 86 -250t245 -82q119 0 224 45l41 -129q-80 -53 -176.5 -80t-225.5 -27q-244 0 -390 129t-146 371zM410 612l327 17q6 20 9.5 45.5 t3.5 46.5q0 104 -44 154.5t-112 50.5q-27 0 -53.5 -4t-59.5 -17q-29 -47 -49 -130t-22 -163z"/>
<glyph unicode="f" horiz-adv-x="884" d="M23 956l20 103h207q8 238 152.5 361.5t433.5 123.5q41 0 89 -8t68 -14l-92 -265q-127 70 -225 70q-27 0 -43.5 -2t-32.5 -6q-14 -31 -19.5 -76t-5.5 -131v-53h291l-35 -166h-256v-737l226 -41l-23 -115h-663l24 115q111 16 111 114v664z"/>
<glyph unicode="g" horiz-adv-x="1224" d="M18 -256q0 74 73 121t204 53v-33q0 -98 77 -153.5t224 -55.5q123 0 196.5 42t73.5 106q0 59 -64.5 92t-209.5 33h-135q-154 0 -239 61.5t-105 169.5l186 226q-86 41 -142.5 114.5t-56.5 163.5q0 82 37 156.5t105.5 129t161 87.5t204.5 33q78 0 160 -20.5t139 -55.5 q49 176 160 176q55 0 96 -57.5t49 -159.5l-229 -12q47 -39 77 -102.5t30 -133.5q0 -88 -40 -158.5t-106.5 -121t-158 -78t-191.5 -27.5q-51 0 -102.5 8t-88.5 23l-43 -164h281q258 0 385 -83t127 -204q0 -78 -41 -148.5t-124 -124t-207 -86t-292 -32.5q-217 0 -344 63.5 t-127 151.5zM422 721q0 -117 53 -174.5t141 -57.5q70 0 111 44.5t41 162.5q0 115 -53 180.5t-140 65.5q-72 0 -112.5 -54t-40.5 -167z"/>
<glyph unicode="h" horiz-adv-x="1421" d="M31 1389l18 102l494 53v-471q0 -96 -21 -188q104 109 198.5 152.5t194.5 43.5q68 0 126.5 -21.5t102.5 -66.5t69.5 -111.5t25.5 -156.5v-569l141 -41l-18 -115h-580l21 115q53 8 81.5 33.5t28.5 80.5v420q0 86 -27.5 144.5t-74.5 80.5q-74 -10 -134.5 -36.5t-133.5 -71.5 v-610l123 -41l-21 -115h-563l24 115q111 16 111 114v1108z"/>
<glyph unicode="i" horiz-adv-x="755" d="M47 930l19 102l493 55v-931l162 -41l-19 -115h-602l23 115q111 18 110 114v652zM209 1395q0 158 184 157q176 0 176 -157q0 -80 -41 -118t-135 -38q-104 0 -144 38t-40 118z"/>
<glyph unicode="j" horiz-adv-x="686" d="M-23 -371q72 63 129.5 123t90.5 115q4 49 7 111.5t3 109.5v793l-184 49l18 102l489 55v-989q0 -109 -25.5 -191.5t-82.5 -150t-148.5 -122t-222.5 -105.5zM184 1395q0 158 185 157q174 0 174 -157q0 -80 -41 -118t-133 -38q-104 0 -144.5 38t-40.5 118z"/>
<glyph unicode="k" horiz-adv-x="1409" d="M31 1389l18 102l494 53v-1388l143 -41l-20 -115h-584l24 115q111 16 111 114v1108zM602 569l352 357l-161 20l22 113h541l-19 -113q-47 -6 -82.5 -14t-68.5 -24.5t-68 -45t-76 -69.5l-151 -152l242 -328q70 -92 124 -127.5t140 -38.5l-21 -116q-41 -23 -86 -36t-108 -13 q-90 0 -159 43t-159 174z"/>
<glyph unicode="l" horiz-adv-x="727" d="M31 1389l18 102l494 53v-1388l143 -41l-20 -115h-584l24 115q109 16 109 114v1108z"/>
<glyph unicode="m" horiz-adv-x="2101" d="M47 930l19 102l395 55l82 -202q102 109 196.5 152.5t192.5 43.5q207 0 289 -198q106 115 197 156.5t181 41.5q68 0 126.5 -21.5t102.5 -66.5t68.5 -111.5t24.5 -156.5v-569l143 -41l-20 -115h-582l23 115q53 8 81.5 33.5t28.5 80.5v430q0 98 -21.5 145.5t-70.5 69.5 q-68 -10 -128 -36.5t-136 -71.5v-610l123 -41l-19 -115h-561l21 115q55 8 83.5 33.5t28.5 80.5v430q0 100 -21.5 146.5t-70.5 68.5q-113 -10 -264 -108v-610l121 -41l-18 -115h-562l23 115q111 16 110 114v652z"/>
<glyph unicode="n" horiz-adv-x="1437" d="M47 930l19 102l395 55l82 -202q102 109 196.5 152.5t194.5 43.5q133 0 227 -90t94 -266v-569l146 -41l-23 -115h-579l20 115q55 8 84 33.5t29 80.5v420q0 86 -29 144.5t-76 80.5q-70 -10 -132 -36.5t-136 -71.5v-610l121 -41l-18 -115h-562l23 115q111 16 110 114v652z "/>
<glyph unicode="o" horiz-adv-x="1267" d="M74 473q0 121 34.5 232.5t108.5 197.5t183.5 136.5t256.5 50.5q135 0 237.5 -37t169 -103.5t99.5 -161t33 -204.5q0 -123 -38 -233.5t-111.5 -193.5t-183 -133.5t-251.5 -50.5q-135 0 -237.5 37t-169 101.5t-99 157.5t-32.5 204zM414 530q0 -193 69.5 -290t175.5 -97 q45 0 82 18.5t61.5 63.5t39 120t14.5 185q0 182 -68.5 285t-177.5 103q-96 0 -146 -94.5t-50 -293.5z"/>
<glyph unicode="p" horiz-adv-x="1380" d="M23 932l16 100l393 55l86 -196q78 100 161 149.5t198 49.5q92 0 169.5 -34t135 -99.5t90.5 -160t33 -210.5q0 -145 -45.5 -258t-120 -192t-171 -121t-198.5 -42q-86 0 -150.5 27t-105.5 68q6 -29 11 -69t5 -91v-207l222 -41l-23 -115h-655l22 115q111 18 111 115v1106z M530 231q33 -43 90.5 -70.5t129.5 -27.5q29 0 56.5 4t49.5 15q49 63 79 163.5t30 214.5q0 190 -60.5 283.5t-136.5 93.5q-111 0 -238 -157v-519z"/>
<glyph unicode="q" horiz-adv-x="1357" d="M74 473q0 111 32.5 220.5t100 198.5t171 143.5t243.5 54.5q92 0 171.5 -34t133.5 -95l149 131l99 -33v-1358l139 -41l-19 -115h-702l20 115q147 18 191.5 48t44.5 77v176q0 55 4 107.5t8 81.5q-53 -92 -131 -134.5t-192 -42.5q-96 0 -180.5 34t-147 99.5t-99 157.5 t-36.5 209zM414 526q0 -104 19.5 -174.5t53 -114.5t77.5 -61.5t93 -17.5q63 0 110.5 33.5t80.5 95.5v540q-37 41 -86 66t-117 25t-123 -27q-49 -63 -78.5 -156.5t-29.5 -208.5z"/>
<glyph unicode="r" horiz-adv-x="985" d="M35 930l20 102l394 55l79 -202q139 205 289 205q72 0 111 -61.5t41 -184.5l-422 -58v-630l186 -41l-22 -115h-623l25 115q111 16 110 114v652z"/>
<glyph unicode="s" horiz-adv-x="1042" d="M49 113l66 233h166l38 -153q45 -37 105.5 -56.5t126.5 -19.5q70 0 106.5 27.5t36.5 70.5q0 25 -10 46.5t-43 46t-89 53t-146 69.5q-152 68 -216.5 136.5t-64.5 166.5q0 66 34 129.5t95 113.5t147 82t191 32q104 0 200.5 -26t161.5 -65l-65 -254h-156l-31 146 q-29 25 -71.5 36t-85.5 11q-63 0 -113 -20q-10 -10 -19.5 -25.5t-9.5 -36.5q0 -23 5.5 -40t30 -37.5t72.5 -47t132 -63.5q182 -84 254 -165t72 -181q0 -80 -32 -143.5t-92.5 -109.5t-140 -73t-174.5 -27q-111 0 -241.5 36t-239.5 108z"/>
<glyph unicode="t" horiz-adv-x="897" d="M2 956l23 103h184v229l328 68v-297h297l-39 -166h-258v-545q0 -100 23.5 -138t76.5 -38q72 0 174 59l61 -118q-90 -72 -179 -105t-191 -33q-139 0 -216 84t-77 238v596z"/>
<glyph unicode="u" horiz-adv-x="1398" d="M18 946l23 113h465v-602q0 -176 39 -237.5t123 -61.5q127 0 196 125v618l-164 45l21 113h469v-903l164 -41l-19 -115l-401 -27l-45 170q-129 -170 -346 -170q-178 0 -270.5 99.5t-92.5 328.5v500z"/>
<glyph unicode="v" horiz-adv-x="1280" d="M14 946l19 113h610l-18 -113l-140 -39l267 -635l231 637l-143 37l18 113h408l-21 -113q-55 -8 -83.5 -38.5t-57.5 -106.5l-295 -801h-289l-391 907z"/>
<glyph unicode="w" horiz-adv-x="1816" d="M14 946l19 113h592l-17 -113l-143 -39l197 -624l247 739h174l269 -741l174 626l-156 39l19 113h413l-20 -113q-55 -8 -80 -36.5t-49 -116.5l-226 -793h-288l-209 584l-201 -584h-293l-305 907z"/>
<glyph unicode="x" horiz-adv-x="1347" d="M10 0l21 115q41 2 71.5 11t58 25.5t54.5 43t57 67.5l215 266l-315 379l-125 39l21 113h618l-20 -113l-105 -39l205 -239l195 239l-121 39l20 113h438l-20 -113q-41 -6 -70.5 -14t-54.5 -21.5t-48.5 -36t-49.5 -55.5l-199 -235l350 -432l125 -37l-18 -115h-625l23 115 l108 37l-239 284l-215 -284l155 -37l-22 -115h-488z"/>
<glyph unicode="y" horiz-adv-x="1282" d="M14 946l19 113h610l-18 -113l-140 -39l252 -624l238 624l-135 39l18 113h412l-21 -113q-29 -6 -48 -14t-36.5 -27.5t-35 -53.5t-39.5 -89l-265 -645q-49 -119 -103 -212t-123 -164t-156 -122t-201 -90l-168 215q176 43 289.5 121t166.5 166l-401 876z"/>
<glyph unicode="z" horiz-adv-x="1091" d="M43 113l598 817l-319 -29l-39 -151h-179l-36 309h925l29 -113l-598 -817l362 51l66 150h186l-32 -330h-926z"/>
<glyph unicode="{" horiz-adv-x="731" d="M84 551v119q131 14 179 42.5t48 71.5t-26.5 102.5t-79.5 145.5q-49 80 -72.5 135.5t-23.5 110.5q0 68 42 137.5t118.5 129t184 102.5t238.5 55l-71 -266q-82 -14 -150 -57.5t-106 -92.5q14 -53 34.5 -93t57.5 -120q41 -84 64.5 -144.5t23.5 -111.5q0 -76 -58.5 -129 t-214.5 -78q156 -27 214.5 -79t58.5 -128q0 -55 -23.5 -113.5t-64.5 -142.5q-20 -39 -33.5 -67.5t-25 -53t-19.5 -46t-14 -48.5q39 -49 106.5 -91t149.5 -56l71 -270q-131 14 -238.5 57t-184 102.5t-118.5 130t-42 138.5q0 55 23.5 112.5t72.5 134.5q106 166 106 246 q0 45 -48 73t-179 42z"/>
<glyph unicode="|" horiz-adv-x="1210" d="M457 -133v1677h264v-1677h-264z"/>
<glyph unicode="}" horiz-adv-x="731" d="M41 -485l68 270q84 14 151.5 56t104.5 91q-4 27 -12.5 48.5t-18.5 46t-24.5 53.5t-35.5 67q-43 84 -64.5 142.5t-21.5 113.5q0 76 58.5 128.5t210.5 78.5q-152 25 -210.5 78t-58.5 129q0 51 21.5 111.5t64.5 144.5l59 120q19 40 32 93q-37 49 -104.5 92t-151.5 58 l-68 266q131 -12 238.5 -55t183.5 -102.5t119 -129t43 -137.5q0 -55 -23.5 -110.5t-73.5 -135.5q-55 -86 -81.5 -145.5t-26.5 -102.5t47 -71.5t178 -42.5v-119q-131 -14 -178 -42t-47 -73q0 -43 26.5 -102.5t81.5 -143.5q49 -78 73 -135t24 -112q0 -68 -43 -138.5t-119 -130 t-183.5 -102.5t-238.5 -57z"/>
<glyph unicode="~" horiz-adv-x="1329" d="M158 512q88 182 161.5 260t149.5 78q35 0 87 -16.5t138 -63.5q92 -49 136 -65.5t75 -16.5q45 0 87 31t116 123l72 -84q-88 -186 -163 -262t-149 -76q-35 0 -85 16.5t-138 61.5q-98 53 -140 67.5t-73 14.5q-20 0 -40.5 -5.5t-42 -21.5t-50.5 -46t-70 -79z"/>
<glyph unicode="¡" horiz-adv-x="720" d="M135 -455l119 985q4 63 24.5 89t67.5 26h39l160 -1042zM143 940q0 76 45 122t142 46q94 0 138 -45t44 -123q0 -82 -46 -127t-136 -45t-138.5 46t-48.5 126z"/>
<glyph unicode="¢" d="M160 555q0 113 32.5 212t90 177t139.5 132t180 79v225h223v-209q147 -23 262 -84l-63 -262h-184l-25 152q-37 29 -110 29q-35 0 -74 -8.5t-62 -20.5q-33 -53 -50 -156.5t-17 -210.5q0 -190 87 -276t242 -86q111 0 216 43l40 -131q-57 -37 -122.5 -60.5t-145.5 -31.5v-218 h-223v218q-203 29 -319.5 150.5t-116.5 336.5z"/>
<glyph unicode="£" d="M59 -6l45 229q29 31 65 44.5t69 35.5q43 27 60 84t24 182h-181l35 148h154q8 123 50 220t108.5 167t155.5 107.5t192 37.5q96 0 178 -30.5t135 -85.5v-5l-176 -196h-6q-49 68 -103.5 97.5t-118.5 29.5q-57 0 -96 -17q-16 -45 -26.5 -125.5t-10.5 -199.5h357l-39 -148 h-326q-18 -104 -67.5 -159.5t-139.5 -96.5v-2q63 -6 123 -15t131 -32q82 -25 143.5 -36t118.5 -11q80 0 131.5 31t88.5 82h8l57 -131q-27 -94 -99.5 -162t-185.5 -68q-82 0 -149.5 15.5t-159.5 48.5q-90 31 -141 41t-107 10q-74 0 -147.5 -28.5t-132.5 -71.5z"/>
<glyph unicode="¥" d="M25 1112l22 125h537l-23 -125l-106 -41l133 -213q47 -66 68.5 -119t29.5 -88h8q14 41 36 92.5t56 104.5l156 223l-131 41l23 125h397l-19 -125q-33 -4 -56 -10t-44.5 -24.5t-46.5 -49.5t-57 -80l-189 -282h330l-35 -140h-313v-106h266l-35 -139h-231v-115l166 -41 l-21 -125h-614l22 125q70 10 98.5 33.5t28.5 66.5v56h-299l43 139h256v106h-338l45 140h256l-270 405z"/>
<glyph unicode="¦" horiz-adv-x="1210" d="M457 -133v735h264v-735h-264zM457 811v733h264v-733h-264z"/>
<glyph unicode="§" horiz-adv-x="1314" d="M176 610q0 78 51.5 149.5t126.5 125.5l49 12q-88 88 -88 199q0 74 32 138t86 112.5t128 77t160 28.5q217 0 366 -158l-149 -215q-104 127 -179 172t-159 45q-57 0 -93 -21.5t-36 -60.5q0 -20 13.5 -39.5t48 -47t94 -64.5t151.5 -88q106 -61 176 -116.5t110 -107 t56.5 -100.5t16.5 -98q0 -80 -48.5 -150.5t-127.5 -123.5l-48 -15q86 -88 86 -192q0 -74 -30.5 -139.5t-86 -114.5t-130 -77t-160.5 -28q-104 0 -198.5 40t-164.5 116l150 219q100 -131 175 -176t159 -45q57 0 93 22.5t36 61.5q0 23 -13.5 43t-49.5 46t-94 60.5t-150 87.5 q-106 61 -175 116.5t-110 107t-57.5 100.5t-16.5 98zM389 750q0 -39 11.5 -73t44 -70t91 -78t150.5 -93q63 -39 113.5 -73.5t89.5 -71.5q37 63 37 123q0 39 -10.5 72.5t-43 70.5t-90 78t-149.5 94q-66 39 -117 72t-86 71q-41 -63 -41 -122z"/>
<glyph unicode="¨" horiz-adv-x="952" d="M57 1360q0 143 166 143t166 -143q0 -72 -38 -110t-128 -38q-92 0 -129 38t-37 110zM561 1360q0 143 168 143q164 0 164 -143q0 -72 -38 -110t-126 -38q-92 0 -130 38t-38 110z"/>
<glyph unicode="©" horiz-adv-x="1982" d="M135 745q0 178 65.5 333t180.5 271.5t271.5 183t340.5 66.5t341 -66.5t270.5 -183t178 -271t64.5 -333.5q0 -176 -64.5 -331.5t-178 -272t-270 -183.5t-341.5 -67q-184 0 -340.5 67t-271.5 183.5t-180.5 272t-65.5 331.5zM264 745q0 -150 57.5 -282.5t155.5 -233 t231.5 -160t284.5 -59.5q154 0 286 59.5t230.5 160t153.5 233.5t55 282q0 152 -55 284t-153.5 232.5t-230.5 159t-286 58.5q-152 0 -285 -58.5t-231 -159t-155.5 -232.5t-57.5 -284zM487 745q0 98 40 185.5t112 152t173 101.5t222 37q106 0 204.5 -32t162.5 -73l-45 -252 h-162l-31 160q-27 14 -57.5 23.5t-71.5 9.5q-100 0 -163.5 -80t-63.5 -227q0 -164 63.5 -232.5t176.5 -68.5q37 0 68.5 8t53.5 22l45 172h162v-245q-57 -43 -151.5 -79t-216.5 -36q-131 0 -229.5 35.5t-163 97t-96.5 144.5t-32 177z"/>
<glyph unicode="ª" horiz-adv-x="927" d="M59 901q0 47 20.5 84t67.5 66q53 37 146.5 62.5t241.5 47.5q0 100 -24 149.5t-56 65.5q-45 -12 -117 -59t-121 -103l-141 138q84 68 174 99.5t211 31.5q133 0 228 -84t95 -236v-323l123 -33v-47q-39 -39 -90 -66.5t-98 -27.5q-51 0 -93 31.5t-65 88.5 q-106 -121 -233 -120q-53 0 -102.5 17t-85.5 48t-58.5 75t-22.5 95zM305 924q0 -57 27.5 -86t73.5 -29q35 0 71.5 12.5t59.5 42.5q-2 20 -2 51v82v52q-78 0 -130.5 -8.5t-82.5 -18.5q-17 -30 -17 -98z"/>
<glyph unicode="«" horiz-adv-x="1380" d="M680 455v145l516 455l12 -170l-176 -277l-201 -82l201 -82l176 -280l-12 -166zM168 455v145l516 455l12 -170l-176 -277l-201 -82l201 -82l176 -280l-12 -166z"/>
<glyph unicode="¬" horiz-adv-x="1329" d="M166 518v199h995v-600h-215v401h-780z"/>
<glyph unicode="­" horiz-adv-x="954" d="M82 463v65q0 88 49 123t131 35h604v-76q0 -84 -46 -115.5t-152 -31.5h-586z"/>
<glyph unicode="®" horiz-adv-x="1404" d="M82 1067q0 123 46 230.5t128 189.5t189.5 128t230.5 46t230.5 -46t189.5 -128t128 -189.5t46 -230.5q0 -121 -46 -229.5t-128 -189.5t-189.5 -128t-230.5 -47t-230.5 47t-189.5 128t-128 189.5t-46 229.5zM172 1067q0 -102 39 -195.5t107.5 -161t160.5 -107.5t197 -40 q102 0 195.5 40t161 107.5t107.5 161t40 195.5q0 104 -40 196.5t-107.5 161t-161 107.5t-195.5 39q-104 0 -196.5 -39t-161 -107.5t-107.5 -161t-39 -196.5zM338 791l10 69q33 6 48.5 18.5t15.5 43.5v364l-74 19l10 65h369q125 0 194.5 -52t69.5 -122q0 -59 -36 -98t-85 -58 l72 -98q33 -45 51 -59.5t55 -14.5l-8 -57q-20 -12 -48 -23.5t-64 -11.5q-49 0 -86 20.5t-70 84.5l-70 129h-88v-133l80 -17l-10 -69h-336zM604 1087h49q137 0 138 101q0 37 -33 63.5t-105 26.5h-49v-191z"/>
<glyph unicode="¯" horiz-adv-x="952" d="M92 1270l14 82q10 66 48.5 99.5t132.5 33.5h590l-13 -92q-12 -70 -46 -96.5t-134 -26.5h-592z"/>
<glyph unicode="°" horiz-adv-x="894" d="M72 1182q0 80 28.5 149.5t79.5 119.5t120 80t146 30q80 0 150 -30t120 -80t79.5 -119.5t29.5 -149.5q0 -78 -29.5 -146.5t-79.5 -120t-120 -80t-150 -28.5q-78 0 -146.5 28.5t-119.5 80t-79.5 120t-28.5 146.5zM231 1182q0 -92 62.5 -158t152.5 -66t155 66t65 158 q0 96 -64.5 161.5t-155.5 65.5q-90 0 -152.5 -65.5t-62.5 -161.5z"/>
<glyph unicode="±" d="M131 0v188h991v-188h-991zM131 717v188h395v418h201v-418h395v-188h-395v-420h-201v420h-395z"/>
<glyph unicode="²" horiz-adv-x="903" d="M84 1427q74 92 167 142.5t220 50.5q74 0 138.5 -21.5t111.5 -60.5t74.5 -91t27.5 -110q0 -49 -15 -95t-52 -94t-102.5 -98.5t-164.5 -109.5l-202 -125l569 125l-20 -246h-744v107l213 180q74 61 121 110.5t75.5 90.5t41 77.5t12.5 77.5q0 51 -28.5 96.5t-65.5 59.5 q-45 -18 -97.5 -73.5t-105.5 -131.5z"/>
<glyph unicode="³" horiz-adv-x="886" d="M98 1477q76 70 165 106.5t192 36.5q66 0 128 -17.5t108 -50t75 -77.5t29 -97q0 -80 -64.5 -134t-218.5 -75q328 -33 328 -237q0 -115 -102.5 -185.5t-272.5 -70.5q-104 0 -192.5 22.5t-166.5 71.5l44 121q121 -68 251 -68q84 0 129 35t45 90q0 61 -68.5 105.5 t-223.5 58.5l28 94q119 6 180.5 49t61.5 107q0 49 -32 82t-75 47q-45 -14 -98 -59.5t-94 -92.5z"/>
<glyph unicode="´" horiz-adv-x="952" d="M242 1272l301 450q98 -14 148 -58t50 -103q0 -27 -10 -52.5t-33.5 -53.5t-66.5 -59.5t-109 -66.5l-211 -117z"/>
<glyph unicode="µ" horiz-adv-x="1400" d="M180 -63q0 53 8.5 110t16.5 94q12 74 26.5 164t14.5 223q0 123 -14.5 244t-32.5 217l321 70q6 -37 11.5 -85t5.5 -97q0 -68 -7.5 -143t-15.5 -143.5t-14 -124.5t-6 -89q0 -104 36.5 -150.5t98.5 -46.5q63 0 118.5 41t100.5 127q12 39 23.5 109.5t11.5 146.5 q0 98 -11.5 199.5t-31.5 181.5l299 74q14 -61 18 -130t4 -134q0 -84 -10 -168t-18 -156q-4 -49 -8.5 -88t-4.5 -76q0 -135 103 -135q41 0 85 14.5t95 44.5l-14 -131q-61 -51 -127 -87t-140 -36q-96 0 -162.5 63.5t-87.5 176.5q-55 -104 -119.5 -172t-152.5 -68 q-61 0 -118.5 32t-80.5 75q0 -10 -2 -21.5t-2 -21.5q0 -123 53.5 -223.5t167.5 -196.5l-303 -92q-70 98 -102.5 203t-32.5 205z"/>
<glyph unicode="¶" horiz-adv-x="1628" d="M176 1165q0 82 33 150.5t98.5 120t162.5 80t224 28.5h215v-1270q0 -131 -28.5 -231t-82 -178t-129 -136.5t-171.5 -101.5l-150 232q92 43 155.5 85t100.5 93t51.5 117.5t14.5 160.5v369q-111 16 -201 57t-155.5 103.5t-101.5 144.5t-36 176zM1057 0v1544h477 q-6 -94 -67.5 -146t-170.5 -55v-1343h-239z"/>
<glyph unicode="·" horiz-adv-x="391" d="M18 602q0 78 45.5 121t133.5 43q84 0 130 -45t46 -119q0 -72 -45 -117t-131 -45q-96 0 -137.5 45t-41.5 117z"/>
<glyph unicode="¸" horiz-adv-x="952" d="M272 -416q72 31 115 57.5t67.5 47t33 35t8.5 28.5q0 25 -29 49.5t-90 63.5l203 268l90 -65l-109 -144q123 -29 174 -63.5t51 -83.5q0 -33 -20.5 -67t-72.5 -69.5t-141 -73.5t-228 -79z"/>
<glyph unicode="¹" horiz-adv-x="837" d="M55 1401l465 239l109 -65v-750l180 -24l-16 -107h-621l21 107q104 14 146 47t42 100v482l-272 -136z"/>
<glyph unicode="º" horiz-adv-x="1007" d="M84 1042q0 88 27.5 167t82 140.5t138.5 98.5t196 37q90 0 165 -29t131.5 -81t86 -120.5t29.5 -150.5q0 -94 -31.5 -174t-89 -138.5t-138.5 -91t-183 -32.5q-88 0 -165 28.5t-131.5 77.5t-86 117.5t-31.5 150.5zM340 1071q0 -131 56.5 -205.5t131.5 -74.5q68 0 112 62 t44 222q0 135 -57.5 211t-137.5 76q-70 0 -109.5 -72t-39.5 -219z"/>
<glyph unicode="»" horiz-adv-x="1380" d="M680 164l180 280l203 82l-203 82l-180 277l16 170l512 -455v-145l-512 -457zM168 164l180 280l203 82l-203 82l-180 277l16 170l512 -455v-145l-512 -457z"/>
<glyph unicode="¼" horiz-adv-x="2215" d="M49 1350l465 239l109 -65v-750l180 -24l-16 -107h-621l21 107q104 14 146 47t42 100v482l-272 -136zM1239 262l499 662h209v-598l133 8v-166h-133v-166h-250v166h-411zM1380 285l4 -4l313 24l13 400l-9 4zM504 39l1059 1464l139 -106l-1057 -1465z"/>
<glyph unicode="½" horiz-adv-x="2215" d="M49 1350l465 239l109 -65v-750l180 -24l-16 -107h-621l21 107q104 14 146 47t42 100v482l-272 -136zM1380 735q74 92 167 142.5t220 50.5q74 0 138.5 -21.5t111.5 -60.5t74.5 -91t27.5 -110q0 -49 -15 -95t-52 -94t-102.5 -98.5t-164.5 -109.5l-202 -125l569 125 l-20 -246h-744v107l213 180q74 61 121 110.5t75.5 90.5t41 77.5t12.5 77.5q0 51 -28.5 96.5t-65.5 59.5q-45 -18 -97.5 -73.5t-105.5 -131.5zM504 39l1059 1464l139 -106l-1057 -1465z"/>
<glyph unicode="¾" horiz-adv-x="2215" d="M92 1426q76 70 165 106.5t192 36.5q66 0 128 -17.5t108 -50t75 -77.5t29 -97q0 -80 -64.5 -134t-218.5 -75q328 -33 328 -237q0 -115 -102.5 -185.5t-272.5 -70.5q-104 0 -192.5 22.5t-166.5 71.5l44 121q121 -68 251 -68q84 0 129 35t45 90q0 61 -68.5 105.5 t-223.5 58.5l28 94q119 6 180.5 49t61.5 107q0 49 -32 82t-75 47q-45 -14 -98 -59.5t-94 -92.5zM1239 262l499 662h209v-598l133 8v-166h-133v-166h-250v166h-411zM1380 285l4 -4l313 24l13 400l-9 4zM504 39l1059 1464l139 -106l-1057 -1465z"/>
<glyph unicode="¿" horiz-adv-x="1081" d="M51 -135q0 47 10.5 91t36 92t71.5 100.5t122 117.5q115 96 155.5 150.5t40.5 93.5q0 29 -9 53.5t-32 52.5l148 43q139 -104 139 -227q0 -31 -8 -61.5t-28.5 -64.5t-57.5 -76t-94 -97q-63 -59 -103.5 -101t-64 -75t-32.5 -60.5t-9 -56.5t9 -54.5t24 -39.5q12 -8 27.5 -12 t43.5 -4q70 0 155 47t214 166l201 -215q-109 -96 -239 -156.5t-277 -60.5q-92 0 -173 26.5t-140.5 74.5t-94.5 111.5t-35 141.5zM319 930q0 72 45.5 119t139.5 47q96 0 139 -45t43 -121q0 -172 -182 -172q-90 0 -137.5 46t-47.5 126z"/>
<glyph unicode="À" horiz-adv-x="1681" d="M2 0l23 125q96 14 152 56t97 147l426 1077l283 78l508 -1317l184 -41l-22 -125h-662l23 125l110 31l-92 264h-534l-101 -254l154 -41l-21 -125h-528zM555 584h422l-207 553zM522 1845q0 53 46.5 98.5t117.5 67.5l414 -364l-49 -86l-287 82q-78 23 -126 46t-73.5 47.5 t-34 51t-8.5 57.5z"/>
<glyph unicode="Á" horiz-adv-x="1681" d="M2 0l23 125q96 14 152 56t97 147l426 1077l283 78l508 -1317l184 -41l-22 -125h-662l23 125l110 31l-92 264h-534l-101 -254l154 -41l-21 -125h-528zM555 584h422l-207 553zM602 1642l414 367q72 -20 117.5 -65.5t45.5 -100.5q0 -29 -8 -56.5t-33.5 -52t-73.5 -48 t-126 -44.5l-287 -82z"/>
<glyph unicode="Â" horiz-adv-x="1681" d="M2 0l23 125q96 14 152 56t97 147l426 1077l283 78l508 -1317l184 -41l-22 -125h-662l23 125l110 31l-92 264h-534l-101 -254l154 -41l-21 -125h-528zM555 584h422l-207 553zM400 1657l368 254h144l368 -254l-67 -96l-281 86l-86 94h-10l-86 -94l-281 -86z"/>
<glyph unicode="Ã" horiz-adv-x="1681" d="M2 0l23 125q96 14 152 56t97 147l426 1077l283 78l508 -1317l184 -41l-22 -125h-662l23 125l110 31l-92 264h-534l-101 -254l154 -41l-21 -125h-528zM555 584h422l-207 553zM417 1681q78 139 151 193.5t140 54.5q39 0 85 -12t120 -39l182 -72l160 123l68 -88 q-78 -137 -151 -190t-148 -53q-43 0 -85 12t-114 39l-176 71l-162 -122z"/>
<glyph unicode="Ä" horiz-adv-x="1681" d="M2 0l23 125q96 14 152 56t97 147l426 1077l283 78l508 -1317l184 -41l-22 -125h-662l23 125l110 31l-92 264h-534l-101 -254l154 -41l-21 -125h-528zM555 584h422l-207 553zM385 1743q0 80 46 118t128 38q84 0 129 -41t45 -115q0 -70 -41.5 -110.5t-132.5 -40.5 q-92 0 -133 40.5t-41 110.5zM973 1743q0 80 45 118t127 38q84 0 128 -41t44 -115q0 -70 -43 -110.5t-129 -40.5q-94 0 -133 40.5t-39 110.5z"/>
<glyph unicode="Å" horiz-adv-x="1681" d="M2 0l23 125q96 14 152 56t97 147l426 1077l283 78l508 -1317l184 -41l-22 -125h-662l23 125l110 31l-92 264h-534l-101 -254l154 -41l-21 -125h-528zM555 584h422l-207 553zM509 1829q0 57 25 106.5t67 86t103 56t135 19.5t135.5 -19.5t103.5 -56t66.5 -86t24.5 -106.5 q0 -55 -24.5 -104.5t-66.5 -86t-103.5 -57t-135.5 -20.5t-135 20.5t-103 57t-67 86t-25 104.5zM708 1829q0 -66 34 -103.5t97 -37.5q61 0 96 37.5t35 103.5q0 61 -34.5 102t-96.5 41q-63 0 -97 -41t-34 -102z"/>
<glyph unicode="Æ" horiz-adv-x="2097" d="M0 0l23 125q49 8 84.5 19.5t68.5 32t61.5 51t59.5 79.5l594 967l-182 37l24 125h1295l-91 -355h-153l-25 174l-407 43v-456h450l-39 -174h-411v-518l438 38l84 183h162l-39 -371h-1145l22 125q72 10 104 36.5t32 88.5v170h-451l-153 -254l120 -41l-20 -125h-506zM649 584 h361v397q0 61 2 114.5t4 94.5l-2 4q-16 -33 -36 -68.5t-54 -91.5z"/>
<glyph unicode="Ç" horiz-adv-x="1447" d="M92 668q0 164 57.5 308t162 249.5t249 169t322.5 63.5q135 0 265 -30.5t228 -73.5l-78 -320h-153l-49 168q-39 27 -105.5 47.5t-132.5 20.5q-82 0 -152.5 -36t-124 -105.5t-83 -175t-29.5 -248.5q0 -285 113.5 -416t294.5 -131q72 0 133 12t98 37l82 207h170l-29 -318 q-178 -104 -407 -121l-58 -79q125 -37 181.5 -82t56.5 -97q0 -29 -16.5 -61.5t-65.5 -68.5t-139 -76.5t-238 -81.5l-51 102q66 31 104.5 53.5t61 42t29 34.5t6.5 28q0 31 -29 59.5t-98 69.5l123 151q-150 4 -277 54.5t-221 140.5t-147.5 218t-53.5 286z"/>
<glyph unicode="È" horiz-adv-x="1349" d="M74 1311l18 125h1188l-86 -355h-156l-24 174l-410 43v-456h453l-39 -174h-414v-518l438 38l88 183h160l-41 -371h-1140l22 125q70 10 101.5 36.5t31.5 88.5v1020zM335 1845q0 53 46.5 98.5t117.5 67.5l414 -364l-49 -86l-287 82q-78 23 -126 46t-73.5 47.5t-34 51 t-8.5 57.5z"/>
<glyph unicode="É" horiz-adv-x="1349" d="M74 1311l18 125h1188l-86 -355h-156l-24 174l-410 43v-456h453l-39 -174h-414v-518l438 38l88 183h160l-41 -371h-1140l22 125q70 10 101.5 36.5t31.5 88.5v1020zM506 1642l414 367q72 -20 117.5 -65.5t45.5 -100.5q0 -29 -8 -56.5t-33.5 -52t-73.5 -48t-126 -44.5 l-287 -82z"/>
<glyph unicode="Ê" horiz-adv-x="1349" d="M74 1311l18 125h1188l-86 -355h-156l-24 174l-410 43v-456h453l-39 -174h-414v-518l438 38l88 183h160l-41 -371h-1140l22 125q70 10 101.5 36.5t31.5 88.5v1020zM268 1657l368 254h144l368 -254l-67 -96l-281 86l-86 94h-10l-86 -94l-281 -86z"/>
<glyph unicode="Ë" horiz-adv-x="1349" d="M74 1311l18 125h1188l-86 -355h-156l-24 174l-410 43v-456h453l-39 -174h-414v-518l438 38l88 183h160l-41 -371h-1140l22 125q70 10 101.5 36.5t31.5 88.5v1020zM247 1743q0 80 46 118t128 38q84 0 129 -41t45 -115q0 -70 -41.5 -110.5t-132.5 -40.5q-92 0 -133 40.5 t-41 110.5zM835 1743q0 80 45 118t127 38q84 0 128 -41t44 -115q0 -70 -43 -110.5t-129 -40.5q-94 0 -133 40.5t-39 110.5z"/>
<glyph unicode="Ì" horiz-adv-x="868" d="M74 1311l18 125h668l-23 -125q-70 -12 -101.5 -39t-31.5 -86v-1020l191 -41l-21 -125h-665l22 125q70 10 101.5 36.5t31.5 86.5v1022zM65 1845q0 53 46.5 98.5t117.5 67.5l414 -364l-49 -86l-287 82q-78 23 -126 46t-73.5 47.5t-34 51t-8.5 57.5z"/>
<glyph unicode="Í" horiz-adv-x="868" d="M74 1311l18 125h668l-23 -125q-70 -12 -101.5 -39t-31.5 -86v-1020l191 -41l-21 -125h-665l22 125q70 10 101.5 36.5t31.5 86.5v1022zM242 1642l414 367q72 -20 117.5 -65.5t45.5 -100.5q0 -29 -8 -56.5t-33.5 -52t-73.5 -48t-126 -44.5l-287 -82z"/>
<glyph unicode="Î" horiz-adv-x="868" d="M74 1311l18 125h668l-23 -125q-70 -12 -101.5 -39t-31.5 -86v-1020l191 -41l-21 -125h-665l22 125q70 10 101.5 36.5t31.5 86.5v1022zM8 1657l368 254h144l368 -254l-67 -96l-281 86l-86 94h-10l-86 -94l-281 -86z"/>
<glyph unicode="Ï" horiz-adv-x="868" d="M74 1311l18 125h668l-23 -125q-70 -12 -101.5 -39t-31.5 -86v-1020l191 -41l-21 -125h-665l22 125q70 10 101.5 36.5t31.5 86.5v1022zM-17 1743q0 80 46 118t128 38q84 0 129 -41t45 -115q0 -70 -41.5 -110.5t-132.5 -40.5q-92 0 -133 40.5t-41 110.5zM571 1743 q0 80 45 118t127 38q84 0 128 -41t44 -115q0 -70 -43 -110.5t-129 -40.5q-94 0 -133 40.5t-39 110.5z"/>
<glyph unicode="Ð" horiz-adv-x="1660" d="M74 1311l18 125h684q193 0 340.5 -49.5t248.5 -136.5t151.5 -206.5t50.5 -261.5q0 -182 -58.5 -326.5t-169 -245.5t-266 -155.5t-348.5 -54.5h-616l22 125q70 10 101.5 37.5t31.5 91.5v397h-188v174h188v445zM604 166h62q125 0 222 27.5t165.5 91t102.5 166t34 249.5 q0 301 -130 435.5t-384 134.5h-72v-445h311v-174h-311v-485z"/>
<glyph unicode="Ñ" horiz-adv-x="1685" d="M74 1311l18 125h381l717 -793q41 -47 61.5 -73.5t42.5 -51.5l4 2q-2 31 -5 73t-3 101v576l-145 41l18 125h473l-20 -125q-72 -12 -104.5 -39t-32.5 -84v-1188h-199l-743 823q-23 25 -48.5 62t-39.5 57l-5 -2q8 -57 9 -156v-618l188 -41l-20 -125h-512l22 125 q70 10 101.5 36.5t31.5 86.5v1022zM458 1681q78 139 151 193.5t140 54.5q39 0 85 -12t120 -39l182 -72l160 123l68 -88q-78 -137 -151 -190t-148 -53q-43 0 -85 12t-114 39l-176 71l-162 -122z"/>
<glyph unicode="Ò" horiz-adv-x="1679" d="M92 657q0 168 57.5 313.5t161 255t246.5 171t315 61.5q168 0 301.5 -51t225.5 -143.5t140 -221.5t48 -288q0 -166 -55 -308.5t-157.5 -249t-246 -167t-313.5 -60.5t-303 48.5t-226 138.5t-143.5 215.5t-50.5 285.5zM469 705q0 -141 30.5 -245t87 -170.5t128 -99 t153.5 -32.5q86 0 149.5 29.5t107.5 95t65.5 169t21.5 253.5q0 143 -31.5 248.5t-87 175t-128 105.5t-154.5 36q-168 0 -255 -132t-87 -433zM485 1845q0 53 46.5 98.5t117.5 67.5l414 -364l-49 -86l-287 82q-78 23 -126 46t-73.5 47.5t-34 51t-8.5 57.5z"/>
<glyph unicode="Ó" horiz-adv-x="1679" d="M92 657q0 168 57.5 313.5t161 255t246.5 171t315 61.5q168 0 301.5 -51t225.5 -143.5t140 -221.5t48 -288q0 -166 -55 -308.5t-157.5 -249t-246 -167t-313.5 -60.5t-303 48.5t-226 138.5t-143.5 215.5t-50.5 285.5zM469 705q0 -141 30.5 -245t87 -170.5t128 -99 t153.5 -32.5q86 0 149.5 29.5t107.5 95t65.5 169t21.5 253.5q0 143 -31.5 248.5t-87 175t-128 105.5t-154.5 36q-168 0 -255 -132t-87 -433zM656 1642l414 367q72 -20 117.5 -65.5t45.5 -100.5q0 -29 -8 -56.5t-33.5 -52t-73.5 -48t-126 -44.5l-287 -82z"/>
<glyph unicode="Ô" horiz-adv-x="1679" d="M92 657q0 168 57.5 313.5t161 255t246.5 171t315 61.5q168 0 301.5 -51t225.5 -143.5t140 -221.5t48 -288q0 -166 -55 -308.5t-157.5 -249t-246 -167t-313.5 -60.5t-303 48.5t-226 138.5t-143.5 215.5t-50.5 285.5zM469 705q0 -141 30.5 -245t87 -170.5t128 -99 t153.5 -32.5q86 0 149.5 29.5t107.5 95t65.5 169t21.5 253.5q0 143 -31.5 248.5t-87 175t-128 105.5t-154.5 36q-168 0 -255 -132t-87 -433zM420 1657l368 254h144l368 -254l-67 -96l-281 86l-86 94h-10l-86 -94l-281 -86z"/>
<glyph unicode="Õ" horiz-adv-x="1679" d="M92 657q0 168 57.5 313.5t161 255t246.5 171t315 61.5q168 0 301.5 -51t225.5 -143.5t140 -221.5t48 -288q0 -166 -55 -308.5t-157.5 -249t-246 -167t-313.5 -60.5t-303 48.5t-226 138.5t-143.5 215.5t-50.5 285.5zM469 705q0 -141 30.5 -245t87 -170.5t128 -99 t153.5 -32.5q86 0 149.5 29.5t107.5 95t65.5 169t21.5 253.5q0 143 -31.5 248.5t-87 175t-128 105.5t-154.5 36q-168 0 -255 -132t-87 -433zM440 1681q78 139 151 193.5t140 54.5q39 0 85 -12t120 -39l182 -72l160 123l68 -88q-78 -137 -151 -190t-148 -53q-43 0 -85 12 t-114 39l-176 71l-162 -122z"/>
<glyph unicode="Ö" horiz-adv-x="1679" d="M92 657q0 168 57.5 313.5t161 255t246.5 171t315 61.5q168 0 301.5 -51t225.5 -143.5t140 -221.5t48 -288q0 -166 -55 -308.5t-157.5 -249t-246 -167t-313.5 -60.5t-303 48.5t-226 138.5t-143.5 215.5t-50.5 285.5zM469 705q0 -141 30.5 -245t87 -170.5t128 -99 t153.5 -32.5q86 0 149.5 29.5t107.5 95t65.5 169t21.5 253.5q0 143 -31.5 248.5t-87 175t-128 105.5t-154.5 36q-168 0 -255 -132t-87 -433zM399 1743q0 80 46 118t128 38q84 0 129 -41t45 -115q0 -70 -41.5 -110.5t-132.5 -40.5q-92 0 -133 40.5t-41 110.5zM987 1743 q0 80 45 118t127 38q84 0 128 -41t44 -115q0 -70 -43 -110.5t-129 -40.5q-94 0 -133 40.5t-39 110.5z"/>
<glyph unicode="×" d="M96 1006l144 141l387 -393l387 393l143 -141l-383 -394l383 -389l-141 -143l-389 391l-385 -391l-144 143l383 389z"/>
<glyph unicode="Ø" horiz-adv-x="1730" d="M41 18l190 187q-63 78 -101 196.5t-38 255.5q0 168 57.5 313.5t161 255t246.5 171t315 61.5q135 0 255 -32.5t200 -94.5l184 187l97 -99l-178 -178q80 -92 118.5 -218t38.5 -269q0 -166 -55 -308.5t-157.5 -249t-246 -167t-313.5 -60.5q-162 0 -280.5 36t-204.5 104 l-191 -185zM469 705q0 -145 29 -244l614 651q-53 76 -129 117t-172 41q-168 0 -255 -132t-87 -433zM559 330q45 -82 123 -127t186 -45q82 0 146.5 29.5t107.5 95t66.5 169t23.5 253.5q0 160 -43 276z"/>
<glyph unicode="Ù" horiz-adv-x="1693" d="M51 1311l21 125h665l-20 -125q-72 -12 -102.5 -39t-30.5 -84v-613q0 -207 96 -300t270 -93q162 0 254 91.5t92 287.5v709l-184 41l18 125h512l-22 -125q-70 -12 -101.5 -39t-31.5 -86v-574q0 -643 -604 -643q-330 0 -486.5 151.5t-154.5 473.5v676zM559 1845 q0 53 46.5 98.5t117.5 67.5l414 -364l-49 -86l-287 82q-78 23 -126 46t-73.5 47.5t-34 51t-8.5 57.5z"/>
<glyph unicode="Ú" horiz-adv-x="1693" d="M51 1311l21 125h665l-20 -125q-72 -12 -102.5 -39t-30.5 -84v-613q0 -207 96 -300t270 -93q162 0 254 91.5t92 287.5v709l-184 41l18 125h512l-22 -125q-70 -12 -101.5 -39t-31.5 -86v-574q0 -643 -604 -643q-330 0 -486.5 151.5t-154.5 473.5v676zM729 1642l414 367 q72 -20 117.5 -65.5t45.5 -100.5q0 -29 -8 -56.5t-33.5 -52t-73.5 -48t-126 -44.5l-287 -82z"/>
<glyph unicode="Û" horiz-adv-x="1693" d="M51 1311l21 125h665l-20 -125q-72 -12 -102.5 -39t-30.5 -84v-613q0 -207 96 -300t270 -93q162 0 254 91.5t92 287.5v709l-184 41l18 125h512l-22 -125q-70 -12 -101.5 -39t-31.5 -86v-574q0 -643 -604 -643q-330 0 -486.5 151.5t-154.5 473.5v676zM496 1657l368 254h144 l368 -254l-67 -96l-281 86l-86 94h-10l-86 -94l-281 -86z"/>
<glyph unicode="Ü" horiz-adv-x="1693" d="M51 1311l21 125h665l-20 -125q-72 -12 -102.5 -39t-30.5 -84v-613q0 -207 96 -300t270 -93q162 0 254 91.5t92 287.5v709l-184 41l18 125h512l-22 -125q-70 -12 -101.5 -39t-31.5 -86v-574q0 -643 -604 -643q-330 0 -486.5 151.5t-154.5 473.5v676zM471 1743q0 80 46 118 t128 38q84 0 129 -41t45 -115q0 -70 -41.5 -110.5t-132.5 -40.5q-92 0 -133 40.5t-41 110.5zM1059 1743q0 80 45 118t127 38q84 0 128 -41t44 -115q0 -70 -43 -110.5t-129 -40.5q-94 0 -133 40.5t-39 110.5z"/>
<glyph unicode="Ý" horiz-adv-x="1597" d="M14 1311l19 125h655l-20 -125l-129 -45l319 -525l303 525l-164 45l19 125h485l-22 -125q-37 -6 -63.5 -15.5t-49.5 -28t-45.5 -50t-48.5 -80.5l-326 -568v-401l191 -43l-21 -125h-667l22 125q72 10 102.5 36.5t30.5 86.5v299l-457 723zM680 1642l414 367 q72 -20 117.5 -65.5t45.5 -100.5q0 -29 -8 -56.5t-33.5 -52t-73.5 -48t-126 -44.5l-287 -82z"/>
<glyph unicode="Þ" horiz-adv-x="1431" d="M74 1311l18 125h668l-23 -125q-70 -12 -101.5 -39t-31.5 -86v-53h215q272 0 418.5 -107.5t146.5 -280.5q0 -102 -49 -185t-135 -140.5t-202.5 -89t-256.5 -31.5h-137v-133l191 -41l-21 -125h-665l22 125q70 10 101.5 36.5t31.5 86.5v1022zM604 446h64q188 0 268 67 t80 206q0 129 -80 196.5t-252 67.5h-80v-537z"/>
<glyph unicode="ß" horiz-adv-x="1603" d="M23 930l18 102h209q4 109 46 203t116.5 162.5t179 107.5t239.5 39q98 0 179.5 -29.5t140.5 -80t90 -119t31 -141.5q0 -45 -15.5 -100.5t-44.5 -100.5q-88 -12 -131 -43t-43 -70q0 -37 45 -81t172 -111q82 -47 138.5 -88t88 -82t46 -84t14.5 -95q0 -74 -29.5 -138 t-85 -111t-132 -74t-173.5 -27q-104 0 -213.5 32t-208.5 91l58 268h149l33 -163q41 -33 92 -56.5t115 -23.5q72 0 106.5 28.5t34.5 71.5q0 29 -11 54.5t-42 54t-85 62.5t-142 81q-143 76 -195.5 143.5t-52.5 153.5q0 78 46 144.5t132 105.5q29 68 29 137q0 43 -17.5 84 t-47.5 69.5t-69.5 46t-80.5 17.5q-78 0 -134 -31q-10 -20 -18 -47.5t-14 -69.5t-8.5 -102.5t-2.5 -146.5v-973h-460l24 115q111 16 111 114v637z"/>
<glyph unicode="à" horiz-adv-x="1200" d="M72 295q0 121 110 203q63 47 189.5 87t322.5 64v19q0 119 -26.5 186.5t-75.5 95.5q-66 -29 -146.5 -94t-158.5 -154l-191 197q111 92 226.5 138t285.5 46q84 0 160 -25.5t132 -76.5t89 -125t33 -170v-504l158 -41v-51q-39 -51 -98.5 -82t-123.5 -31q-78 0 -146.5 44.5 t-94.5 121.5q-57 -68 -127 -117t-162 -49q-66 0 -128 23t-114.5 63.5t-83 99t-30.5 132.5zM395 336q0 -80 38 -121t97 -41q102 0 166 74q0 31 -1 74t-1 94v96q-76 -6 -149.5 -16.5t-122.5 -30.5q-12 -20 -19.5 -56t-7.5 -73zM232 1561q0 59 51 103t147 58l301 -450l-67 -60 l-211 117q-68 35 -110 66.5t-66.5 59.5t-34.5 53.5t-10 52.5z"/>
<glyph unicode="á" horiz-adv-x="1200" d="M72 295q0 121 110 203q63 47 189.5 87t322.5 64v19q0 119 -26.5 186.5t-75.5 95.5q-66 -29 -146.5 -94t-158.5 -154l-191 197q111 92 226.5 138t285.5 46q84 0 160 -25.5t132 -76.5t89 -125t33 -170v-504l158 -41v-51q-39 -51 -98.5 -82t-123.5 -31q-78 0 -146.5 44.5 t-94.5 121.5q-57 -68 -127 -117t-162 -49q-66 0 -128 23t-114.5 63.5t-83 99t-30.5 132.5zM395 336q0 -80 38 -121t97 -41q102 0 166 74q0 31 -1 74t-1 94v96q-76 -6 -149.5 -16.5t-122.5 -30.5q-12 -20 -19.5 -56t-7.5 -73zM459 1272l301 450q98 -14 148 -58t50 -103 q0 -27 -10 -52.5t-33.5 -53.5t-66.5 -59.5t-109 -66.5l-211 -117z"/>
<glyph unicode="â" horiz-adv-x="1200" d="M72 295q0 121 110 203q63 47 189.5 87t322.5 64v19q0 119 -26.5 186.5t-75.5 95.5q-66 -29 -146.5 -94t-158.5 -154l-191 197q111 92 226.5 138t285.5 46q84 0 160 -25.5t132 -76.5t89 -125t33 -170v-504l158 -41v-51q-39 -51 -98.5 -82t-123.5 -31q-78 0 -146.5 44.5 t-94.5 121.5q-57 -68 -127 -117t-162 -49q-66 0 -128 23t-114.5 63.5t-83 99t-30.5 132.5zM395 336q0 -80 38 -121t97 -41q102 0 166 74q0 31 -1 74t-1 94v96q-76 -6 -149.5 -16.5t-122.5 -30.5q-12 -20 -19.5 -56t-7.5 -73zM199 1304l316 326h139l319 -326l-80 -92 l-247 123l-60 98l-61 -98l-250 -123z"/>
<glyph unicode="ã" horiz-adv-x="1200" d="M72 295q0 121 110 203q63 47 189.5 87t322.5 64v19q0 119 -26.5 186.5t-75.5 95.5q-66 -29 -146.5 -94t-158.5 -154l-191 197q111 92 226.5 138t285.5 46q84 0 160 -25.5t132 -76.5t89 -125t33 -170v-504l158 -41v-51q-39 -51 -98.5 -82t-123.5 -31q-78 0 -146.5 44.5 t-94.5 121.5q-57 -68 -127 -117t-162 -49q-66 0 -128 23t-114.5 63.5t-83 99t-30.5 132.5zM395 336q0 -80 38 -121t97 -41q102 0 166 74q0 31 -1 74t-1 94v96q-76 -6 -149.5 -16.5t-122.5 -30.5q-12 -20 -19.5 -56t-7.5 -73zM174 1313q98 156 164.5 217t132.5 61 q35 0 67.5 -14t104.5 -51l133 -74l182 135l76 -88q-94 -152 -164.5 -214t-134.5 -62q-35 0 -70.5 13t-101.5 52l-131 72l-184 -137z"/>
<glyph unicode="ä" horiz-adv-x="1200" d="M72 295q0 121 110 203q63 47 189.5 87t322.5 64v19q0 119 -26.5 186.5t-75.5 95.5q-66 -29 -146.5 -94t-158.5 -154l-191 197q111 92 226.5 138t285.5 46q84 0 160 -25.5t132 -76.5t89 -125t33 -170v-504l158 -41v-51q-39 -51 -98.5 -82t-123.5 -31q-78 0 -146.5 44.5 t-94.5 121.5q-57 -68 -127 -117t-162 -49q-66 0 -128 23t-114.5 63.5t-83 99t-30.5 132.5zM395 336q0 -80 38 -121t97 -41q102 0 166 74q0 31 -1 74t-1 94v96q-76 -6 -149.5 -16.5t-122.5 -30.5q-12 -20 -19.5 -56t-7.5 -73zM166 1387q0 143 166 143t166 -143 q0 -72 -38 -110t-128 -38q-92 0 -129 38t-37 110zM670 1387q0 143 168 143q164 0 164 -143q0 -72 -38 -110t-126 -38q-92 0 -130 38t-38 110z"/>
<glyph unicode="å" horiz-adv-x="1200" d="M72 295q0 121 110 203q63 47 189.5 87t322.5 64v19q0 119 -26.5 186.5t-75.5 95.5q-66 -29 -146.5 -94t-158.5 -154l-191 197q111 92 226.5 138t285.5 46q84 0 160 -25.5t132 -76.5t89 -125t33 -170v-504l158 -41v-51q-39 -51 -98.5 -82t-123.5 -31q-78 0 -146.5 44.5 t-94.5 121.5q-57 -68 -127 -117t-162 -49q-66 0 -128 23t-114.5 63.5t-83 99t-30.5 132.5zM395 336q0 -80 38 -121t97 -41q102 0 166 74q0 31 -1 74t-1 94v96q-76 -6 -149.5 -16.5t-122.5 -30.5q-12 -20 -19.5 -56t-7.5 -73zM276 1440q0 115 83 189.5t225 74.5 q141 0 226 -74.5t85 -189.5t-85 -189.5t-226 -74.5t-224.5 74.5t-83.5 189.5zM451 1440q0 -61 35.5 -100t97.5 -39q68 0 102.5 38.5t34.5 100.5q0 59 -35 98t-102 39q-61 0 -97 -39t-36 -98z"/>
<glyph unicode="æ" horiz-adv-x="1730" d="M72 295q0 121 108 203q61 47 188.5 87t325.5 64v25q0 119 -26.5 183.5t-79.5 92.5q-66 -29 -146 -94t-159 -154l-191 197q115 92 231.5 138t268.5 46q117 0 195.5 -43t111.5 -114q61 76 157.5 120t200.5 44q184 0 300 -99.5t116 -265.5q0 -137 -55 -229h-602 q2 -168 88 -250t244 -82q121 0 223 45l45 -129q-80 -53 -178.5 -80t-225.5 -27q-156 0 -260 55.5t-168 153.5q-63 -109 -148 -159t-212 -50q-63 0 -127 21.5t-114 63.5t-80.5 102.5t-30.5 134.5zM395 336q0 -80 38 -121t95 -41q106 0 197 100q-14 39 -22.5 93.5t-8.5 103.5 v41q-76 -6 -150.5 -16.5t-123.5 -30.5q-10 -20 -17.5 -56t-7.5 -73zM1016 612l330 21q6 16 8 41.5t2 50.5q0 102 -45 153.5t-109 51.5q-29 0 -54.5 -7.5t-57.5 -17.5q-33 -47 -53.5 -132t-20.5 -161z"/>
<glyph unicode="ç" horiz-adv-x="1028" d="M74 473q0 131 45 244.5t124 196.5t186.5 129.5t236.5 46.5q190 0 333 -89l-61 -260h-193l-24 144q-35 29 -103 28q-35 0 -74.5 -8t-62.5 -22q-33 -55 -50 -151.5t-17 -205.5q0 -190 78.5 -278t236.5 -88q55 0 105.5 12t103.5 35l39 -131q-125 -84 -303 -101l-62 -81 q123 -27 175.5 -63t52.5 -85q0 -33 -20.5 -66.5t-74 -68.5t-142.5 -74t-226 -80l-53 97q72 33 114.5 58.5t67 45.5t33 35.5t8.5 27.5q0 25 -29 49.5t-90 63.5l107 141q-221 18 -341 144.5t-120 353.5z"/>
<glyph unicode="è" horiz-adv-x="1128" d="M68 473q0 131 42 244.5t119.5 196.5t185 129.5t236.5 46.5q90 0 166 -26t132.5 -75t86 -115.5t29.5 -148.5q0 -133 -55 -229h-600q2 -168 86 -250t245 -82q119 0 224 45l41 -129q-80 -53 -176.5 -80t-225.5 -27q-244 0 -390 129t-146 371zM410 612l327 17q6 20 9.5 45.5 t3.5 46.5q0 104 -44 154.5t-112 50.5q-27 0 -53.5 -4t-59.5 -17q-29 -47 -49 -130t-22 -163zM277 1561q0 59 51 103t147 58l301 -450l-67 -60l-211 117q-68 35 -110 66.5t-66.5 59.5t-34.5 53.5t-10 52.5z"/>
<glyph unicode="é" horiz-adv-x="1128" d="M68 473q0 131 42 244.5t119.5 196.5t185 129.5t236.5 46.5q90 0 166 -26t132.5 -75t86 -115.5t29.5 -148.5q0 -133 -55 -229h-600q2 -168 86 -250t245 -82q119 0 224 45l41 -129q-80 -53 -176.5 -80t-225.5 -27q-244 0 -390 129t-146 371zM410 612l327 17q6 20 9.5 45.5 t3.5 46.5q0 104 -44 154.5t-112 50.5q-27 0 -53.5 -4t-59.5 -17q-29 -47 -49 -130t-22 -163zM508 1272l301 450q98 -14 148 -58t50 -103q0 -27 -10 -52.5t-33.5 -53.5t-66.5 -59.5t-109 -66.5l-211 -117z"/>
<glyph unicode="ê" horiz-adv-x="1128" d="M68 473q0 131 42 244.5t119.5 196.5t185 129.5t236.5 46.5q90 0 166 -26t132.5 -75t86 -115.5t29.5 -148.5q0 -133 -55 -229h-600q2 -168 86 -250t245 -82q119 0 224 45l41 -129q-80 -53 -176.5 -80t-225.5 -27q-244 0 -390 129t-146 371zM410 612l327 17q6 20 9.5 45.5 t3.5 46.5q0 104 -44 154.5t-112 50.5q-27 0 -53.5 -4t-59.5 -17q-29 -47 -49 -130t-22 -163zM221 1306l316 326h139l319 -326l-80 -92l-247 123l-60 98l-61 -98l-250 -123z"/>
<glyph unicode="ë" horiz-adv-x="1128" d="M68 473q0 131 42 244.5t119.5 196.5t185 129.5t236.5 46.5q90 0 166 -26t132.5 -75t86 -115.5t29.5 -148.5q0 -133 -55 -229h-600q2 -168 86 -250t245 -82q119 0 224 45l41 -129q-80 -53 -176.5 -80t-225.5 -27q-244 0 -390 129t-146 371zM410 612l327 17q6 20 9.5 45.5 t3.5 46.5q0 104 -44 154.5t-112 50.5q-27 0 -53.5 -4t-59.5 -17q-29 -47 -49 -130t-22 -163zM215 1387q0 143 166 143t166 -143q0 -72 -38 -110t-128 -38q-92 0 -129 38t-37 110zM719 1387q0 143 168 143q164 0 164 -143q0 -72 -38 -110t-126 -38q-92 0 -130 38t-38 110z "/>
<glyph unicode="ì" horiz-adv-x="755" d="M47 930l19 102l493 55v-931l154 -41l-21 -115h-600l21 115q70 10 95 34.5t25 79.5v652zM41 1561q0 59 51 103t147 58l301 -450l-67 -60l-211 117q-68 35 -110 66.5t-66.5 59.5t-34.5 53.5t-10 52.5z"/>
<glyph unicode="í" horiz-adv-x="755" d="M47 930l19 102l493 55v-931l154 -41l-21 -115h-600l21 115q70 10 95 34.5t25 79.5v652zM269 1272l301 450q98 -14 148 -58t50 -103q0 -27 -10 -52.5t-33.5 -53.5t-66.5 -59.5t-109 -66.5l-211 -117z"/>
<glyph unicode="î" horiz-adv-x="755" d="M47 930l19 102l493 55v-931l154 -41l-21 -115h-600l21 115q70 10 95 34.5t25 79.5v652zM10 1304l316 326h139l319 -326l-80 -92l-247 123l-60 98l-61 -98l-250 -123z"/>
<glyph unicode="ï" horiz-adv-x="755" d="M47 930l19 102l493 55v-931l154 -41l-21 -115h-600l21 115q70 10 95 34.5t25 79.5v652zM-23 1387q0 143 166 143t166 -143q0 -72 -38 -110t-128 -38q-92 0 -129 38t-37 110zM481 1387q0 143 168 143q164 0 164 -143q0 -72 -38 -110t-126 -38q-92 0 -130 38t-38 110z"/>
<glyph unicode="ð" horiz-adv-x="1292" d="M74 481q0 115 34.5 216.5t100 175t157 116.5t203.5 43q80 0 138.5 -27.5t95.5 -64.5l6 6q-31 72 -82 140.5t-119 127.5l-252 -127l-57 117l190 99q-57 37 -120.5 64.5t-126.5 45.5l37 131q115 -8 224 -41t214 -86l284 144l54 -117l-211 -107q166 -123 270.5 -305 t104.5 -416q0 -156 -44.5 -275.5t-123 -201.5t-188 -124t-238.5 -42q-256 0 -403.5 137.5t-147.5 370.5zM414 530q0 -209 65.5 -291.5t169.5 -82.5q100 0 164 104.5t64 300.5q0 72 -8.5 131.5t-20.5 100.5q-33 33 -85 54t-110 21q-106 0 -172.5 -83t-66.5 -255z"/>
<glyph unicode="ñ" horiz-adv-x="1437" d="M47 930l19 102l395 55l82 -202q102 109 196.5 152.5t194.5 43.5q133 0 227 -90t94 -266v-569l146 -41l-23 -115h-579l20 115q55 8 84 33.5t29 80.5v420q0 86 -29 144.5t-76 80.5q-70 -10 -132 -36.5t-136 -71.5v-610l121 -41l-18 -115h-562l23 115q111 16 110 114v652z M336 1313q98 156 164.5 217t132.5 61q35 0 67.5 -14t104.5 -51l133 -74l182 135l76 -88q-94 -152 -164.5 -214t-134.5 -62q-35 0 -70.5 13t-101.5 52l-131 72l-184 -137z"/>
<glyph unicode="ò" horiz-adv-x="1267" d="M74 473q0 121 34.5 232.5t108.5 197.5t183.5 136.5t256.5 50.5q135 0 237.5 -37t169 -103.5t99.5 -161t33 -204.5q0 -123 -38 -233.5t-111.5 -193.5t-183 -133.5t-251.5 -50.5q-135 0 -237.5 37t-169 101.5t-99 157.5t-32.5 204zM414 530q0 -193 69.5 -290t175.5 -97 q45 0 82 18.5t61.5 63.5t39 120t14.5 185q0 182 -68.5 285t-177.5 103q-96 0 -146 -94.5t-50 -293.5zM277 1561q0 59 51 103t147 58l301 -450l-67 -60l-211 117q-68 35 -110 66.5t-66.5 59.5t-34.5 53.5t-10 52.5z"/>
<glyph unicode="ó" horiz-adv-x="1267" d="M74 473q0 121 34.5 232.5t108.5 197.5t183.5 136.5t256.5 50.5q135 0 237.5 -37t169 -103.5t99.5 -161t33 -204.5q0 -123 -38 -233.5t-111.5 -193.5t-183 -133.5t-251.5 -50.5q-135 0 -237.5 37t-169 101.5t-99 157.5t-32.5 204zM414 530q0 -193 69.5 -290t175.5 -97 q45 0 82 18.5t61.5 63.5t39 120t14.5 185q0 182 -68.5 285t-177.5 103q-96 0 -146 -94.5t-50 -293.5zM512 1272l301 450q98 -14 148 -58t50 -103q0 -27 -10 -52.5t-33.5 -53.5t-66.5 -59.5t-109 -66.5l-211 -117z"/>
<glyph unicode="ô" horiz-adv-x="1267" d="M74 473q0 121 34.5 232.5t108.5 197.5t183.5 136.5t256.5 50.5q135 0 237.5 -37t169 -103.5t99.5 -161t33 -204.5q0 -123 -38 -233.5t-111.5 -193.5t-183 -133.5t-251.5 -50.5q-135 0 -237.5 37t-169 101.5t-99 157.5t-32.5 204zM414 530q0 -193 69.5 -290t175.5 -97 q45 0 82 18.5t61.5 63.5t39 120t14.5 185q0 182 -68.5 285t-177.5 103q-96 0 -146 -94.5t-50 -293.5zM250 1304l316 326h139l319 -326l-80 -92l-247 123l-60 98l-61 -98l-250 -123z"/>
<glyph unicode="õ" horiz-adv-x="1267" d="M74 473q0 121 34.5 232.5t108.5 197.5t183.5 136.5t256.5 50.5q135 0 237.5 -37t169 -103.5t99.5 -161t33 -204.5q0 -123 -38 -233.5t-111.5 -193.5t-183 -133.5t-251.5 -50.5q-135 0 -237.5 37t-169 101.5t-99 157.5t-32.5 204zM414 530q0 -193 69.5 -290t175.5 -97 q45 0 82 18.5t61.5 63.5t39 120t14.5 185q0 182 -68.5 285t-177.5 103q-96 0 -146 -94.5t-50 -293.5zM231 1313q98 156 164.5 217t132.5 61q35 0 67.5 -14t104.5 -51l133 -74l182 135l76 -88q-94 -152 -164.5 -214t-134.5 -62q-35 0 -70.5 13t-101.5 52l-131 72l-184 -137z "/>
<glyph unicode="ö" horiz-adv-x="1267" d="M74 473q0 121 34.5 232.5t108.5 197.5t183.5 136.5t256.5 50.5q135 0 237.5 -37t169 -103.5t99.5 -161t33 -204.5q0 -123 -38 -233.5t-111.5 -193.5t-183 -133.5t-251.5 -50.5q-135 0 -237.5 37t-169 101.5t-99 157.5t-32.5 204zM414 530q0 -193 69.5 -290t175.5 -97 q45 0 82 18.5t61.5 63.5t39 120t14.5 185q0 182 -68.5 285t-177.5 103q-96 0 -146 -94.5t-50 -293.5zM217 1387q0 143 166 143t166 -143q0 -72 -38 -110t-128 -38q-92 0 -129 38t-37 110zM721 1387q0 143 168 143q164 0 164 -143q0 -72 -38 -110t-126 -38q-92 0 -130 38 t-38 110z"/>
<glyph unicode="÷" d="M131 537v188h991v-188h-991zM453 225q0 78 45 115t127 37q170 0 170 -152q0 -70 -41 -107.5t-129 -37.5q-94 0 -133 37.5t-39 107.5zM453 1026q0 78 45 115t127 37q170 0 170 -152q0 -70 -41 -105.5t-129 -35.5q-94 0 -133 35.5t-39 105.5z"/>
<glyph unicode="ø" horiz-adv-x="1267" d="M41 31l127 121q-94 127 -94 319q0 123 36.5 234.5t108.5 197.5t181.5 136.5t256.5 50.5q219 0 361 -105l119 121l86 -92l-117 -117q39 -53 64.5 -137t25.5 -176q0 -123 -38 -233.5t-111.5 -194.5t-183 -135.5t-251.5 -51.5q-119 0 -200.5 23.5t-153.5 73.5l-127 -125z M414 530q0 -35 4 -74.5t12 -68.5l373 399q-29 63 -81 97.5t-112 34.5q-96 0 -146 -94.5t-50 -293.5zM469 256q66 -113 190 -113q45 0 82 18.5t61.5 63.5t39 120t14.5 185q0 63 -14 123z"/>
<glyph unicode="ù" horiz-adv-x="1398" d="M18 946l23 113h465v-602q0 -176 39 -237.5t123 -61.5q127 0 196 125v618l-164 45l21 113h469v-903l164 -41l-19 -115l-401 -27l-45 170q-129 -170 -346 -170q-178 0 -270.5 99.5t-92.5 328.5v500zM293 1561q0 59 51 103t147 58l301 -450l-67 -60l-211 117 q-68 35 -110 66.5t-66.5 59.5t-34.5 53.5t-10 52.5z"/>
<glyph unicode="ú" horiz-adv-x="1398" d="M18 946l23 113h465v-602q0 -176 39 -237.5t123 -61.5q127 0 196 125v618l-164 45l21 113h469v-903l164 -41l-19 -115l-401 -27l-45 170q-129 -170 -346 -170q-178 0 -270.5 99.5t-92.5 328.5v500zM529 1272l301 450q98 -14 148 -58t50 -103q0 -27 -10 -52.5t-33.5 -53.5 t-66.5 -59.5t-109 -66.5l-211 -117z"/>
<glyph unicode="û" horiz-adv-x="1398" d="M18 946l23 113h465v-602q0 -176 39 -237.5t123 -61.5q127 0 196 125v618l-164 45l21 113h469v-903l164 -41l-19 -115l-401 -27l-45 170q-129 -170 -346 -170q-178 0 -270.5 99.5t-92.5 328.5v500zM266 1304l316 326h139l319 -326l-80 -92l-247 123l-60 98l-61 -98 l-250 -123z"/>
<glyph unicode="ü" horiz-adv-x="1398" d="M18 946l23 113h465v-602q0 -176 39 -237.5t123 -61.5q127 0 196 125v618l-164 45l21 113h469v-903l164 -41l-19 -115l-401 -27l-45 170q-129 -170 -346 -170q-178 0 -270.5 99.5t-92.5 328.5v500zM233 1387q0 143 166 143t166 -143q0 -72 -38 -110t-128 -38 q-92 0 -129 38t-37 110zM737 1387q0 143 168 143q164 0 164 -143q0 -72 -38 -110t-126 -38q-92 0 -130 38t-38 110z"/>
<glyph unicode="ý" horiz-adv-x="1282" d="M14 946l19 113h610l-18 -113l-140 -39l252 -624l238 624l-135 39l18 113h412l-21 -113q-29 -6 -48 -14t-36.5 -27.5t-35 -53.5t-39.5 -89l-265 -645q-49 -119 -103 -212t-123 -164t-156 -122t-201 -90l-168 215q176 43 289.5 121t166.5 166l-401 876zM578 1272l301 450 q98 -14 148 -58t50 -103q0 -27 -10 -52.5t-33.5 -53.5t-66.5 -59.5t-109 -66.5l-211 -117z"/>
<glyph unicode="þ" horiz-adv-x="1388" d="M16 1389l19 102l493 53v-653q76 102 154 150.5t190 48.5q92 0 171 -34t136.5 -99.5t90.5 -160t33 -210.5q0 -145 -45.5 -258t-120 -192t-172 -121t-197.5 -42q-88 0 -151.5 27t-106.5 68q8 -29 13 -69t5 -91v-207l217 -41l-18 -115h-659l24 115q109 18 109 115v1562z M528 231q33 -43 90.5 -70.5t126.5 -27.5q31 0 58.5 4t48.5 15q47 63 76.5 163.5t29.5 214.5q0 190 -58 283.5t-138 93.5q-111 0 -234 -157v-519z"/>
<glyph unicode="ÿ" horiz-adv-x="1282" d="M14 946l19 113h610l-18 -113l-140 -39l252 -624l238 624l-135 39l18 113h412l-21 -113q-29 -6 -48 -14t-36.5 -27.5t-35 -53.5t-39.5 -89l-265 -645q-49 -119 -103 -212t-123 -164t-156 -122t-201 -90l-168 215q176 43 289.5 121t166.5 166l-401 876zM280 1387 q0 143 166 143t166 -143q0 -72 -38 -110t-128 -38q-92 0 -129 38t-37 110zM784 1387q0 143 168 143q164 0 164 -143q0 -72 -38 -110t-126 -38q-92 0 -130 38t-38 110z"/>
<glyph unicode="ı" horiz-adv-x="755" d="M47 930l19 102l493 55v-931l154 -41l-21 -115h-600l21 115q70 10 95 34.5t25 79.5v652z"/>
<glyph unicode="Œ" horiz-adv-x="2093" d="M92 666q0 174 58.5 320.5t160 249.5t237.5 162.5t292 59.5q82 0 144.5 -7t105.5 -15h933l-90 -355h-151l-25 174l-409 43v-456h452l-41 -174h-411v-518l438 38l86 183h160l-37 -371h-961q-41 -14 -103.5 -22.5t-137.5 -8.5q-160 0 -288 48.5t-221.5 138.5t-142.5 219 t-49 291zM469 705q0 -141 30.5 -245t87 -171.5t130.5 -100t157 -32.5q82 0 134 10v1083q-39 8 -70 14.5t-86 6.5q-168 0 -275.5 -134t-107.5 -431z"/>
<glyph unicode="œ" horiz-adv-x="1951" d="M74 473q0 121 34.5 232.5t108.5 197.5t183.5 136.5t256.5 50.5q158 0 257.5 -44.5t168.5 -127.5q88 88 188.5 130t207.5 42q92 0 168.5 -26t131 -75t84 -115.5t29.5 -148.5q0 -133 -53 -229h-602q2 -168 88 -250t244 -82q121 0 223 45l43 -129q-78 -53 -176 -80t-225 -27 q-129 0 -224.5 43t-171.5 125q-82 -90 -193.5 -129t-232.5 -39q-135 0 -237.5 37t-169 101.5t-99 157.5t-32.5 204zM414 528q0 -190 69.5 -287.5t175.5 -97.5q45 0 82 18.5t61.5 63.5t39 120t14.5 185q0 182 -69.5 285t-176.5 103q-96 0 -146 -94.5t-50 -295.5zM1237 612 l330 17q4 20 7 45.5t3 46.5q0 104 -43 154.5t-113 50.5q-27 0 -52.5 -4t-57.5 -17q-31 -47 -51.5 -130t-22.5 -163z"/>
<glyph unicode="Ÿ" horiz-adv-x="1597" d="M14 1311l19 125h655l-20 -125l-129 -45l319 -525l303 525l-164 45l19 125h485l-22 -125q-37 -6 -63.5 -15.5t-49.5 -28t-45.5 -50t-48.5 -80.5l-326 -568v-401l191 -43l-21 -125h-667l22 125q72 10 102.5 36.5t30.5 86.5v299l-457 723zM403 1743q0 80 46 118t128 38 q84 0 129 -41t45 -115q0 -70 -41.5 -110.5t-132.5 -40.5q-92 0 -133 40.5t-41 110.5zM991 1743q0 80 45 118t127 38q84 0 128 -41t44 -115q0 -70 -43 -110.5t-129 -40.5q-94 0 -133 40.5t-39 110.5z"/>
<glyph unicode="ˆ" horiz-adv-x="952" d="M90 1331l316 326h139l319 -326l-80 -92l-247 123l-60 98l-61 -98l-250 -123z"/>
<glyph unicode="˚" horiz-adv-x="952" d="M147 1446q0 115 83 189.5t225 74.5q141 0 226 -74.5t85 -189.5t-85 -189.5t-226 -74.5t-224.5 74.5t-83.5 189.5zM322 1446q0 -61 35.5 -100t97.5 -39q68 0 102.5 38.5t34.5 100.5q0 59 -35 98t-102 39q-61 0 -97 -39t-36 -98z"/>
<glyph unicode="˜" horiz-adv-x="952" d="M41 1313q98 156 164.5 217t132.5 61q35 0 67.5 -14t104.5 -51l133 -74l182 135l76 -88q-94 -152 -164.5 -214t-134.5 -62q-35 0 -70.5 13t-101.5 52l-131 72l-184 -137z"/>
<glyph unicode="μ" horiz-adv-x="1400" d="M180 -63q0 53 8.5 110t16.5 94q12 74 26.5 164t14.5 223q0 123 -14.5 244t-32.5 217l321 70q6 -37 11.5 -85t5.5 -97q0 -68 -7.5 -143t-15.5 -143.5t-14 -124.5t-6 -89q0 -104 36.5 -150.5t98.5 -46.5q63 0 118.5 41t100.5 127q12 39 23.5 109.5t11.5 146.5 q0 98 -11.5 199.5t-31.5 181.5l299 74q14 -61 18 -130t4 -134q0 -84 -10 -168t-18 -156q-4 -49 -8.5 -88t-4.5 -76q0 -135 103 -135q41 0 85 14.5t95 44.5l-14 -131q-61 -51 -127 -87t-140 -36q-96 0 -162.5 63.5t-87.5 176.5q-55 -104 -119.5 -172t-152.5 -68 q-61 0 -118.5 32t-80.5 75q0 -10 -2 -21.5t-2 -21.5q0 -123 53.5 -223.5t167.5 -196.5l-303 -92q-70 98 -102.5 203t-32.5 205z"/>
<glyph unicode=" " horiz-adv-x="1048"/>
<glyph unicode=" " horiz-adv-x="2097"/>
<glyph unicode=" " horiz-adv-x="1048"/>
<glyph unicode=" " horiz-adv-x="2097"/>
<glyph unicode=" " horiz-adv-x="698"/>
<glyph unicode=" " horiz-adv-x="524"/>
<glyph unicode=" " horiz-adv-x="348"/>
<glyph unicode=" " horiz-adv-x="348"/>
<glyph unicode=" " horiz-adv-x="262"/>
<glyph unicode=" " horiz-adv-x="417"/>
<glyph unicode=" " horiz-adv-x="114"/>
<glyph unicode="‐" horiz-adv-x="954" d="M82 463v65q0 88 49 123t131 35h604v-76q0 -84 -46 -115.5t-152 -31.5h-586z"/>
<glyph unicode="‑" horiz-adv-x="954" d="M82 463v65q0 88 49 123t131 35h604v-76q0 -84 -46 -115.5t-152 -31.5h-586z"/>
<glyph unicode="‒" horiz-adv-x="954" d="M82 463v65q0 88 49 123t131 35h604v-76q0 -84 -46 -115.5t-152 -31.5h-586z"/>
<glyph unicode="–" horiz-adv-x="1361" d="M18 487v197h1325v-197h-1325z"/>
<glyph unicode="—" horiz-adv-x="2723" d="M55 487v197h2614v-197h-2614z"/>
<glyph unicode="‘" horiz-adv-x="604" d="M84 1186q0 43 12.5 88t45 94t89 103.5t140.5 115.5l94 -84q-45 -68 -78 -136.5t-43 -133.5l92 -146l-237 -145q-115 121 -115 244z"/>
<glyph unicode="’" horiz-adv-x="575" d="M84 1022q47 70 78 139.5t43 132.5l-96 148l235 145q117 -109 117 -244q0 -47 -12.5 -90t-44 -92t-86 -104.5t-136.5 -118.5z"/>
<glyph unicode="‚" horiz-adv-x="579" d="M84 -254q47 72 78 141.5t43 130.5l-96 148l235 147q117 -109 117 -245q0 -45 -12.5 -89.5t-44 -93.5t-86 -103t-136.5 -118z"/>
<glyph unicode="“" horiz-adv-x="952" d="M508 1186q0 43 12.5 88t45 94t89 103.5t140.5 115.5l94 -84q-45 -68 -78 -136.5t-43 -133.5l92 -146l-237 -145q-115 121 -115 244zM84 1186q0 43 12.5 88t45 94t89 103.5t140.5 115.5l94 -84q-45 -68 -78 -136.5t-43 -133.5l92 -146l-237 -145q-115 121 -115 244z"/>
<glyph unicode="”" horiz-adv-x="913" d="M506 1022q47 70 78 139.5t43 132.5l-96 148l235 145q117 -109 117 -244q0 -47 -12.5 -90t-44 -92t-86 -104.5t-136.5 -118.5zM84 1022q47 70 78 139.5t43 132.5l-96 148l235 145q117 -109 117 -244q0 -47 -12.5 -90t-44 -92t-86 -104.5t-136.5 -118.5z"/>
<glyph unicode="„" horiz-adv-x="987" d="M520 -254q47 72 78 141.5t43 130.5l-96 148l235 147q117 -109 117 -245q0 -45 -12.5 -89.5t-44 -93.5t-86 -103t-136.5 -118zM84 -254q47 72 78 141.5t43 130.5l-96 148l235 147q117 -109 117 -245q0 -45 -12.5 -89.5t-44 -93.5t-86 -103t-136.5 -118z"/>
<glyph unicode="•" horiz-adv-x="1142" d="M231 584q0 70 26 132t73 109t107.5 74t131.5 27q72 0 134.5 -27t108.5 -74t73.5 -109.5t27.5 -131.5q0 -72 -27.5 -133.5t-73.5 -107.5t-108.5 -73.5t-134.5 -27.5t-132 27.5t-107 73.5t-73 107.5t-26 133.5z"/>
<glyph unicode="…" horiz-adv-x="2422" d="M189 158q0 178 188 178q88 0 133 -48t45 -130q0 -78 -42 -127t-136 -49q-104 0 -146 47t-42 129zM1014 158q0 178 188 178q88 0 133 -48t45 -130q0 -78 -42 -127t-136 -49q-104 0 -146 47t-42 129zM1848 158q0 178 188 178q88 0 133 -48t45 -130q0 -78 -42 -127t-136 -49 q-104 0 -146 47t-42 129z"/>
<glyph unicode=" " horiz-adv-x="417"/>
<glyph unicode="‹" horiz-adv-x="868" d="M168 455v145l516 455l12 -170l-176 -277l-201 -82l201 -82l176 -280l-12 -166z"/>
<glyph unicode="›" horiz-adv-x="868" d="M168 164l180 280l203 82l-203 82l-180 277l16 170l512 -455v-145l-512 -457z"/>
<glyph unicode="⁄" horiz-adv-x="391" d="M-422 39l1059 1464l139 -106l-1057 -1465z"/>
<glyph unicode=" " horiz-adv-x="524"/>
<glyph unicode="⁴" horiz-adv-x="1019" d="M68 954l499 662h209v-598l133 8v-166h-133v-166h-250v166h-411zM209 977l4 -4l313 24l13 400l-9 4z"/>
<glyph unicode="€" d="M59 645l47 141h160q66 221 213.5 344t388.5 123q106 0 193.5 -33.5t150.5 -82.5v-9l-163 -204h-9q-63 70 -134.5 101.5t-139.5 31.5q-31 0 -60.5 -3t-54.5 -12q-39 -41 -61.5 -112.5t-34.5 -143.5h451l-48 -141h-415q-4 -20 -2 -52t4 -54h381l-41 -142h-324 q18 -115 87 -177t171 -62q82 0 148.5 32.5t130.5 92.5h8l80 -111v-4q-72 -86 -171.5 -136t-230.5 -50q-213 0 -342 108.5t-180 306.5h-196l40 142h140q-4 23 -4 55v51h-183z"/>
<glyph unicode="™" horiz-adv-x="1802" d="M63 1370h738l-31 -215h-102l-19 123l-114 18v-405l106 -23l-14 -77h-379l8 77q74 12 74 56v372l-115 -18l-16 -123h-107zM760 791l10 77q39 8 66.5 22.5t31.5 39.5l64 340l-90 16l10 84h246l143 -323l164 323h260l-12 -84q-29 -4 -52.5 -22.5t-9.5 -69.5l66 -305l100 -21 l-8 -77h-389l8 77q27 6 42 21.5t9 52.5l-10 82q-6 39 -7 71.5t-1 59.5h-12q-4 -23 -16.5 -47.5t-26.5 -50.5l-121 -234h-70l-96 203q-12 31 -24.5 64.5t-18.5 64.5l-10 -2q0 -23 -3.5 -51.5t-11.5 -71.5l-16 -141l74 -21l-11 -77h-278z"/>
<glyph unicode="" horiz-adv-x="1060" d="M0 1060h1060v-1060h-1060v1060z"/>
<glyph unicode="ﬁ" horiz-adv-x="1605" d="M23 930l20 102h211q8 233 156.5 372.5t425.5 139.5q39 0 78.5 -5t62.5 -11l-78 -271q-39 23 -93 39.5t-110 16.5q-27 0 -53.5 -3t-42.5 -7q-6 -14 -11 -32t-8 -42.5t-4.5 -61.5t-1.5 -88v-47h826v-876l166 -41l-23 -115h-612l22 115q70 10 94.5 34.5t24.5 79.5v637h-498 v-710l203 -41l-18 -115h-654l23 115q70 10 95.5 34.5t25.5 79.5v637zM1057 1395q0 158 180 157q176 0 176 -157q0 -80 -41 -118t-135 -38q-100 0 -140 38t-40 118z"/>
<glyph unicode="ﬂ" horiz-adv-x="1589" d="M23 930l20 102h211q2 115 43 209t112.5 160.5t173 104.5t228.5 38q88 0 172 -25.5t147 -72.5l213 98h37v-1388l170 -41l-24 -115h-611l23 115q70 10 94.5 34.5t24.5 79.5v961q-55 59 -144.5 94t-179.5 35q-80 0 -131 -21q-6 -12 -11 -30.5t-8 -42t-4 -59.5t-1 -87v-47 h288l-35 -166h-256v-710l203 -41l-18 -115h-654l23 115q70 10 95.5 34.5t25.5 79.5v637z"/>
<glyph unicode="ﬃ" horiz-adv-x="2457" d="M23 930l20 102h211q2 117 42 212t116.5 163t196.5 102.5t288 34.5q27 0 59.5 -3t75.5 -7l-94 -277q-45 29 -110.5 47.5t-133.5 18.5q-25 0 -51.5 -2t-42.5 -8q-14 -31 -19.5 -78t-5.5 -135v-68h531q10 233 157.5 372.5t428.5 139.5q39 0 76.5 -5t62.5 -11l-80 -271 q-37 23 -92 39.5t-109 16.5q-29 0 -54.5 -3t-43.5 -7q-10 -29 -17.5 -75t-7.5 -149v-47h826v-876l166 -41l-23 -115h-612l22 115q70 10 96.5 34.5t26.5 79.5v637h-502v-710l207 -41l-22 -115h-651l22 115q72 10 96.5 34.5t24.5 79.5v637h-529v-710l216 -41l-21 -115h-664 l23 115q70 10 95.5 34.5t25.5 79.5v637zM1909 1395q0 158 182 157q176 0 176 -157q0 -80 -41 -118t-135 -38q-102 0 -142 38t-40 118z"/>
<glyph unicode="ﬄ" horiz-adv-x="2428" d="M23 930l20 102h211q2 117 42 212t116.5 163t196.5 102.5t288 34.5q27 0 64.5 -3t70.5 -7l-94 -277q-45 29 -110.5 47.5t-133.5 18.5q-25 0 -51.5 -2t-42.5 -8q-14 -31 -19.5 -78t-5.5 -135v-68h529q2 115 43 209t112.5 160.5t174 104.5t231.5 38q84 0 170 -25.5 t147 -72.5l213 98h41v-1388l152 -41l-21 -115h-591l24 115q109 16 109 114v961q-57 63 -146.5 96t-177.5 33q-82 0 -133 -21q-10 -29 -17.5 -69.5t-7.5 -128.5v-68h291l-35 -166h-256v-710l207 -41l-22 -115h-651l22 115q72 10 96.5 34.5t24.5 79.5v637h-529v-710l216 -41 l-21 -115h-664l23 115q70 10 95.5 34.5t25.5 79.5v637z"/>
<glyph horiz-adv-x="0" d="M35 1618l368 254h144l368 -254l-67 -96l-281 86l-86 94h-10l-86 -94l-281 -86z"/>
<glyph horiz-adv-x="0" d="M14 1669q0 80 46 118t128 38q84 0 129 -41t45 -115q0 -70 -41.5 -110.5t-132.5 -40.5q-92 0 -133 40.5t-41 110.5zM602 1669q0 80 45 118t127 38q84 0 128 -41t44 -115q0 -70 -43 -110.5t-129 -40.5q-94 0 -133 40.5t-39 110.5z"/>
<glyph horiz-adv-x="0" d="M291 1583l414 367q72 -20 117.5 -65.5t45.5 -100.5q0 -29 -8 -56.5t-33.5 -52t-73.5 -48t-126 -44.5l-287 -82z"/>
<glyph horiz-adv-x="0" d="M-25 1806q0 53 46.5 98.5t117.5 67.5l414 -364l-49 -86l-287 82q-78 23 -126 46t-73.5 47.5t-34 51t-8.5 57.5z"/>
<glyph horiz-adv-x="0" d="M147 1790q0 57 25 106.5t67 86t103 56t135 19.5t135.5 -19.5t103.5 -56t66.5 -86t24.5 -106.5q0 -55 -24.5 -104.5t-66.5 -86t-103.5 -57t-135.5 -20.5t-135 20.5t-103 57t-67 86t-25 104.5zM346 1790q0 -66 34 -103.5t97 -37.5q61 0 96 37.5t35 103.5q0 61 -34.5 102 t-96.5 41q-63 0 -97 -41t-34 -102z"/>
<glyph horiz-adv-x="0" d="M55 1642q78 139 151 193.5t140 54.5q39 0 85 -12t120 -39l182 -72l160 123l68 -88q-78 -137 -151 -190t-148 -53q-43 0 -85 12t-114 39l-176 71l-162 -122z"/>
</font>
</defs>
</svg>
