<?xml version="1.0" encoding="UTF-8" standalone="no"?>
<!DOCTYPE svg PUBLIC "-//W3C//DTD SVG 1.1//EN" "http://www.w3.org/Graphics/SVG/1.1/DTD/svg11.dtd">
<svg xmlns="http://www.w3.org/2000/svg">
<metadata>
This is a custom SVG webfont generated by Font Squirrel.
Copyright   : Copyright c 20102012 by Titus Nemeth Published by Rosetta All rights reserved
Designer    : Titus Nemeth
Foundry     : Titus Nemeth
Foundry URL : httpwwwrosettatypecom
</metadata>
<defs>
<font id="NassimRegular" horiz-adv-x="1280">
<font-face units-per-em="2048" ascent="1229" descent="-819"/>
<missing-glyph horiz-adv-x="528"/>
<glyph unicode=" " horiz-adv-x="528"/>
<glyph unicode="	" horiz-adv-x="528"/>
<glyph unicode=" " horiz-adv-x="528"/>
<glyph unicode="!" horiz-adv-x="630" d="M203 1534l282 45l-82 -1038q-6 -59 -19 -83t-44 -24h-23zM215 123q0 141 141 141q139 0 140 -141q0 -143 -140 -143q-76 0 -108.5 36.5t-32.5 106.5z"/>
<glyph unicode="&quot;" horiz-adv-x="684" d="M60 1591q29 25 54 37t66 12q39 0 67 -12t52 -37l-84 -493h-71zM388 1591q29 25 54 37t66 12q39 0 67 -12t52 -37l-84 -493h-71z"/>
<glyph unicode="#" horiz-adv-x="1357" d="M154 350l32 139h217l64 271h-205l33 139h207l88 363h117l-89 -363h263l88 363h116l-88 -363h209l-32 -139h-209l-68 -271h203l-35 -139h-201l-98 -389h-117l96 389h-260l-96 -389h-117l97 389h-215zM518 489h262l66 271h-260z"/>
<glyph unicode="$" d="M188 111l82 254h109l18 -162q51 -43 130 -72t163 -29q106 0 161.5 52.5t55.5 140.5q0 68 -47 112t-116.5 78.5t-152.5 69.5t-152.5 81t-118 112.5t-48.5 166.5q0 131 97.5 227.5t265.5 119.5v200h162v-194q78 -6 148.5 -26.5t146.5 -55.5l-64 -219h-102l-37 127 q-47 27 -97.5 39t-115.5 12q-88 0 -156.5 -47t-68.5 -131q0 -68 48 -111t117.5 -79t152.5 -70.5t152.5 -81.5t116.5 -115t47 -168q0 -133 -86 -227.5t-235 -120.5v-197h-162v193q-213 12 -414 121z"/>
<glyph unicode="%" horiz-adv-x="1875" d="M180 934q0 188 89 268t229 80q70 0 129 -18.5t100 -60.5t64.5 -108.5t23.5 -160.5q0 -190 -90 -271t-227 -81q-141 0 -229.5 81t-88.5 271zM362 934q0 -274 136 -275q137 0 137 275q0 141 -32 205.5t-105 64.5q-72 0 -104 -64.5t-32 -205.5zM365 29l1060 1294l101 -84 l-1061 -1294zM1061 332q0 188 89 269t228 81q70 0 128.5 -19.5t100.5 -61.5t65.5 -108.5t23.5 -160.5t-23.5 -162t-65.5 -109t-100.5 -61t-128.5 -20q-139 0 -228 81t-89 271zM1243 332q0 -272 135 -273q139 0 140 273q0 141 -33 205.5t-107 64.5q-72 0 -103.5 -64.5 t-31.5 -205.5z"/>
<glyph unicode="&amp;" horiz-adv-x="1511" d="M215 319q0 127 73.5 241t239.5 198q-86 117 -124.5 200.5t-38.5 163.5q0 68 27.5 131.5t77.5 115.5t123 84t163 32q78 0 141.5 -23.5t109.5 -65.5t69.5 -96.5t23.5 -113.5q0 -119 -93.5 -226.5t-256.5 -191.5l288 -410q31 74 43.5 178.5t8.5 213.5l157 84l21 -19 q-6 -72 -21.5 -145.5t-39 -142t-53.5 -129t-62 -105.5q78 -86 167 -131t236 -60l-25 -88q-31 -8 -79 -21t-107 -13q-178 0 -309 167q-80 -80 -179.5 -123.5t-215.5 -43.5q-84 0 -153 28.5t-116 74.5t-71.5 106t-24.5 130zM408 385q0 -121 67.5 -187.5t173.5 -66.5 q80 0 147.5 24.5t118.5 63.5l-342 483q-165 -120 -165 -317zM541 1178q0 -35 7 -69t24.5 -74t50 -92t82.5 -118q100 72 154 153t54 169q0 98 -54 156.5t-134 58.5q-90 0 -137 -55t-47 -129z"/>
<glyph unicode="'" horiz-adv-x="456" d="M109 1591q29 25 54 37t66 12q39 0 67 -12t52 -37l-84 -493h-71z"/>
<glyph unicode="(" horiz-adv-x="665" d="M109 647q0 387 118.5 651.5t350.5 456.5l47 -78q-74 -78 -128.5 -176t-91 -223t-55 -282.5t-18.5 -348.5q0 -197 18.5 -348.5t55 -272t91 -214t128.5 -168.5l-47 -109q-115 96 -203 210t-146.5 249t-89 295.5t-30.5 357.5z"/>
<glyph unicode=")" horiz-adv-x="665" d="M41 -356q74 76 128 169t92 213.5t55.5 272.5t17.5 348q0 190 -17.5 348t-55.5 283t-92 223t-128 176l49 78q227 -193 347 -457t120 -651q0 -197 -30.5 -357.5t-89 -295.5t-146.5 -249t-201 -210z"/>
<glyph unicode="*" horiz-adv-x="1093" d="M109 1352q0 55 27.5 85.5t70.5 30.5q41 0 123 -49t196 -137l-84 387q55 41 109 41q47 0 72.5 -29.5t25.5 -76.5q0 -43 -22.5 -134.5t-61.5 -187.5l342 201q35 -23 56.5 -57.5t21.5 -69.5q0 -63 -69.5 -88t-239.5 -25h-49q-25 0 -47 2l292 -262q-14 -47 -47.5 -82 t-72.5 -35q-61 0 -109.5 89t-95.5 268l-160 -363q-61 0 -107.5 27.5t-46.5 79.5q0 98 283 280l-397 37q-10 31 -10 68z"/>
<glyph unicode="+" d="M172 541v149h391v410h158v-410h391v-149h-391v-410h-158v410h-391z"/>
<glyph unicode="," horiz-adv-x="708" d="M141 78l138 225q102 -35 162.5 -106.5t60.5 -155.5q0 -102 -58.5 -205.5t-210.5 -216.5l-57 57q82 92 110.5 159t32.5 112z"/>
<glyph unicode="-" horiz-adv-x="876" d="M100 489v58q0 66 51.5 95.5t124.5 29.5h512v-62q0 -68 -50 -94.5t-134 -26.5h-504z"/>
<glyph unicode="." horiz-adv-x="776" d="M238 137q0 152 151 152q74 0 113 -40t39 -112q0 -74 -38 -112.5t-114 -38.5q-151 -1 -151 151z"/>
<glyph unicode="/" horiz-adv-x="808" d="M0 -193l664 1889l147 -58l-666 -1884z"/>
<glyph unicode="0" horiz-adv-x="1357" d="M137 633q0 154 40 272.5t110.5 202.5t171 129t221.5 45q119 0 219 -45t172 -129t112 -203t40 -272q0 -154 -40 -274.5t-112 -204.5t-172 -129t-219 -45q-121 0 -221.5 45t-171 129t-110.5 204.5t-40 274.5zM358 633q0 -276 89.5 -403.5t232.5 -127.5q141 0 230 127 t89 404q0 274 -89 400t-230 126q-143 0 -232.5 -126t-89.5 -400z"/>
<glyph unicode="1" horiz-adv-x="978" d="M80 985l530 307l70 -39v-1130l231 -39l-14 -84h-678l21 84q139 18 185 52t46 114v805l-4 4l-322 -187z"/>
<glyph unicode="2" horiz-adv-x="1153" d="M94 0l15 123l311 311q104 102 169.5 175t101.5 127.5t50.5 97.5t14.5 92q0 82 -45 143t-117 90q-35 -8 -74 -29.5t-81 -53.5t-83 -69.5t-75 -78.5h-2l-156 149v4q201 201 471 201q78 0 148.5 -26.5t121.5 -73.5t82 -110.5t31 -137.5q0 -59 -13.5 -112.5t-48 -109 t-96 -118t-153.5 -137.5l-408 -332l4 -6l791 110l6 -12l-60 -217h-905z"/>
<glyph unicode="3" horiz-adv-x="1122" d="M98 1092v2q88 90 204 139t249 49q76 0 145.5 -25.5t120.5 -68.5t82 -98.5t31 -116.5q0 -109 -102.5 -201t-325.5 -147v-7q256 -8 369.5 -93t113.5 -214q0 -94 -56.5 -182t-159.5 -159.5t-246.5 -125t-315.5 -75.5l-76 106v2q295 47 464 157.5t169 260.5 q0 113 -111.5 180.5t-328.5 79.5l-7 4l21 90q180 41 274.5 128t94.5 177q0 70 -44.5 130.5t-125.5 74.5q-143 -39 -297 -209h-2z"/>
<glyph unicode="4" d="M109 209v6l682 1077h8l145 -108v-916l254 17l2 -6l-55 -150h-201v-309l-192 -51l-9 2v358h-548zM254 229l2 -4l487 29v393q0 129 4.5 223.5t10.5 149.5l-2 2z"/>
<glyph unicode="5" horiz-adv-x="1093" d="M98 -123q295 47 466 182.5t171 319.5q0 301 -362 301q-45 0 -92.5 -7t-77.5 -14l-2 5v600h706l-65 -181h-484l-39 -319l5 -4q47 14 106 24.5t113 10.5q76 0 149.5 -22.5t132 -70t96 -121t37.5 -173.5q0 -123 -57 -229.5t-161.5 -189.5t-249 -140.5t-318.5 -79.5l-74 106 v2z"/>
<glyph unicode="6" horiz-adv-x="1226" d="M154 582q0 201 59 361.5t166.5 277t255 186.5t326.5 84v-4l-33 -119q-246 -51 -383 -195.5t-168 -398.5h2q55 41 139 70.5t178 29.5q84 0 161 -29.5t136.5 -81.5t95 -126t35.5 -164q0 -104 -36.5 -195.5t-104.5 -157t-157 -103t-189 -37.5q-104 0 -192.5 41.5t-154 119.5 t-101 190t-35.5 251zM369 559q0 -219 78.5 -338t203.5 -119q104 0 180 78t76 244q0 150 -90 233.5t-215 83.5q-55 0 -116.5 -10t-108.5 -24q-6 -27 -7 -69t-1 -79z"/>
<glyph unicode="7" horiz-adv-x="1091" d="M55 1255v9h981l-20 -152q-201 -215 -354.5 -536.5t-235.5 -755.5l-215 -51l-8 2q35 205 105.5 398t160.5 363t190.5 311.5t190.5 239.5v7h-713z"/>
<glyph unicode="8" horiz-adv-x="1210" d="M154 338q0 121 63.5 215t228.5 172v2q-135 78 -194 167t-59 206q0 76 32.5 146.5t92 124.5t141.5 87t182 33q80 0 149.5 -28.5t122 -74t81 -108.5t28.5 -129q0 -106 -57.5 -200.5t-212.5 -164.5v-4q176 -94 245.5 -193.5t69.5 -215.5q0 -86 -34 -159t-93 -124t-144 -80.5 t-186 -29.5q-106 0 -189 26.5t-143.5 75.5t-92 114.5t-31.5 141.5zM348 373q0 -125 84 -198t209 -73q117 0 182.5 61.5t65.5 151.5q0 49 -18.5 92.5t-60.5 85.5t-112.5 87t-179.5 96q-170 -108 -170 -303zM371 1145q0 -78 65.5 -151.5t235.5 -164.5q80 66 117.5 136.5 t37.5 158.5q0 115 -66.5 179.5t-156.5 64.5q-100 0 -166.5 -64.5t-66.5 -158.5z"/>
<glyph unicode="9" horiz-adv-x="1218" d="M106 815q0 90 37 174t101.5 149.5t153.5 104.5t190 39q100 0 189 -42t153.5 -122t101.5 -197.5t37 -269.5q0 -381 -214 -600t-638 -282l-76 106v2q297 47 485.5 210t219.5 425h-2q-61 -55 -143.5 -89t-172.5 -34q-86 0 -162.5 26.5t-135 80t-91.5 132t-33 187.5zM328 815 q0 -160 76.5 -225.5t199.5 -65.5q76 0 134.5 13.5t107.5 42.5v88q0 231 -72 361t-186 130q-109 0 -184.5 -92t-75.5 -252z"/>
<glyph unicode=":" horiz-adv-x="743" d="M238 905q0 152 151 152q74 0 113 -40t39 -112q0 -74 -38 -112.5t-114 -38.5q-151 -1 -151 151zM238 137q0 152 151 152q74 0 113 -40t39 -112q0 -74 -38 -112.5t-114 -38.5q-151 -1 -151 151z"/>
<glyph unicode=";" horiz-adv-x="770" d="M194 78l138 225q102 -35 162.5 -106.5t60.5 -155.5q0 -102 -58.5 -205.5t-210.5 -216.5l-57 57q82 92 110.5 159t32.5 112zM238 905q0 152 151 152q74 0 113 -40t39 -112q0 -74 -38 -112.5t-114 -38.5q-151 -1 -151 151z"/>
<glyph unicode="&lt;" d="M170 518v178l944 547v-182l-797 -455l797 -452v-183z"/>
<glyph unicode="=" d="M172 371v149h940v-149h-940zM172 690v152h940v-152h-940z"/>
<glyph unicode="&gt;" d="M168 -29v183l797 452l-797 455v182l944 -547v-178z"/>
<glyph unicode="?" horiz-adv-x="1034" d="M84 1425q125 98 232.5 138.5t232.5 40.5q88 0 163.5 -26t130 -72t85 -107.5t30.5 -134.5q0 -41 -7 -85t-30.5 -93.5t-68.5 -104.5t-119 -123q-68 -59 -109.5 -100t-66.5 -74t-33 -56.5t-8 -47.5q0 -39 15.5 -71t41.5 -67l-92 -26q-63 47 -101 99t-38 110q0 33 11.5 66.5 t38 72.5t69.5 85t106 105q59 53 97 96.5t62 81t33 74.5t9 76q0 47 -13.5 84t-33.5 64q-23 16 -46.5 24t-70.5 8q-33 0 -70.5 -8t-81.5 -29.5t-100.5 -60.5t-128.5 -96zM395 123q0 141 142 141q139 0 139 -141q0 -143 -139 -143q-74 0 -108 36.5t-34 106.5z"/>
<glyph unicode="@" horiz-adv-x="1900" d="M141 395q0 172 69 346t193.5 315.5t303 230.5t399.5 89q139 0 260 -43t212 -126t142.5 -203.5t51.5 -276.5q0 -160 -40 -280.5t-105.5 -202.5t-146.5 -124t-165 -42q-121 0 -181.5 80t-50.5 237q-88 -145 -163.5 -208.5t-153.5 -63.5q-70 0 -123 65.5t-53 206.5 q0 92 37 202t95 204t135 156.5t157 62.5q68 0 139.5 -15.5t144.5 -39.5q-20 -76 -35.5 -157t-26.5 -155.5t-16.5 -143.5t-5.5 -120q0 -96 30 -138t87 -42q55 0 108.5 27.5t93.5 88t65.5 157t25.5 229.5q0 123 -39 223t-110.5 171t-173 109.5t-226.5 38.5q-156 0 -291 -66.5 t-236.5 -182t-160.5 -270t-59 -331.5q0 -135 42 -233t114.5 -160.5t174 -91.5t222.5 -29q115 0 196.5 15.5t139.5 42.5l36 -58q-80 -59 -182 -90.5t-244 -31.5q-319 0 -502.5 163.5t-183.5 464.5zM764 459q0 -96 20.5 -131t61.5 -35q49 0 113.5 73.5t109.5 219.5 q23 63 33 125.5t14 130.5q-35 16 -78 24t-71 8q-20 0 -30.5 -1t-21.5 -5q-31 -16 -58.5 -55t-48 -94t-32.5 -122.5t-12 -137.5z"/>
<glyph unicode="A" horiz-adv-x="1542" d="M14 0l23 84q78 18 132 63.5t93 151.5l418 1163l184 41l498 -1380l180 -39l-20 -84h-531l23 84l110 39l-112 326h-549l-125 -326l129 -39l-16 -84h-437zM498 571h469l-234 672z"/>
<glyph unicode="B" horiz-adv-x="1427" d="M92 1386l17 82h587q141 0 240.5 -29.5t162 -77.5t92.5 -113.5t30 -139.5q0 -117 -72 -203t-213 -125v-8q180 -23 273.5 -119t93.5 -233q0 -96 -40 -174t-113 -132.5t-173 -84t-221 -29.5h-623l23 84q82 16 107.5 51t25.5 107v1104zM512 123h176q201 0 289 62.5t88 217.5 q0 143 -106.5 225.5t-311.5 82.5h-135v-588zM512 821h125q184 0 266 65.5t82 203.5q0 256 -360 256h-113v-525z"/>
<glyph unicode="C" horiz-adv-x="1427" d="M131 698q0 160 57.5 303.5t157.5 252t237.5 173t299.5 64.5q147 0 264 -25.5t207 -64.5l-70 -271h-92l-33 146q-53 31 -129 53.5t-172 22.5q-100 0 -186 -39t-151.5 -116t-102.5 -194.5t-37 -275.5q0 -150 37 -264.5t102.5 -194.5t155.5 -119.5t198 -39.5q84 0 158 18 t129 61l78 183h98l-28 -277q-104 -61 -216 -93t-268 -32q-154 0 -281.5 53.5t-220 149.5t-142.5 229t-50 297z"/>
<glyph unicode="D" horiz-adv-x="1587" d="M92 1386l17 82h557q389 0 589.5 -181t200.5 -515q0 -182 -54 -323.5t-154.5 -242t-242 -153.5t-317.5 -53h-555l23 84q82 16 107.5 50t25.5 106v1106zM512 123h92q299 0 450.5 131t151.5 448q0 334 -151.5 489t-464.5 155h-78v-1223z"/>
<glyph unicode="E" d="M92 1386l17 82h1052l-78 -307h-86l-24 156l-461 29v-512h473l-31 -123h-442v-588l494 37l88 168h90l-54 -328h-997l23 84q82 16 107.5 51t25.5 111v1100z"/>
<glyph unicode="F" horiz-adv-x="1191" d="M92 1386l17 82h1026l-80 -307h-86l-25 156l-432 29v-512h473l-31 -123h-442v-588l252 -39l-14 -84h-617l23 84q82 16 107.5 51t25.5 111v1100z"/>
<glyph unicode="G" horiz-adv-x="1501" d="M131 698q0 160 57.5 303.5t157.5 252t237.5 173t299.5 64.5q147 0 264 -25.5t207 -64.5l-70 -271h-92l-39 148q-47 31 -123 52.5t-170 21.5q-100 0 -187 -39t-152.5 -116t-102.5 -194.5t-37 -275.5q0 -150 37 -264.5t102.5 -194.5t155.5 -119.5t198 -39.5q154 0 265 63 v406l-279 32l14 88h488v-596q-123 -66 -248 -99.5t-289 -33.5q-154 0 -281.5 53.5t-220 149.5t-142.5 229t-50 297z"/>
<glyph unicode="H" horiz-adv-x="1789" d="M92 1386l17 82h550l-16 -82q-78 -18 -104.5 -53t-26.5 -108v-391h770v512l-197 40l15 82h551l-17 -82q-80 -18 -105.5 -53t-25.5 -108v-1102l197 -39l-23 -84h-549l23 84q80 16 105.5 51t25.5 107v469h-770v-588l195 -39l-19 -84h-555l23 84q82 16 107.5 51t25.5 107 v1104z"/>
<glyph unicode="I" horiz-adv-x="798" d="M92 1386l17 82h550l-16 -82q-78 -18 -104.5 -53t-26.5 -108v-1102l195 -39l-19 -84h-555l23 84q82 16 107.5 51t25.5 107v1104z"/>
<glyph unicode="J" horiz-adv-x="661" d="M-33 -549q82 55 147.5 124t108.5 153q8 55 11.5 151t3.5 180v1287l-197 40l14 82h557l-22 -82q-78 -18 -104.5 -52t-26.5 -105v-1229q0 -141 -21.5 -241.5t-72 -173t-135.5 -126t-210 -100.5z"/>
<glyph unicode="K" horiz-adv-x="1503" d="M92 1386l17 82h550l-16 -82q-78 -18 -104.5 -53t-26.5 -108v-1102l195 -39l-19 -84h-555l23 84q82 16 107.5 51t25.5 107v1104zM629 717l479 629l-170 40l16 82h516l-16 -82q-53 -4 -91 -13t-68.5 -28.5t-62.5 -51t-71 -85.5l-319 -420l350 -509q33 -49 63.5 -83 t64.5 -55.5t72 -32t85 -14.5l-21 -88q-25 -8 -69 -17t-95 -9q-47 0 -82.5 9t-73.5 34.5t-79 76t-96 131.5z"/>
<glyph unicode="L" horiz-adv-x="1218" d="M92 1386l17 82h557l-23 -82q-78 -18 -104.5 -53t-26.5 -108v-1102l485 31l88 211h99l-54 -365h-997l23 84q82 16 107.5 51t25.5 111v1100z"/>
<glyph unicode="M" horiz-adv-x="2058" d="M84 0l22 84q35 8 58.5 20.5t38 34t22.5 56t15 90.5l108 1061l-172 40l17 82h354l475 -1144l496 1144h346l-21 -82q-94 -14 -117 -51q-17 -27 -16 -87q0 -22 2 -48l92 -1077l199 -39l-21 -84h-552l22 84q80 16 110 51q25 29 24 83q0 11 -1 24l-61 716q-6 70 -10.5 112 t-6.5 81h-4q-12 -39 -29.5 -85t-39.5 -97l-396 -922h-116l-398 934q-29 63 -45 102t-24 68h-4q0 -23 -2.5 -83t-8.5 -124l-67 -821l198 -39l-16 -84h-471z"/>
<glyph unicode="N" horiz-adv-x="1683" d="M92 1386l17 82h311l778 -931q47 -55 69.5 -83t39.5 -51l2 5q-2 47 -2 87v121v730l-144 40l15 82h430l-23 -82q-82 -18 -107.5 -52t-25.5 -105v-1229h-113l-811 981q-66 78 -96 123l-4 -4q4 -35 5 -73t1 -101v-803l182 -39l-14 -84h-469l23 84q82 16 107.5 51t25.5 107 v1104z"/>
<glyph unicode="O" horiz-adv-x="1667" d="M131 676q0 170 57.5 319.5t157.5 259t235.5 173t290.5 63.5q156 0 280 -50t209 -145.5t131 -227.5t46 -296q0 -166 -53 -311.5t-146.5 -254t-224.5 -173t-285 -64.5q-156 0 -283.5 49.5t-220 140.5t-143.5 222t-51 295zM381 727q0 -287 122 -452.5t355 -165.5 q92 0 170 31.5t135.5 104t90 189.5t32.5 287q0 287 -119.5 459t-353.5 172q-92 0 -170 -35t-136 -111t-92 -193.5t-34 -285.5z"/>
<glyph unicode="P" horiz-adv-x="1300" d="M92 1386l17 82h579q264 0 410.5 -111.5t146.5 -295.5q0 -125 -47 -218t-130 -155.5t-195.5 -93.5t-239.5 -31h-121v-440l223 -39l-14 -84h-588l23 84q82 16 107.5 50t25.5 106v1106zM512 672h59q219 0 327 96t108 262q0 162 -100.5 246t-280.5 84h-113v-688z"/>
<glyph unicode="Q" horiz-adv-x="1667" d="M131 676q0 170 57.5 319.5t157.5 259t235.5 173t290.5 63.5q152 0 277 -50t211 -145.5t132 -227.5t46 -296q0 -135 -34 -256t-96 -221t-153.5 -175t-201.5 -118q100 -80 177 -131t140.5 -82t119.5 -44t114 -13q82 0 137 10t110 29l31 -80q-82 -55 -167 -82t-183 -27 q-78 0 -148.5 16.5t-149.5 61.5t-170 119t-212 190q-147 0 -279.5 49.5t-229.5 140.5t-154.5 222t-57.5 295zM381 727q0 -287 122 -452.5t355 -165.5q92 0 170 31.5t135.5 104t90 189.5t32.5 287q0 143 -30.5 260t-90 200t-147.5 128t-205 45q-92 0 -170 -35t-136 -109.5 t-92 -194.5t-34 -288z"/>
<glyph unicode="R" horiz-adv-x="1517" d="M92 1386l17 82h587q279 0 419 -111.5t140 -301.5q0 -119 -71.5 -223.5t-210.5 -159.5l256 -391q35 -55 61.5 -90t53 -55.5t56.5 -31t70 -12.5l-18 -90q-27 -8 -57.5 -16.5t-79.5 -8.5q-82 0 -148.5 49.5t-154.5 190.5l-254 401h-246v-495l195 -39l-13 -84h-561l23 84 q82 16 107.5 50t25.5 106v1106zM512 727h184q150 0 235 75t85 242q0 162 -109.5 237t-302.5 75h-92v-629z"/>
<glyph unicode="S" horiz-adv-x="1226" d="M125 117l78 286h104l19 -174q63 -57 144 -90t185 -33q125 0 199 59.5t74 149.5q0 39 -15.5 76t-57.5 79t-112.5 89t-183.5 107q-102 55 -171 105t-107.5 100.5t-55 101.5t-16.5 108q0 74 35 148t97 131t150.5 94t194.5 37q109 0 206 -29.5t177 -75.5l-65 -243h-89 l-24 151q-88 59 -242 60q-113 0 -187.5 -58.5t-74.5 -136.5q0 -35 11.5 -64.5t47 -63.5t98 -76t169.5 -99q117 -68 193.5 -125t119.5 -111.5t60.5 -109.5t17.5 -121q0 -96 -38 -173t-103.5 -132t-151.5 -85t-184 -30q-133 0 -264.5 43.5t-237.5 104.5z"/>
<glyph unicode="T" horiz-adv-x="1363" d="M29 1468h1308l-67 -333h-92l-27 182l-356 43v-1237l194 -39l-14 -84h-559l22 84q80 16 106.5 51t26.5 107v1118l-356 -43l-29 -182h-92z"/>
<glyph unicode="U" horiz-adv-x="1636" d="M70 1386l14 82h559l-22 -82q-78 -18 -105 -52t-27 -105v-662q0 -229 100.5 -333.5t299.5 -104.5q86 0 158.5 24.5t124 80t79 144.5t27.5 216v752l-178 40l14 82h465l-18 -82q-82 -18 -109 -53t-27 -108v-619q0 -328 -148.5 -482.5t-426.5 -154.5q-317 0 -449.5 146.5 t-132.5 472.5v758z"/>
<glyph unicode="V" horiz-adv-x="1474" d="M14 1386l17 82h532l-16 -82l-129 -40l325 -906q23 -63 37.5 -104t24.5 -74h2q8 33 21.5 72t35.5 104l320 908l-154 40l14 82h433l-17 -82q-39 -8 -65.5 -20t-48 -35.5t-41 -64.5t-43.5 -107l-418 -1159h-172l-500 1346z"/>
<glyph unicode="W" horiz-adv-x="2084" d="M14 1386l17 82h524l-18 -82l-129 -40l260 -906q14 -47 25.5 -93t17.5 -83h2q8 45 16 79t16 65l289 1001h158l285 -944q25 -84 37 -127t18 -74h2q6 31 17.5 73t33.5 128l225 881l-139 40l17 82h399l-19 -82q-33 -8 -57 -17t-42.5 -32.5t-35 -65.5t-37.5 -112l-309 -1159 h-184l-281 922q-33 113 -47 208h-2q-6 -47 -20.5 -98t-28.5 -106l-260 -926h-197l-399 1346z"/>
<glyph unicode="X" horiz-adv-x="1540" d="M29 0l18 84q43 8 76 20.5t60.5 35t56 56t61.5 80.5l332 480l-404 590l-170 40l17 82h610l-22 -82l-166 -40l323 -482l342 482l-166 40l17 82h459l-17 -82q-78 -14 -124 -43.5t-93 -97.5l-336 -473l440 -649l168 -39l-16 -84h-604l14 84l176 41l-368 532l-371 -538 l205 -35l-12 -84h-506z"/>
<glyph unicode="Y" horiz-adv-x="1355" d="M14 1386l17 82h489l-16 -82l-96 -40l342 -601l327 601l-162 40l19 82h422l-19 -82q-35 -8 -59.5 -19t-47 -31.5t-46 -55.5t-54.5 -88l-317 -582v-487l195 -39l-13 -84h-557l21 84q82 16 106.5 51t24.5 107v356l-430 748z"/>
<glyph unicode="Z" horiz-adv-x="1316" d="M84 90l842 1256l-611 -29l-43 -148h-71l-60 299h1012l41 -92l-832 -1253l680 39l86 166h105l-51 -328h-1071z"/>
<glyph unicode="[" horiz-adv-x="614" d="M109 627q0 209 4 364.5t12 274t18.5 204.5t20.5 152q82 41 183.5 71.5t225.5 45.5v-107q-55 -6 -124.5 -26.5t-108.5 -42.5q-16 -109 -24.5 -332t-8.5 -604t8.5 -604.5t24.5 -331.5q39 -23 108.5 -45.5t124.5 -30.5v-100q-125 14 -226 43.5t-183 72.5q-23 106 -39 343 t-16 653z"/>
<glyph unicode="\" horiz-adv-x="808" d="M0 1638l147 58l664 -1889l-145 -53z"/>
<glyph unicode="]" horiz-adv-x="614" d="M41 -385q57 8 127 30.5t108 45.5q16 109 24.5 332t8.5 604t-8 604t-25 332q-39 23 -108.5 43t-126.5 26v107q127 -14 228.5 -45t181.5 -72q8 -66 18 -152t18.5 -204.5t14.5 -274t6 -364.5q0 -416 -18.5 -652.5t-38.5 -343.5q-80 -43 -181.5 -72.5t-228.5 -43.5v100z"/>
<glyph unicode="^" horiz-adv-x="1495" d="M162 526l524 942h129l518 -942h-178l-412 797l-401 -797h-180z"/>
<glyph unicode="_" horiz-adv-x="1392" d="M0 -98h1393v-140h-1393v140z"/>
<glyph unicode="`" horiz-adv-x="974" d="M268 1599q0 43 32 78t81 49l299 -434l-55 -53l-185 139q-102 78 -137 128t-35 93z"/>
<glyph unicode="a" horiz-adv-x="1093" d="M84 285q0 55 23.5 110.5t62.5 85.5q63 51 189 93t331 69v43q0 133 -40 206t-113 103q-127 -41 -304 -196l-114 159q106 72 210.5 104t225.5 32q143 0 243.5 -98.5t100.5 -274.5v-576l154 -43v-34q-29 -37 -77 -64t-91 -27q-66 0 -112 36t-68 118q-63 -72 -145.5 -113 t-172.5 -41q-61 0 -115.5 19.5t-96.5 58.5t-66.5 96.5t-24.5 133.5zM293 311q0 -88 42 -138t130 -50q72 0 131 27.5t98 74.5q0 31 -2 78t-2 105v112q-55 0 -109.5 -4t-104.5 -12t-89 -17.5t-63 -21.5q-31 -62 -31 -154z"/>
<glyph unicode="b" horiz-adv-x="1263" d="M0 1452l20 82l375 45v-571q0 -27 -3 -56.5t-7 -46.5q86 102 180 148.5t193 46.5q86 0 159.5 -35t130 -100.5t88 -159.5t31.5 -211q0 -147 -45 -262t-122.5 -196t-183 -123t-228.5 -42q-47 0 -101.5 9.5t-107.5 22.5t-101.5 32.5t-91.5 44.5v1333zM395 193q47 -45 120 -72 t144 -27q47 0 87 8.5t67 22.5q131 139 131 426q0 96 -22.5 172t-59.5 130t-83 83t-97 29q-63 0 -141 -45.5t-146 -131.5v-595z"/>
<glyph unicode="c" horiz-adv-x="933" d="M90 473q0 133 39 248t108.5 199t165 129t207.5 45q172 0 289 -66l-53 -240h-94l-31 123q-57 43 -164 43q-45 0 -93 -9t-79 -23q-31 -55 -52.5 -160t-21.5 -234q0 -219 96.5 -318t272.5 -99q47 0 90 7t76 15l26 -92q-59 -31 -141 -50.5t-158 -19.5q-227 0 -355 124 t-128 378z"/>
<glyph unicode="d" horiz-adv-x="1300" d="M98 471q0 111 33 223.5t104.5 201.5t181 146.5t259.5 57.5q57 0 108.5 -15.5t92.5 -40.5q-2 14 -3.5 39t-1.5 41v289l-186 39l19 82l376 45v-1462l179 -33l-17 -84l-315 -33l-51 189q-74 -102 -161 -144.5t-200 -42.5q-84 0 -159.5 34t-134 99.5t-91.5 158.5t-33 210z M319 518q0 -211 85 -310t202 -99q76 0 140.5 39.5t125.5 132.5v575q-57 55 -117.5 88t-142.5 33q-88 0 -163 -33q-61 -63 -95.5 -171t-34.5 -255z"/>
<glyph unicode="e" horiz-adv-x="1052" d="M90 473q0 133 37 249t105.5 200t165 131t212.5 47q170 0 266.5 -89t96.5 -255q0 -49 -14.5 -116t-32.5 -112h-615q6 -219 101.5 -319t285.5 -100q53 0 98.5 7t86.5 21l24 -88q-63 -35 -149 -56.5t-185 -21.5q-217 0 -350 130t-133 372zM311 618l441 31q6 25 9 51.5 t3 57.5q0 106 -52.5 166.5t-133.5 60.5q-88 0 -170 -41q-31 -49 -61 -136.5t-36 -189.5z"/>
<glyph unicode="f" horiz-adv-x="778" d="M33 989l22 78h209q4 147 43 246.5t114 158t190.5 83t273.5 24.5h22l-61 -203q-49 14 -110.5 22.5t-110.5 8.5q-74 0 -117 -12q-18 -43 -26.5 -106.5t-8.5 -164.5v-57h283l-29 -133h-254v-811l195 -39l-17 -84h-528l22 84q63 14 91 38.5t28 80.5v731z"/>
<glyph unicode="g" horiz-adv-x="1132" d="M41 -254q0 61 59.5 112.5t147.5 65.5v-26q0 -121 70.5 -192t218.5 -71q137 0 229 57.5t92 145.5q0 72 -73.5 117t-225.5 45h-151q-129 0 -191.5 43t-85.5 121l176 252q-82 39 -135 116.5t-53 165.5q0 82 32.5 156t91 128t139.5 86t177 32q162 0 270 -76q39 88 78 124 t78 36t76 -38t59 -122l-231 -47q39 -47 62.5 -106.5t23.5 -125.5q0 -86 -34 -156.5t-92 -120.5t-136 -78t-166 -28q-43 0 -86 7.5t-74 15.5l-61 -205h286q217 0 328 -80t111 -192q0 -78 -38 -147.5t-108.5 -124t-175 -86t-240.5 -31.5q-209 0 -328.5 69.5t-119.5 157.5z M328 737q0 -139 64.5 -205.5t170.5 -66.5q92 0 147.5 51t55.5 195q0 139 -61.5 212.5t-172.5 73.5q-90 0 -147 -62.5t-57 -197.5z"/>
<glyph unicode="h" horiz-adv-x="1341" d="M41 1452l18 82l379 45v-510q0 -96 -14 -166q139 109 226 149t165 40q137 0 218 -85t81 -251v-633l178 -39l-16 -84h-510l22 84q63 14 90 38.5t27 80.5v469q0 104 -35.5 167.5t-103.5 94.5q-80 -8 -155.5 -37t-172.5 -84v-690l178 -39l-18 -84h-508l21 84q66 14 92 38.5 t26 80.5v1210z"/>
<glyph unicode="i" horiz-adv-x="698" d="M70 965l20 79l375 48v-969l178 -39l-16 -84h-510l20 84q63 14 91 38.5t28 80.5v719zM219 1440q0 129 135 129q125 0 125 -129q0 -131 -125 -131q-74 0 -104.5 34t-30.5 97z"/>
<glyph unicode="j" horiz-adv-x="638" d="M49 -408q59 53 110.5 111.5t80.5 108.5q2 35 4 60.5t3 46t1 45.5v65v893l-187 43l19 79l377 48v-1029q0 -109 -16.5 -186.5t-55.5 -139t-107.5 -112.5t-168.5 -106zM215 1440q0 129 133 129q125 0 125 -129q0 -131 -125 -131q-72 0 -102.5 34t-30.5 97z"/>
<glyph unicode="k" horiz-adv-x="1273" d="M45 1452l16 82l377 45v-1456l180 -39l-16 -84h-512l21 84q66 14 92 38.5t26 80.5v1210zM496 567l340 400l-140 18l17 82h501l-16 -82q-61 -2 -106 -13t-85 -34t-79 -58.5t-86 -88.5l-146 -170l279 -340q45 -55 77.5 -88t65.5 -53.5t66 -30t78 -11.5l-15 -69 q-74 -43 -164 -43q-31 0 -61.5 7t-62 26.5t-69.5 55.5t-83 95z"/>
<glyph unicode="l" horiz-adv-x="655" d="M41 1452l18 82l375 45v-1456l182 -39l-18 -84h-512l23 84q63 14 89.5 38.5t26.5 80.5v1210z"/>
<glyph unicode="m" horiz-adv-x="2019" d="M70 965l20 79l311 48l50 -189q143 109 229 149t164 40q98 0 163.5 -50.5t104.5 -142.5q70 59 124 95t98 58.5t82 31t77 8.5q137 0 217 -85t80 -251v-633l180 -39l-18 -84h-510l22 84q66 14 91.5 38.5t25.5 80.5v469q0 205 -133 262q-72 -6 -147.5 -36t-172.5 -85v-690 l179 -39l-15 -84h-512l23 84q63 14 90 38.5t27 80.5v469q0 117 -32 175t-106 87q-72 -6 -145.5 -36t-171.5 -85v-690l178 -39l-16 -84h-510l20 84q63 14 91 38.5t28 80.5v719z"/>
<glyph unicode="n" horiz-adv-x="1370" d="M70 965l20 79l311 48l50 -189q143 109 229 149t164 40q137 0 218 -85t81 -251v-633l178 -39l-18 -84h-508l20 84q66 14 92.5 38.5t26.5 80.5v469q0 104 -37 167.5t-102 94.5q-82 -8 -157 -37t-173 -84v-690l178 -39l-16 -84h-510l20 84q63 14 91 38.5t28 80.5v719z"/>
<glyph unicode="o" horiz-adv-x="1218" d="M98 473q0 123 33 235.5t98.5 200.5t165 139.5t230.5 51.5q119 0 212 -38t155.5 -104.5t96 -159.5t33.5 -204q0 -131 -39 -243.5t-109.5 -196.5t-168.5 -133.5t-215 -49.5q-242 0 -367 137.5t-125 364.5zM319 535q0 -217 92.5 -329t221.5 -112q61 0 111.5 21.5t85 73 t52 136.5t17.5 210q0 106 -24.5 188t-69.5 139.5t-101.5 86t-117.5 28.5q-135 0 -201 -105.5t-66 -336.5z"/>
<glyph unicode="p" horiz-adv-x="1308" d="M45 969l16 82l312 41l55 -166q96 96 178 135t182 39q86 0 163 -33t135.5 -98.5t92 -160.5t33.5 -214q0 -135 -45 -248t-117.5 -194.5t-167 -129t-196.5 -47.5q-162 0 -262 64q4 -16 9 -57t5 -82v-242l178 -37l-14 -86h-512l21 86q66 14 92 39t26 82v1186zM438 229 q55 -68 119 -99.5t162 -31.5q76 0 141 25q55 61 92 163.5t37 264.5q0 96 -22.5 172t-58.5 130t-82 83t-93 29q-76 0 -142.5 -33t-152.5 -119v-584z"/>
<glyph unicode="q" horiz-adv-x="1261" d="M98 473q0 113 33 223.5t104.5 199.5t181 146.5t259.5 57.5q152 0 260 -86l55 86l90 -27v-1415l125 -37l-14 -86h-580l17 86q145 16 194 40t49 81v258q0 47 1 86t4 70q-74 -102 -161 -144.5t-198 -42.5q-84 0 -160.5 34t-135 99.5t-91.5 158.5t-33 212zM319 518 q0 -106 23 -183t61.5 -126t91 -74.5t109.5 -25.5q78 0 142.5 39.5t125.5 132.5v575q-100 121 -260 121q-88 0 -163 -33q-61 -63 -95.5 -171t-34.5 -255z"/>
<glyph unicode="r" horiz-adv-x="886" d="M63 965l21 79l311 48l51 -189q86 96 168 142.5t138 46.5q43 0 73.5 -42t40.5 -130l-407 -93v-704l178 -39l-16 -84h-510l20 84q63 14 91 38.5t28 80.5v719z"/>
<glyph unicode="s" horiz-adv-x="952" d="M78 86l61 240h101l16 -138q109 -94 254 -94q76 0 124 38t48 97q0 33 -12.5 60.5t-46 58.5t-89 64.5t-139.5 81.5q-125 70 -178 139t-53 158q0 59 27.5 114.5t77.5 98.5t122 69.5t158 26.5q94 0 171 -19.5t140 -50.5l-53 -223h-86l-27 119q-39 25 -85 38t-101 13 q-43 0 -82 -6t-72 -21q-8 -14 -18 -36.5t-10 -45.5q0 -27 8 -49t33.5 -48t73.5 -55.5t130 -74.5q162 -90 224.5 -169t62.5 -177q0 -145 -103.5 -234.5t-260.5 -89.5q-100 0 -208 31t-208 84z"/>
<glyph unicode="t" horiz-adv-x="843" d="M14 989l23 78h209v272l209 37v-309h305l-35 -133h-270v-596q0 -129 27.5 -168t99.5 -39q43 0 84 9.5t90 31.5l32 -96q-82 -53 -155.5 -74.5t-147.5 -21.5q-51 0 -95 13t-76.5 44t-50 85t-17.5 136v676z"/>
<glyph unicode="u" horiz-adv-x="1304" d="M41 985l14 82h353v-633q0 -180 45 -248.5t143 -68.5q80 0 145.5 35.5t122.5 117.5v674l-178 41l16 82h371v-950l178 -33l-14 -84l-317 -23l-52 185q-74 -98 -160.5 -141.5t-203.5 -43.5q-158 0 -231.5 89.5t-73.5 289.5v588z"/>
<glyph unicode="v" horiz-adv-x="1155" d="M14 985l17 82h487l-16 -82l-140 -18l287 -742l262 742l-155 18l12 82h375l-15 -82q-47 -4 -76.5 -33.5t-52.5 -93.5l-311 -858h-184l-379 967z"/>
<glyph unicode="w" horiz-adv-x="1697" d="M14 985l17 82h489l-16 -82l-142 -18l226 -742l248 817h145l266 -817l195 742l-160 18l16 82h388l-17 -82q-29 -2 -48 -10t-33.5 -27.5t-28 -53.5t-27.5 -87l-219 -807h-199l-242 743l-231 -743h-199l-309 967z"/>
<glyph unicode="x" horiz-adv-x="1224" d="M0 0l16 80q51 10 87 19.5t64 28.5t53.5 47t58.5 73l210 295l-313 418l-117 24l17 82h489l-14 -82l-111 -24l224 -302l231 308l-109 18l17 82h409l-18 -82q-49 -4 -84 -11t-64.5 -22.5t-55 -41t-56.5 -64.5l-199 -260l346 -477l125 -29l-16 -80h-504l16 80l125 29 l-256 354l-260 -354l146 -29l-15 -80h-442z"/>
<glyph unicode="y" horiz-adv-x="1169" d="M14 985l17 82h487l-16 -82l-140 -18l279 -721l262 721l-147 18l12 82h387l-12 -82q-59 -8 -90 -39t-62 -110l-280 -730q-51 -129 -105.5 -225t-114 -166.5t-126 -118t-142.5 -77.5l-160 157q154 45 275 135.5t178 208.5l-391 947z"/>
<glyph unicode="z" horiz-adv-x="1048" d="M55 78l639 876l-418 -16l-47 -143h-96l-33 272h850l11 -78l-642 -880l472 24l86 154h118l-51 -287h-860z"/>
<glyph unicode="{" horiz-adv-x="616" d="M109 573v95q111 23 154.5 59.5t43.5 87.5q0 53 -21.5 113.5t-68.5 148.5q-47 90 -70.5 148.5t-23.5 128.5q0 53 32.5 114.5t94 116.5t145.5 98t185 58l-48 -172q-74 -20 -148.5 -78.5t-113.5 -122.5q10 -51 36 -107.5t63 -138.5q39 -88 62.5 -153.5t23.5 -126.5 q0 -162 -217 -221q104 -27 160.5 -83.5t56.5 -136.5q0 -61 -23.5 -126.5t-62.5 -155.5q-41 -80 -64.5 -137.5t-34.5 -104.5q39 -66 114 -125t148 -78l48 -172q-100 12 -184.5 56.5t-146 99.5t-94 116.5t-32.5 114.5q0 70 23.5 129.5t70.5 149.5q47 86 68.5 145.5t21.5 112.5 t-43.5 88.5t-154.5 58.5z"/>
<glyph unicode="|" horiz-adv-x="1114" d="M481 -137v1716h152v-1716h-152z"/>
<glyph unicode="}" horiz-adv-x="616" d="M41 -498l45 172q74 18 148.5 78t113.5 125q-8 47 -33.5 104.5t-64.5 137.5q-39 90 -62.5 155.5t-23.5 126.5q0 80 56 136.5t161 83.5q-217 59 -217 221q0 61 23.5 126.5t62.5 153.5q37 82 63.5 138.5t34.5 107.5q-39 63 -113.5 121.5t-148.5 79.5l-45 172 q100 -14 183 -57.5t143.5 -98.5t94.5 -116.5t34 -114.5q0 -70 -22.5 -128.5t-70.5 -148.5q-47 -88 -69.5 -148.5t-22.5 -113.5q0 -51 43 -88t156 -59v-95q-113 -23 -156 -58.5t-43 -88.5t22.5 -112.5t69.5 -145.5q47 -90 70 -149.5t23 -129.5q0 -53 -34 -114.5t-94.5 -116.5 t-143.5 -99.5t-183 -56.5z"/>
<glyph unicode="~" horiz-adv-x="1357" d="M203 516q98 172 160.5 240.5t125.5 68.5q27 0 78 -22.5t127 -69.5q80 -51 122 -70.5t65 -19.5q27 0 49 8t48 29.5t56.5 56.5t69.5 88l51 -57q-96 -172 -160.5 -241.5t-122.5 -69.5q-29 0 -74.5 19.5t-117.5 64.5q-55 31 -89 50t-54.5 28.5t-34 13.5t-23.5 4q-25 0 -46 -6 t-46 -24.5t-55.5 -54.5t-75.5 -95z"/>
<glyph unicode="¡" horiz-adv-x="630" d="M137 958q0 66 33 104t106 38q74 0 108 -36t34 -106q0 -145 -142 -145q-139 0 -139 145zM147 -502l84 1039q6 61 18.5 83.5t43.5 22.5h22l113 -1100z"/>
<glyph unicode="¢" d="M238 565q0 115 28.5 215.5t81.5 179t126 133t161 76.5v217h162v-200q145 -8 250 -66l-52 -239h-96l-31 123q-57 43 -163 43q-45 0 -93.5 -9.5t-79.5 -23.5q-31 -55 -52 -159.5t-21 -233.5q0 -219 96 -316.5t272 -97.5q47 0 86 5t72 13l27 -92q-47 -27 -110.5 -42 t-127.5 -21v-211h-162v217q-180 27 -277 148.5t-97 340.5z"/>
<glyph unicode="£" d="M92 0l31 160q18 12 45 27.5t49 27.5q33 16 57.5 36.5t41 59.5t28.5 103.5t25 167.5h-185l31 123h162q25 303 152.5 436t314.5 133q82 0 151.5 -31t118.5 -90v-2l-125 -135h-4q-41 51 -94 78.5t-123 27.5q-39 0 -71.5 -5t-63.5 -17q-23 -47 -37 -135t-16 -260h393 l-35 -123h-371q-25 -133 -77 -214t-119 -137v-2q63 -4 128.5 -12t147.5 -31t138.5 -32t117.5 -9q80 0 144.5 28t103.5 75h2l45 -101q-37 -78 -109.5 -128t-168.5 -50q-74 0 -140.5 15.5t-130.5 38.5q-68 23 -138.5 36t-137.5 13q-72 0 -137.5 -20.5t-126.5 -57.5z"/>
<glyph unicode="¥" d="M41 1182l20 82h486l-19 -82l-116 -39l190 -301q31 -47 55.5 -96.5t38.5 -86.5h6q18 70 89 170l204 314l-145 39l16 82h379l-16 -82q-66 -12 -101.5 -41t-89.5 -107l-235 -368h336l-35 -123h-338v-125h364l-36 -123h-328v-172l162 -39l-21 -84h-510l23 84q82 16 109.5 51 t27.5 107v53h-373l35 123h338v125h-364l36 123h279l-313 477z"/>
<glyph unicode="¦" horiz-adv-x="1114" d="M481 -137v753h152v-753h-152zM481 829v750h152v-750h-152z"/>
<glyph unicode="§" horiz-adv-x="1249" d="M203 705q0 154 108 284l68 17q-41 70 -41 155q0 63 27.5 122.5t74.5 104t109.5 71t136.5 26.5q96 0 172 -34t127 -89l-104 -156q-51 63 -123 101.5t-156 38.5q-74 0 -115 -39t-41 -84q0 -55 54.5 -111.5t189.5 -150.5q96 -63 164 -122t111 -116t62.5 -115.5t19.5 -122.5 q0 -74 -26 -145.5t-83 -136.5l-66 -19q41 -74 41 -155q0 -66 -27.5 -124.5t-74.5 -101.5t-110.5 -69.5t-135.5 -26.5q-94 0 -171 34t-130 89l107 156q49 -63 121.5 -102.5t156.5 -39.5q72 0 115 40t43 85q0 55 -55.5 111.5t-192.5 150.5q-188 127 -272 237t-84 237zM332 786 q0 -43 13 -81.5t48 -80.5t94.5 -92.5t147.5 -111.5q76 -55 130 -103.5t91 -99.5q66 100 66 191q0 41 -13.5 79.5t-48.5 80.5t-94 89.5t-148 110.5q-78 57 -132 105.5t-89 101.5q-35 -53 -50 -99.5t-15 -89.5z"/>
<glyph unicode="¨" horiz-adv-x="974" d="M139 1362q0 123 119 123q121 0 121 -123q0 -55 -30 -89t-91 -34q-119 0 -119 123zM596 1362q0 123 123 123q117 0 117 -123q0 -55 -28 -89t-89 -34q-123 0 -123 123z"/>
<glyph unicode="©" horiz-adv-x="2027" d="M139 764q0 180 66.5 339t184.5 277.5t277.5 186t348.5 67.5q188 0 348 -67.5t276.5 -186t182 -277.5t65.5 -339q0 -182 -65.5 -341t-182 -278.5t-276.5 -187.5t-348 -68t-348 68t-278 187.5t-184.5 278.5t-66.5 341zM270 764q0 -154 58.5 -290t159 -239.5t236.5 -164 t292 -60.5q158 0 292 60.5t234 164t157.5 239.5t57.5 290q0 152 -57.5 287t-157.5 238.5t-234 162.5t-292 59q-156 0 -292 -59t-236.5 -162.5t-159 -238.5t-58.5 -287zM537 764q0 100 39.5 185t107.5 147.5t163 98.5t208 36q104 0 193 -23.5t147 -52.5l-43 -233h-105 l-24 155q-31 16 -80 33.5t-105 17.5q-133 0 -207.5 -103t-74.5 -253q0 -162 69.5 -257t218.5 -95q47 0 97.5 14.5t81.5 36.5l39 172h102v-248q-72 -39 -157 -61.5t-173 -22.5q-121 0 -214 34t-155.5 93.5t-95 143.5t-32.5 182z"/>
<glyph unicode="ª" horiz-adv-x="808" d="M78 907q0 45 20.5 86t61.5 72q47 35 130 64.5t236 52.5q0 63 -7 103t-19.5 66.5t-33 41t-46.5 24.5q-49 -14 -118 -54t-114 -89l-86 112q61 51 139 80t175 29q104 0 182 -71.5t78 -219.5v-383l123 -33v-30q-25 -29 -64 -50.5t-71 -21.5q-43 0 -76 32t-47 85 q-59 -66 -114.5 -91.5t-111.5 -25.5q-104 0 -170.5 62.5t-66.5 158.5zM231 928q0 -63 36 -94t95 -31q96 0 166 71q-2 20 -2 40v71v88q-102 0 -173.5 -11t-102.5 -28q-19 -30 -19 -106z"/>
<glyph unicode="«" horiz-adv-x="1265" d="M666 465v147l401 396l6 -80l-176 -322l-133 -69l133 -70l176 -320l-6 -77zM195 465v147l401 396l6 -80l-176 -322l-133 -69l133 -70l176 -320l-6 -77z"/>
<glyph unicode="¬" horiz-adv-x="1357" d="M193 578v155h944v-553h-156v398h-788z"/>
<glyph unicode="­" horiz-adv-x="876" d="M100 489v58q0 66 51.5 95.5t124.5 29.5h512v-62q0 -68 -50 -94.5t-134 -26.5h-504z"/>
<glyph unicode="®" horiz-adv-x="1435" d="M84 1092q0 125 47 235.5t131 193.5t193.5 131t234.5 48t235.5 -48t194.5 -131t131 -193.5t47 -235.5t-47 -236t-131 -193.5t-194.5 -130t-235.5 -47.5t-234.5 47.5t-193.5 130t-131 193.5t-47 236zM176 1092q0 -106 40 -200.5t109.5 -164.5t165 -109.5t199.5 -39.5 q106 0 200.5 39.5t164 109.5t110.5 164t41 201q0 106 -41 200t-110.5 164t-163.5 111t-201 41q-104 0 -199.5 -41t-165 -111t-109.5 -164t-40 -200zM377 1360l10 47h309q119 0 187.5 -47t68.5 -121q0 -66 -39 -103.5t-100 -58.5l90 -119q23 -31 37 -47t28.5 -25t29 -11.5 t36.5 -6.5l-12 -49q-16 -6 -42 -13t-52 -7q-45 0 -76 23.5t-76 90.5l-90 140h-82v-176l90 -17l-8 -47h-293l10 47q63 8 64 53v426zM604 1112h39q78 0 127 27.5t49 85.5q0 57 -37 82.5t-118 25.5h-60v-221z"/>
<glyph unicode="¯" horiz-adv-x="974" d="M119 1298l12 54q10 55 43 74.5t113 19.5h555l-13 -60q-10 -53 -40.5 -70.5t-94.5 -17.5h-575z"/>
<glyph unicode="°" horiz-adv-x="882" d="M84 1221q0 74 27.5 139t77 114.5t113 77t138.5 27.5q76 0 141.5 -27.5t113.5 -77t76 -115t28 -138.5q0 -76 -28 -140.5t-76 -112.5t-113.5 -76t-141.5 -28t-139 28t-112.5 76t-77 112.5t-27.5 140.5zM219 1221q0 -98 64.5 -165t156.5 -67t158 66.5t66 165.5 q0 96 -66 164.5t-158 68.5t-156.5 -68.5t-64.5 -164.5z"/>
<glyph unicode="±" d="M172 0v150h940v-150h-940zM172 711v149h391v410h158v-410h391v-149h-391v-410h-158v410h-391z"/>
<glyph unicode="²" horiz-adv-x="825" d="M117 1470q70 78 150.5 127.5t189.5 49.5q59 0 113.5 -19.5t95.5 -54.5t66.5 -83t25.5 -99t-14.5 -98.5t-47 -100.5t-93 -114.5t-152.5 -135.5l-162 -135l510 74l-25 -170h-649l8 84l201 186q131 123 192.5 210t61.5 173q0 68 -39 118t-98 72q-49 -16 -107.5 -70 t-105.5 -120z"/>
<glyph unicode="³" horiz-adv-x="813" d="M139 776l37 92q55 -31 113.5 -48t134.5 -17q92 0 146.5 41t54.5 114q0 80 -87 132.5t-249 68.5l20 74q133 6 206 49t73 117q0 63 -40 102t-108 53q-45 -12 -106.5 -53t-102.5 -86l-92 111q76 66 154 93.5t158 27.5q59 0 113 -18.5t94 -49.5t63.5 -74t23.5 -92 q0 -74 -60 -133t-200 -82q131 -14 218.5 -71.5t87.5 -174.5q0 -111 -93.5 -183.5t-248.5 -72.5q-90 0 -166 20.5t-144 59.5z"/>
<glyph unicode="´" horiz-adv-x="974" d="M268 1292l297 434q51 -14 83 -49t32 -78t-35 -93t-137 -128l-184 -139z"/>
<glyph unicode="µ" horiz-adv-x="1312" d="M203 -72q0 39 4 79t10 79q16 100 27.5 204.5t11.5 250.5q0 135 -8 258t-19 221l209 47q4 -47 7.5 -89t3.5 -83q0 -143 -16.5 -260t-16.5 -238q0 -264 174 -264q66 0 137.5 53.5t128.5 171.5q12 49 19.5 117t7.5 150q0 41 -3 94t-7.5 107.5t-9.5 104.5t-11 89l192 47 q6 -53 8.5 -110.5t2.5 -129.5q0 -92 -8.5 -195.5t-18.5 -199.5q-8 -55 -8 -104q0 -94 36 -141.5t120 -47.5q31 0 64.5 7.5t66.5 21.5v-100q-55 -39 -116 -65t-122 -26q-80 0 -140.5 66t-64.5 195q-70 -137 -139.5 -199t-165.5 -62q-66 0 -118 28t-83 75q-2 -10 -5 -37 t-3 -51q0 -125 35 -217t127 -185l-217 -71q-92 194 -92 409z"/>
<glyph unicode="¶" horiz-adv-x="1521" d="M203 1163q0 90 36.5 165t104.5 131.5t164 88t219 31.5h133v-1317q0 -117 -19.5 -208t-61.5 -161.5t-108.5 -131t-162.5 -111.5l-105 162q168 86 246 188t78 270v432q-254 35 -389 157t-135 304zM1044 0v1579h371q-14 -92 -71.5 -124t-161.5 -38v-1417h-138z"/>
<glyph unicode="·" horiz-adv-x="348" d="M41 621q0 135 135 135q131 0 131 -135q0 -63 -32.5 -98.5t-98.5 -35.5q-74 0 -104.5 35.5t-30.5 98.5z"/>
<glyph unicode="¸" horiz-adv-x="974" d="M311 -428q129 70 169 106.5t40 59.5t-27.5 45t-105.5 63l209 273l61 -43l-120 -160q98 -41 140 -78t42 -76q0 -25 -15.5 -49t-57.5 -54t-114.5 -65.5t-183.5 -82.5z"/>
<glyph unicode="¹" horiz-adv-x="768" d="M78 1417l426 232l51 -27v-815l178 -31l-8 -65h-518l12 65q98 14 143.5 40t45.5 89v582l-285 -154z"/>
<glyph unicode="º" horiz-adv-x="960" d="M117 1051q0 86 25.5 167.5t75.5 144t124 100.5t170 38q168 0 265 -96t97 -268q0 -92 -29.5 -174t-80.5 -142.5t-124 -95.5t-159 -35q-166 0 -265 97.5t-99 263.5zM279 1092q0 -137 66.5 -220.5t166.5 -83.5q78 0 139.5 73t61.5 237q0 135 -70 219t-170 84q-78 0 -136 -82 t-58 -227z"/>
<glyph unicode="»" horiz-adv-x="1265" d="M666 147l176 320l133 70l-133 69l-176 322l8 80l399 -396v-147l-399 -395zM195 147l176 320l133 70l-133 69l-176 322l8 80l399 -396v-147l-399 -395z"/>
<glyph unicode="¼" horiz-adv-x="2037" d="M47 1364l426 232l51 -27v-815l178 -31l-8 -65h-518l12 65q98 14 143.5 40t45.5 89v582l-285 -154zM456 2l969 1540l113 -72l-969 -1538zM1161 274l467 651h131v-626l154 8v-125h-154v-178h-154v178h-403zM1265 274l5 -4l335 22l7 455l-7 2z"/>
<glyph unicode="½" horiz-adv-x="2037" d="M47 1364l426 232l51 -27v-815l178 -31l-8 -65h-518l12 65q98 14 143.5 40t45.5 89v582l-285 -154zM456 2l969 1540l113 -72l-969 -1538zM1295 763q70 78 150.5 127.5t189.5 49.5q59 0 113.5 -19.5t95.5 -54.5t66.5 -83t25.5 -99t-14.5 -98.5t-47 -100.5t-93 -114.5 t-152.5 -135.5l-162 -135l510 74l-25 -170h-649l8 84l201 186q131 123 192.5 210t61.5 173q0 68 -39 118t-98 72q-49 -16 -107.5 -70t-105.5 -120z"/>
<glyph unicode="¾" horiz-adv-x="2037" d="M456 2l969 1540l113 -72l-969 -1538zM1161 274l467 651h131v-626l154 8v-125h-154v-178h-154v178h-403zM1265 274l5 -4l335 22l7 455l-7 2zM102 723l37 92q55 -31 113.5 -48t134.5 -17q92 0 146.5 41t54.5 114q0 80 -87 132.5t-249 68.5l20 74q133 6 206 49t73 117 q0 63 -40 102t-108 53q-45 -12 -106.5 -53t-102.5 -86l-92 111q76 66 154 93.5t158 27.5q59 0 113 -18.5t94 -49.5t63.5 -74t23.5 -92q0 -74 -60 -133t-200 -82q131 -14 218.5 -71.5t87.5 -174.5q0 -111 -93.5 -183.5t-248.5 -72.5q-90 0 -166 20.5t-144 59.5z"/>
<glyph unicode="¿" horiz-adv-x="1034" d="M84 -178q0 41 7 86t30.5 93t67.5 104.5t120 123.5q68 57 109 99.5t66.5 74t33.5 55t8 50.5q0 39 -15 70.5t-44 64.5l92 29q66 -47 102.5 -100.5t36.5 -108.5q0 -35 -11 -68t-36.5 -71.5t-69.5 -84.5t-108 -108q-115 -109 -158 -178.5t-43 -147.5q0 -47 14.5 -84.5 t32.5 -62.5q23 -16 46.5 -25.5t72.5 -9.5q33 0 71 9.5t82 30t99 59t129 98.5l139 -160q-125 -98 -232.5 -138t-231.5 -40q-90 0 -165 26.5t-129.5 72.5t-85 107.5t-30.5 133.5zM365 965q0 141 139 141q76 0 109.5 -36t33.5 -105q0 -143 -143 -144q-139 1 -139 144z"/>
<glyph unicode="À" horiz-adv-x="1540" d="M14 0l23 84q78 18 132 63.5t93 151.5l418 1163l184 41l498 -1380l180 -39l-20 -84h-531l23 84l110 39l-112 326h-549l-125 -326l129 -39l-16 -84h-437zM498 571h469l-234 672zM457 1882q0 39 30.5 70t69.5 45l416 -326l-43 -61l-233 78q-145 51 -192.5 95t-47.5 99z"/>
<glyph unicode="Á" horiz-adv-x="1540" d="M14 0l23 84q78 18 132 63.5t93 151.5l418 1163l184 41l498 -1380l180 -39l-20 -84h-531l23 84l110 39l-112 326h-549l-125 -326l129 -39l-16 -84h-437zM498 571h469l-234 672zM551 1695l415 326q39 -14 70 -45t31 -70q0 -55 -47 -99t-193 -95l-233 -78z"/>
<glyph unicode="Â" horiz-adv-x="1540" d="M14 0l23 84q78 18 132 63.5t93 151.5l418 1163l184 41l498 -1380l180 -39l-20 -84h-531l23 84l110 39l-112 326h-549l-125 -326l129 -39l-16 -84h-437zM498 571h469l-234 672zM359 1678l366 231h88l365 -231l-55 -70l-279 94l-70 78h-6l-73 -78l-279 -94z"/>
<glyph unicode="Ã" horiz-adv-x="1540" d="M14 0l23 84q78 18 132 63.5t93 151.5l418 1163l184 41l498 -1380l180 -39l-20 -84h-531l23 84l110 39l-112 326h-549l-125 -326l129 -39l-16 -84h-437zM498 571h469l-234 672zM383 1680q78 125 141.5 183t116.5 58q33 0 66 -9t76 -32l200 -100l183 141l53 -57 q-145 -240 -256 -240q-37 0 -76 14.5t-86 34.5l-184 93l-183 -142z"/>
<glyph unicode="Ä" horiz-adv-x="1540" d="M14 0l23 84q78 18 132 63.5t93 151.5l418 1163l184 41l498 -1380l180 -39l-20 -84h-531l23 84l110 39l-112 326h-549l-125 -326l129 -39l-16 -84h-437zM498 571h469l-234 672zM375 1796q0 129 125 129q127 0 127 -129q0 -127 -127 -127q-125 0 -125 127zM926 1796 q0 66 34 97.5t93 31.5q125 0 125 -129q0 -127 -125 -127q-127 0 -127 127z"/>
<glyph unicode="Å" horiz-adv-x="1540" d="M14 0l23 84q78 18 132 63.5t93 151.5l418 1163l184 41l498 -1380l180 -39l-20 -84h-531l23 84l110 39l-112 326h-549l-125 -326l129 -39l-16 -84h-437zM498 571h469l-234 672zM508 1833q0 49 19.5 94.5t54.5 79t83 54t107 20.5q57 0 106.5 -20.5t84.5 -54t53 -79 t18 -94.5q0 -98 -71.5 -172t-190.5 -74q-59 0 -107 19.5t-83 53.5t-54.5 78t-19.5 95zM639 1833q0 -61 37 -99t96 -38q61 0 96 38t35 99q0 57 -34.5 98.5t-96.5 41.5q-59 0 -96 -41.5t-37 -98.5z"/>
<glyph unicode="Æ" horiz-adv-x="1978" d="M6 0l23 84q41 10 72.5 24.5t59 37t53.5 57.5t56 84l602 1075l-153 24l14 82h1127l-78 -307h-86l-25 156l-459 29v-512h474l-31 -123h-443v-588l492 37l90 168h88l-51 -328h-995l22 84q80 16 105.5 51t25.5 111v203h-469l-174 -326l131 -39l-18 -84h-453zM586 571h403v535 q0 63 1 121.5t5 103.5h-4q-16 -39 -38.5 -81t-47.5 -89z"/>
<glyph unicode="Ç" horiz-adv-x="1427" d="M131 698q0 160 57.5 303.5t157.5 252t237.5 173t299.5 64.5q147 0 264 -25.5t207 -64.5l-70 -271h-92l-33 146q-53 31 -129 53.5t-172 22.5q-100 0 -186 -39t-151.5 -116t-102.5 -194.5t-37 -275.5q0 -150 37 -264.5t102.5 -194.5t155.5 -119.5t198 -39.5h33l6 6l7 -6 q70 6 131 23.5t110 55.5l78 183h98l-28 -277q-88 -53 -183.5 -83.5t-218.5 -39.5l-57 -80q96 -39 148.5 -79.5t52.5 -87.5q0 -55 -85 -118t-300 -132l-37 71q66 35 104.5 59.5t59 43t27.5 32t7 25.5q0 23 -30.5 49.5t-108.5 67.5l115 147q-152 2 -273.5 58.5t-211 152.5 t-138.5 228t-49 290z"/>
<glyph unicode="È" d="M92 1386l17 82h1052l-78 -307h-86l-24 156l-461 29v-512h473l-31 -123h-442v-588l494 37l88 168h90l-54 -328h-997l23 84q82 16 107.5 51t25.5 111v1100zM381 1882q0 39 30.5 70t69.5 45l416 -326l-43 -61l-233 78q-145 51 -192.5 95t-47.5 99z"/>
<glyph unicode="É" d="M92 1386l17 82h1052l-78 -307h-86l-24 156l-461 29v-512h473l-31 -123h-442v-588l494 37l88 168h90l-54 -328h-997l23 84q82 16 107.5 51t25.5 111v1100zM512 1695l415 326q39 -14 70 -45t31 -70q0 -55 -47 -99t-193 -95l-233 -78z"/>
<glyph unicode="Ê" d="M92 1386l17 82h1052l-78 -307h-86l-24 156l-461 29v-512h473l-31 -123h-442v-588l494 37l88 168h90l-54 -328h-997l23 84q82 16 107.5 51t25.5 111v1100zM283 1678l366 231h88l365 -231l-55 -70l-279 94l-70 78h-6l-73 -78l-279 -94z"/>
<glyph unicode="Ë" d="M92 1386l17 82h1052l-78 -307h-86l-24 156l-461 29v-512h473l-31 -123h-442v-588l494 37l88 168h90l-54 -328h-997l23 84q82 16 107.5 51t25.5 111v1100zM293 1796q0 129 125 129q127 0 127 -129q0 -127 -127 -127q-125 0 -125 127zM844 1796q0 66 34 97.5t93 31.5 q125 0 125 -129q0 -127 -125 -127q-127 0 -127 127z"/>
<glyph unicode="Ì" horiz-adv-x="798" d="M92 1386l17 82h550l-16 -82q-78 -18 -104.5 -53t-26.5 -108v-1102l195 -39l-19 -84h-555l23 84q82 16 107.5 51t25.5 107v1104zM102 1882q0 39 30.5 70t69.5 45l416 -326l-43 -61l-233 78q-145 51 -192.5 95t-47.5 99z"/>
<glyph unicode="Í" horiz-adv-x="798" d="M92 1386l17 82h550l-16 -82q-78 -18 -104.5 -53t-26.5 -108v-1102l195 -39l-19 -84h-555l23 84q82 16 107.5 51t25.5 107v1104zM238 1695l415 326q39 -14 70 -45t31 -70q0 -55 -47 -99t-193 -95l-233 -78z"/>
<glyph unicode="Î" horiz-adv-x="798" d="M92 1386l17 82h550l-16 -82q-78 -18 -104.5 -53t-26.5 -108v-1102l195 -39l-19 -84h-555l23 84q82 16 107.5 51t25.5 107v1104zM11 1678l366 231h88l365 -231l-55 -70l-279 94l-70 78h-6l-73 -78l-279 -94z"/>
<glyph unicode="Ï" horiz-adv-x="798" d="M92 1386l17 82h550l-16 -82q-78 -18 -104.5 -53t-26.5 -108v-1102l195 -39l-19 -84h-555l23 84q82 16 107.5 51t25.5 107v1104zM10 1796q0 129 125 129q127 0 127 -129q0 -127 -127 -127q-125 0 -125 127zM561 1796q0 66 34 97.5t93 31.5q125 0 125 -129 q0 -127 -125 -127q-127 0 -127 127z"/>
<glyph unicode="Ð" horiz-adv-x="1587" d="M90 688v123h199v535l-197 40l17 82h557q389 0 589.5 -181t200.5 -515q0 -182 -54 -323.5t-154.5 -242t-242 -153.5t-317.5 -53h-555l23 84q82 16 107.5 50t25.5 106v448h-199zM512 123h92q299 0 450.5 131t151.5 448q0 334 -151.5 489t-464.5 155h-78v-535h340v-123h-340 v-565z"/>
<glyph unicode="Ñ" horiz-adv-x="1683" d="M92 1386l17 82h311l778 -931q47 -55 69.5 -83t39.5 -51l2 5q-2 47 -2 87v121v730l-144 40l15 82h430l-23 -82q-82 -18 -107.5 -52t-25.5 -105v-1229h-113l-811 981q-66 78 -96 123l-4 -4q4 -35 5 -73t1 -101v-803l182 -39l-14 -84h-469l23 84q82 16 107.5 51t25.5 107 v1104zM495 1680q78 125 141.5 183t116.5 58q33 0 66 -9t76 -32l200 -100l183 141l53 -57q-145 -240 -256 -240q-37 0 -76 14.5t-86 34.5l-184 93l-183 -142z"/>
<glyph unicode="Ò" horiz-adv-x="1667" d="M131 676q0 170 57.5 319.5t157.5 259t235.5 173t290.5 63.5q156 0 280 -50t209 -145.5t131 -227.5t46 -296q0 -166 -53 -311.5t-146.5 -254t-224.5 -173t-285 -64.5q-156 0 -283.5 49.5t-220 140.5t-143.5 222t-51 295zM381 727q0 -287 122 -452.5t355 -165.5 q92 0 170 31.5t135.5 104t90 189.5t32.5 287q0 287 -119.5 459t-353.5 172q-92 0 -170 -35t-136 -111t-92 -193.5t-34 -285.5zM543 1882q0 39 30.5 70t69.5 45l416 -326l-43 -61l-233 78q-145 51 -192.5 95t-47.5 99z"/>
<glyph unicode="Ó" horiz-adv-x="1667" d="M131 676q0 170 57.5 319.5t157.5 259t235.5 173t290.5 63.5q156 0 280 -50t209 -145.5t131 -227.5t46 -296q0 -166 -53 -311.5t-146.5 -254t-224.5 -173t-285 -64.5q-156 0 -283.5 49.5t-220 140.5t-143.5 222t-51 295zM381 727q0 -287 122 -452.5t355 -165.5 q92 0 170 31.5t135.5 104t90 189.5t32.5 287q0 287 -119.5 459t-353.5 172q-92 0 -170 -35t-136 -111t-92 -193.5t-34 -285.5zM674 1695l415 326q39 -14 70 -45t31 -70q0 -55 -47 -99t-193 -95l-233 -78z"/>
<glyph unicode="Ô" horiz-adv-x="1667" d="M131 676q0 170 57.5 319.5t157.5 259t235.5 173t290.5 63.5q156 0 280 -50t209 -145.5t131 -227.5t46 -296q0 -166 -53 -311.5t-146.5 -254t-224.5 -173t-285 -64.5q-156 0 -283.5 49.5t-220 140.5t-143.5 222t-51 295zM381 727q0 -287 122 -452.5t355 -165.5 q92 0 170 31.5t135.5 104t90 189.5t32.5 287q0 287 -119.5 459t-353.5 172q-92 0 -170 -35t-136 -111t-92 -193.5t-34 -285.5zM445 1678l366 231h88l365 -231l-55 -70l-279 94l-70 78h-6l-73 -78l-279 -94z"/>
<glyph unicode="Õ" horiz-adv-x="1667" d="M131 676q0 170 57.5 319.5t157.5 259t235.5 173t290.5 63.5q156 0 280 -50t209 -145.5t131 -227.5t46 -296q0 -166 -53 -311.5t-146.5 -254t-224.5 -173t-285 -64.5q-156 0 -283.5 49.5t-220 140.5t-143.5 222t-51 295zM381 727q0 -287 122 -452.5t355 -165.5 q92 0 170 31.5t135.5 104t90 189.5t32.5 287q0 287 -119.5 459t-353.5 172q-92 0 -170 -35t-136 -111t-92 -193.5t-34 -285.5zM461 1680q78 125 141.5 183t116.5 58q33 0 66 -9t76 -32l200 -100l183 141l53 -57q-145 -240 -256 -240q-37 0 -76 14.5t-86 34.5l-184 93 l-183 -142z"/>
<glyph unicode="Ö" horiz-adv-x="1667" d="M131 676q0 170 57.5 319.5t157.5 259t235.5 173t290.5 63.5q156 0 280 -50t209 -145.5t131 -227.5t46 -296q0 -166 -53 -311.5t-146.5 -254t-224.5 -173t-285 -64.5q-156 0 -283.5 49.5t-220 140.5t-143.5 222t-51 295zM381 727q0 -287 122 -452.5t355 -165.5 q92 0 170 31.5t135.5 104t90 189.5t32.5 287q0 287 -119.5 459t-353.5 172q-92 0 -170 -35t-136 -111t-92 -193.5t-34 -285.5zM455 1796q0 129 125 129q127 0 127 -129q0 -127 -127 -127q-125 0 -125 127zM1006 1796q0 66 34 97.5t93 31.5q125 0 125 -129q0 -127 -125 -127 q-127 0 -127 127z"/>
<glyph unicode="×" d="M106 1059l101 100l436 -438l438 438l97 -100l-435 -438l435 -435l-97 -100l-438 434l-434 -434l-100 100l434 435z"/>
<glyph unicode="Ø" horiz-adv-x="1667" d="M86 29l184 194q-61 80 -100 191.5t-39 261.5q0 170 57.5 319.5t157.5 259t235.5 173t290.5 63.5q131 0 242 -38t184 -101l150 164l86 -82l-150 -166q72 -94 113 -218t41 -278q0 -166 -53 -311.5t-146.5 -254t-224.5 -173t-285 -64.5q-289 0 -475 162l-174 -184zM381 727 q0 -100 15.5 -190.5t45.5 -147.5l709 805q-113 158 -338 158q-92 0 -170 -35t-136 -111t-92 -193.5t-34 -285.5zM504 276q55 -78 143 -122.5t211 -44.5q92 0 170 31.5t135.5 104t90 189.5t32.5 287q0 104 -20.5 203.5t-51.5 158.5z"/>
<glyph unicode="Ù" horiz-adv-x="1636" d="M70 1386l14 82h559l-22 -82q-78 -18 -105 -52t-27 -105v-662q0 -229 100.5 -333.5t299.5 -104.5q86 0 158.5 24.5t124 80t79 144.5t27.5 216v752l-178 40l14 82h465l-18 -82q-82 -18 -109 -53t-27 -108v-619q0 -328 -148.5 -482.5t-426.5 -154.5q-317 0 -449.5 146.5 t-132.5 472.5v758zM574 1882q0 39 30.5 70t69.5 45l416 -326l-43 -61l-233 78q-145 51 -192.5 95t-47.5 99z"/>
<glyph unicode="Ú" horiz-adv-x="1636" d="M70 1386l14 82h559l-22 -82q-78 -18 -105 -52t-27 -105v-662q0 -229 100.5 -333.5t299.5 -104.5q86 0 158.5 24.5t124 80t79 144.5t27.5 216v752l-178 40l14 82h465l-18 -82q-82 -18 -109 -53t-27 -108v-619q0 -328 -148.5 -482.5t-426.5 -154.5q-317 0 -449.5 146.5 t-132.5 472.5v758zM705 1695l415 326q39 -14 70 -45t31 -70q0 -55 -47 -99t-193 -95l-233 -78z"/>
<glyph unicode="Û" horiz-adv-x="1636" d="M70 1386l14 82h559l-22 -82q-78 -18 -105 -52t-27 -105v-662q0 -229 100.5 -333.5t299.5 -104.5q86 0 158.5 24.5t124 80t79 144.5t27.5 216v752l-178 40l14 82h465l-18 -82q-82 -18 -109 -53t-27 -108v-619q0 -328 -148.5 -482.5t-426.5 -154.5q-317 0 -449.5 146.5 t-132.5 472.5v758zM475 1678l366 231h88l365 -231l-55 -70l-279 94l-70 78h-6l-73 -78l-279 -94z"/>
<glyph unicode="Ü" horiz-adv-x="1636" d="M70 1386l14 82h559l-22 -82q-78 -18 -105 -52t-27 -105v-662q0 -229 100.5 -333.5t299.5 -104.5q86 0 158.5 24.5t124 80t79 144.5t27.5 216v752l-178 40l14 82h465l-18 -82q-82 -18 -109 -53t-27 -108v-619q0 -328 -148.5 -482.5t-426.5 -154.5q-317 0 -449.5 146.5 t-132.5 472.5v758zM483 1796q0 129 125 129q127 0 127 -129q0 -127 -127 -127q-125 0 -125 127zM1034 1796q0 66 34 97.5t93 31.5q125 0 125 -129q0 -127 -125 -127q-127 0 -127 127z"/>
<glyph unicode="Ý" horiz-adv-x="1464" d="M14 1386l17 82h489l-16 -82l-96 -40l342 -601l327 601l-162 40l19 82h422l-19 -82q-35 -8 -59.5 -19t-47 -31.5t-46 -55.5t-54.5 -88l-317 -582v-487l195 -39l-13 -84h-557l21 84q82 16 106.5 51t24.5 107v356l-430 748zM586 1695l415 326q39 -14 70 -45t31 -70 q0 -55 -47 -99t-193 -95l-233 -78z"/>
<glyph unicode="Þ" horiz-adv-x="1312" d="M92 1386l17 82h550l-16 -82q-78 -18 -104.5 -53t-26.5 -108v-66h174q279 0 419 -108.5t140 -286.5q0 -115 -47 -199t-131 -138t-195.5 -81t-238.5 -27h-121v-196l195 -39l-19 -84h-555l23 84q82 16 107.5 50t25.5 106v1106zM512 416h59q223 0 323.5 75.5t100.5 243.5 q0 311 -401 312h-82v-631z"/>
<glyph unicode="ß" horiz-adv-x="1470" d="M33 989l22 78h209q4 231 129 371.5t359 140.5q190 0 299.5 -94t109.5 -246q0 -45 -16.5 -115.5t-54.5 -126.5q-90 -16 -140.5 -53t-50.5 -92q0 -23 10.5 -44.5t37 -47t72.5 -56t118 -75.5q84 -49 138 -91t85 -82t43 -81t12 -86q0 -78 -30.5 -137.5t-82 -100.5t-119 -61.5 t-139.5 -20.5q-111 0 -209 28t-188 83l60 252h104l14 -156q39 -37 99.5 -60.5t130.5 -23.5q92 0 138 36t46 91q0 31 -11 59.5t-42 59.5t-82 65.5t-131 77.5q-139 78 -195.5 149.5t-56.5 157.5q0 170 192 265q23 51 31 91t8 87q0 100 -69.5 162.5t-175.5 62.5 q-63 0 -111.5 -17.5t-87.5 -43.5q-10 -23 -16.5 -48.5t-10.5 -66.5t-6 -95.5t-2 -131.5v-1053h-350l22 84q63 14 91 38.5t28 80.5v731z"/>
<glyph unicode="à" horiz-adv-x="1093" d="M84 285q0 55 23.5 110.5t62.5 85.5q63 51 189 93t331 69v43q0 133 -40 206t-113 103q-127 -41 -304 -196l-114 159q106 72 210.5 104t225.5 32q143 0 243.5 -98.5t100.5 -274.5v-576l154 -43v-34q-29 -37 -77 -64t-91 -27q-66 0 -112 36t-68 118q-63 -72 -145.5 -113 t-172.5 -41q-61 0 -115.5 19.5t-96.5 58.5t-66.5 96.5t-24.5 133.5zM293 311q0 -88 42 -138t130 -50q72 0 131 27.5t98 74.5q0 31 -2 78t-2 105v112q-55 0 -109.5 -4t-104.5 -12t-89 -17.5t-63 -21.5q-31 -62 -31 -154zM237 1599q0 43 32 78t81 49l299 -434l-55 -53 l-185 139q-102 78 -137 128t-35 93z"/>
<glyph unicode="á" horiz-adv-x="1093" d="M84 285q0 55 23.5 110.5t62.5 85.5q63 51 189 93t331 69v43q0 133 -40 206t-113 103q-127 -41 -304 -196l-114 159q106 72 210.5 104t225.5 32q143 0 243.5 -98.5t100.5 -274.5v-576l154 -43v-34q-29 -37 -77 -64t-91 -27q-66 0 -112 36t-68 118q-63 -72 -145.5 -113 t-172.5 -41q-61 0 -115.5 19.5t-96.5 58.5t-66.5 96.5t-24.5 133.5zM293 311q0 -88 42 -138t130 -50q72 0 131 27.5t98 74.5q0 31 -2 78t-2 105v112q-55 0 -109.5 -4t-104.5 -12t-89 -17.5t-63 -21.5q-31 -62 -31 -154zM432 1292l297 434q51 -14 83 -49t32 -78t-35 -93 t-137 -128l-184 -139z"/>
<glyph unicode="â" horiz-adv-x="1093" d="M84 285q0 55 23.5 110.5t62.5 85.5q63 51 189 93t331 69v43q0 133 -40 206t-113 103q-127 -41 -304 -196l-114 159q106 72 210.5 104t225.5 32q143 0 243.5 -98.5t100.5 -274.5v-576l154 -43v-34q-29 -37 -77 -64t-91 -27q-66 0 -112 36t-68 118q-63 -72 -145.5 -113 t-172.5 -41q-61 0 -115.5 19.5t-96.5 58.5t-66.5 96.5t-24.5 133.5zM293 311q0 -88 42 -138t130 -50q72 0 131 27.5t98 74.5q0 31 -2 78t-2 105v112q-55 0 -109.5 -4t-104.5 -12t-89 -17.5t-63 -21.5q-31 -62 -31 -154zM196 1302l318 334h65l318 -334l-56 -63l-245 155 l-50 84l-49 -84l-245 -155z"/>
<glyph unicode="ã" horiz-adv-x="1093" d="M84 285q0 55 23.5 110.5t62.5 85.5q63 51 189 93t331 69v43q0 133 -40 206t-113 103q-127 -41 -304 -196l-114 159q106 72 210.5 104t225.5 32q143 0 243.5 -98.5t100.5 -274.5v-576l154 -43v-34q-29 -37 -77 -64t-91 -27q-66 0 -112 36t-68 118q-63 -72 -145.5 -113 t-172.5 -41q-61 0 -115.5 19.5t-96.5 58.5t-66.5 96.5t-24.5 133.5zM293 311q0 -88 42 -138t130 -50q72 0 131 27.5t98 74.5q0 31 -2 78t-2 105v112q-55 0 -109.5 -4t-104.5 -12t-89 -17.5t-63 -21.5q-31 -62 -31 -154zM174 1292q84 133 138 182.5t89 49.5q31 0 63.5 -11.5 t88.5 -42.5l153 -79l180 131l41 -54q-147 -229 -221 -229q-23 0 -63.5 14.5t-104.5 46.5l-139 78l-184 -135z"/>
<glyph unicode="ä" horiz-adv-x="1093" d="M84 285q0 55 23.5 110.5t62.5 85.5q63 51 189 93t331 69v43q0 133 -40 206t-113 103q-127 -41 -304 -196l-114 159q106 72 210.5 104t225.5 32q143 0 243.5 -98.5t100.5 -274.5v-576l154 -43v-34q-29 -37 -77 -64t-91 -27q-66 0 -112 36t-68 118q-63 -72 -145.5 -113 t-172.5 -41q-61 0 -115.5 19.5t-96.5 58.5t-66.5 96.5t-24.5 133.5zM293 311q0 -88 42 -138t130 -50q72 0 131 27.5t98 74.5q0 31 -2 78t-2 105v112q-55 0 -109.5 -4t-104.5 -12t-89 -17.5t-63 -21.5q-31 -62 -31 -154zM198 1391q0 123 119 123q121 0 121 -123 q0 -55 -30 -89t-91 -34q-119 0 -119 123zM655 1391q0 123 123 123q117 0 117 -123q0 -55 -28 -89t-89 -34q-123 0 -123 123z"/>
<glyph unicode="å" horiz-adv-x="1093" d="M84 285q0 55 23.5 110.5t62.5 85.5q63 51 189 93t331 69v43q0 133 -40 206t-113 103q-127 -41 -304 -196l-114 159q106 72 210.5 104t225.5 32q143 0 243.5 -98.5t100.5 -274.5v-576l154 -43v-34q-29 -37 -77 -64t-91 -27q-66 0 -112 36t-68 118q-63 -72 -145.5 -113 t-172.5 -41q-61 0 -115.5 19.5t-96.5 58.5t-66.5 96.5t-24.5 133.5zM293 311q0 -88 42 -138t130 -50q72 0 131 27.5t98 74.5q0 31 -2 78t-2 105v112q-55 0 -109.5 -4t-104.5 -12t-89 -17.5t-63 -21.5q-31 -62 -31 -154zM269 1454q0 53 21.5 100.5t59 83t89 57t110.5 21.5 q57 0 107.5 -21.5t88.5 -57t60.5 -83t22.5 -100.5t-22.5 -100t-60.5 -82t-88 -56.5t-108 -21.5q-59 0 -110.5 21.5t-89 56.5t-59 82t-21.5 100zM404 1454q0 -68 41 -109.5t104 -41.5q68 0 105 41.5t37 109.5q0 63 -37 108.5t-105 45.5q-63 0 -104 -45.5t-41 -108.5z"/>
<glyph unicode="æ" horiz-adv-x="1634" d="M86 285q0 55 23.5 110.5t62.5 85.5q66 51 190.5 93t331.5 69v43q0 74 -10 126t-29.5 88t-48 58.5t-65.5 36.5q-129 -41 -303 -196l-119 159q111 72 215 104t223 32q92 0 165 -41t112 -133q49 88 145 136t213 48q168 0 265 -87t97 -261q0 -57 -15 -123t-32 -105h-612 q4 -219 99.5 -319t287.5 -100q51 0 96 7t86 21l27 -88q-66 -35 -152 -56.5t-184 -21.5q-139 0 -232.5 53.5t-156.5 151.5q-90 -106 -174 -152.5t-203 -46.5q-61 0 -115.5 19.5t-95.5 58.5t-66.5 96.5t-25.5 133.5zM295 311q0 -88 41 -138t119 -50q74 0 147.5 40t122.5 95 q-14 41 -22.5 100.5t-8.5 114.5v47q-57 0 -111.5 -4t-104.5 -12t-89 -17.5t-63 -21.5q-31 -62 -31 -154zM895 618l436 33q14 43 15 113q0 117 -54.5 171t-136.5 54q-39 0 -83 -14t-83 -31q-39 -49 -66.5 -141.5t-27.5 -184.5z"/>
<glyph unicode="ç" horiz-adv-x="933" d="M90 473q0 133 39 248t108.5 199t165 129t207.5 45q172 0 289 -66l-53 -240h-94l-31 123q-57 43 -164 43q-45 0 -93 -9t-79 -23q-31 -55 -52.5 -160t-21.5 -234q0 -219 96.5 -318t272.5 -99q47 0 90 7t76 15l26 -92q-53 -27 -121.5 -44t-138.5 -22l-71 -100 q96 -43 138 -79t42 -75q0 -25 -15.5 -50t-57.5 -54t-113.5 -65.5t-184.5 -83.5l-35 61q127 70 168 107.5t41 60.5t-28.5 44t-106.5 64l129 170q-203 14 -315.5 138t-112.5 360z"/>
<glyph unicode="è" horiz-adv-x="1060" d="M90 473q0 133 37 249t105.5 200t165 131t212.5 47q170 0 266.5 -89t96.5 -255q0 -49 -14.5 -116t-32.5 -112h-615q6 -219 101.5 -319t285.5 -100q53 0 98.5 7t86.5 21l24 -88q-63 -35 -149 -56.5t-185 -21.5q-217 0 -350 130t-133 372zM311 618l441 31q6 25 9 51.5 t3 57.5q0 106 -52.5 166.5t-133.5 60.5q-88 0 -170 -41q-31 -49 -61 -136.5t-36 -189.5zM293 1599q0 43 32 78t81 49l299 -434l-55 -53l-185 139q-102 78 -137 128t-35 93z"/>
<glyph unicode="é" horiz-adv-x="1060" d="M90 473q0 133 37 249t105.5 200t165 131t212.5 47q170 0 266.5 -89t96.5 -255q0 -49 -14.5 -116t-32.5 -112h-615q6 -219 101.5 -319t285.5 -100q53 0 98.5 7t86.5 21l24 -88q-63 -35 -149 -56.5t-185 -21.5q-217 0 -350 130t-133 372zM311 618l441 31q6 25 9 51.5 t3 57.5q0 106 -52.5 166.5t-133.5 60.5q-88 0 -170 -41q-31 -49 -61 -136.5t-36 -189.5zM493 1292l297 434q51 -14 83 -49t32 -78t-35 -93t-137 -128l-184 -139z"/>
<glyph unicode="ê" horiz-adv-x="1060" d="M90 473q0 133 37 249t105.5 200t165 131t212.5 47q170 0 266.5 -89t96.5 -255q0 -49 -14.5 -116t-32.5 -112h-615q6 -219 101.5 -319t285.5 -100q53 0 98.5 7t86.5 21l24 -88q-63 -35 -149 -56.5t-185 -21.5q-217 0 -350 130t-133 372zM311 618l441 31q6 25 9 51.5 t3 57.5q0 106 -52.5 166.5t-133.5 60.5q-88 0 -170 -41q-31 -49 -61 -136.5t-36 -189.5zM229 1302l318 334h65l318 -334l-56 -63l-245 155l-50 84l-49 -84l-245 -155z"/>
<glyph unicode="ë" horiz-adv-x="1060" d="M90 473q0 133 37 249t105.5 200t165 131t212.5 47q170 0 266.5 -89t96.5 -255q0 -49 -14.5 -116t-32.5 -112h-615q6 -219 101.5 -319t285.5 -100q53 0 98.5 7t86.5 21l24 -88q-63 -35 -149 -56.5t-185 -21.5q-217 0 -350 130t-133 372zM311 618l441 31q6 25 9 51.5 t3 57.5q0 106 -52.5 166.5t-133.5 60.5q-88 0 -170 -41q-31 -49 -61 -136.5t-36 -189.5zM258 1391q0 123 119 123q121 0 121 -123q0 -55 -30 -89t-91 -34q-119 0 -119 123zM715 1391q0 123 123 123q117 0 117 -123q0 -55 -28 -89t-89 -34q-123 0 -123 123z"/>
<glyph unicode="ì" horiz-adv-x="698" d="M70 965l20 79l375 48v-969l178 -39l-16 -84h-510l20 84q63 14 91 38.5t28 80.5v719zM49 1599q0 43 32 78t81 49l299 -434l-55 -53l-185 139q-102 78 -137 128t-35 93z"/>
<glyph unicode="í" horiz-adv-x="698" d="M70 965l20 79l375 48v-969l178 -39l-16 -84h-510l20 84q63 14 91 38.5t28 80.5v719zM248 1292l297 434q51 -14 83 -49t32 -78t-35 -93t-137 -128l-184 -139z"/>
<glyph unicode="î" horiz-adv-x="698" d="M70 965l20 79l375 48v-969l178 -39l-16 -84h-510l20 84q63 14 91 38.5t28 80.5v719zM12 1302l318 334h65l318 -334l-56 -63l-245 155l-50 84l-49 -84l-245 -155z"/>
<glyph unicode="ï" horiz-adv-x="698" d="M23 1391q0 121 118 120q121 0 121 -120q0 -57 -29.5 -90t-91.5 -33q-118 0 -118 123zM70 965l20 79l375 48v-969l178 -39l-16 -84h-510l20 84q63 14 91 38.5t28 80.5v719zM438 1391q0 121 121 120q117 0 117 -120q0 -57 -27.5 -90t-89.5 -33q-121 0 -121 123z"/>
<glyph unicode="ð" horiz-adv-x="1226" d="M98 473q0 123 37 230.5t102.5 185.5t156.5 122t200 44q88 0 153.5 -30t96.5 -60l2 2q-57 176 -178 303l-260 -133l-50 92l228 117q-121 94 -275 147l27 88q111 -20 210 -62t181 -102l277 144l45 -97l-232 -118q147 -133 229 -320.5t82 -409.5q0 -160 -38.5 -279.5 t-109.5 -201.5t-168 -123t-218 -41q-227 0 -362.5 137.5t-135.5 364.5zM319 535q0 -217 80 -329t205 -112q59 0 114.5 28t97.5 85t66.5 144t24.5 204t-8 175t-25 106q-37 41 -103 69.5t-142 28.5q-139 0 -224.5 -96t-85.5 -303z"/>
<glyph unicode="ñ" horiz-adv-x="1370" d="M70 965l20 79l311 48l50 -189q143 109 229 149t164 40q137 0 218 -85t81 -251v-633l178 -39l-18 -84h-508l20 84q66 14 92.5 38.5t26.5 80.5v469q0 104 -37 167.5t-102 94.5q-82 -8 -157 -37t-173 -84v-690l178 -39l-16 -84h-510l20 84q63 14 91 38.5t28 80.5v719z M322 1292q84 133 138 182.5t89 49.5q31 0 63.5 -11.5t88.5 -42.5l153 -79l180 131l41 -54q-147 -229 -221 -229q-23 0 -63.5 14.5t-104.5 46.5l-139 78l-184 -135z"/>
<glyph unicode="ò" horiz-adv-x="1218" d="M98 473q0 123 33 235.5t98.5 200.5t165 139.5t230.5 51.5q119 0 212 -38t155.5 -104.5t96 -159.5t33.5 -204q0 -131 -39 -243.5t-109.5 -196.5t-168.5 -133.5t-215 -49.5q-242 0 -367 137.5t-125 364.5zM319 535q0 -217 92.5 -329t221.5 -112q61 0 111.5 21.5t85 73 t52 136.5t17.5 210q0 106 -24.5 188t-69.5 139.5t-101.5 86t-117.5 28.5q-135 0 -201 -105.5t-66 -336.5zM293 1599q0 43 32 78t81 49l299 -434l-55 -53l-185 139q-102 78 -137 128t-35 93z"/>
<glyph unicode="ó" horiz-adv-x="1218" d="M98 473q0 123 33 235.5t98.5 200.5t165 139.5t230.5 51.5q119 0 212 -38t155.5 -104.5t96 -159.5t33.5 -204q0 -131 -39 -243.5t-109.5 -196.5t-168.5 -133.5t-215 -49.5q-242 0 -367 137.5t-125 364.5zM319 535q0 -217 92.5 -329t221.5 -112q61 0 111.5 21.5t85 73 t52 136.5t17.5 210q0 106 -24.5 188t-69.5 139.5t-101.5 86t-117.5 28.5q-135 0 -201 -105.5t-66 -336.5zM493 1292l297 434q51 -14 83 -49t32 -78t-35 -93t-137 -128l-184 -139z"/>
<glyph unicode="ô" horiz-adv-x="1218" d="M98 473q0 123 33 235.5t98.5 200.5t165 139.5t230.5 51.5q119 0 212 -38t155.5 -104.5t96 -159.5t33.5 -204q0 -131 -39 -243.5t-109.5 -196.5t-168.5 -133.5t-215 -49.5q-242 0 -367 137.5t-125 364.5zM319 535q0 -217 92.5 -329t221.5 -112q61 0 111.5 21.5t85 73 t52 136.5t17.5 210q0 106 -24.5 188t-69.5 139.5t-101.5 86t-117.5 28.5q-135 0 -201 -105.5t-66 -336.5zM256 1302l318 334h65l318 -334l-56 -63l-245 155l-50 84l-49 -84l-245 -155z"/>
<glyph unicode="õ" horiz-adv-x="1218" d="M98 473q0 123 33 235.5t98.5 200.5t165 139.5t230.5 51.5q119 0 212 -38t155.5 -104.5t96 -159.5t33.5 -204q0 -131 -39 -243.5t-109.5 -196.5t-168.5 -133.5t-215 -49.5q-242 0 -367 137.5t-125 364.5zM319 535q0 -217 92.5 -329t221.5 -112q61 0 111.5 21.5t85 73 t52 136.5t17.5 210q0 106 -24.5 188t-69.5 139.5t-101.5 86t-117.5 28.5q-135 0 -201 -105.5t-66 -336.5zM265 1292q84 133 138 182.5t89 49.5q31 0 63.5 -11.5t88.5 -42.5l153 -79l180 131l41 -54q-147 -229 -221 -229q-23 0 -63.5 14.5t-104.5 46.5l-139 78l-184 -135z "/>
<glyph unicode="ö" horiz-adv-x="1218" d="M98 473q0 123 33 235.5t98.5 200.5t165 139.5t230.5 51.5q119 0 212 -38t155.5 -104.5t96 -159.5t33.5 -204q0 -131 -39 -243.5t-109.5 -196.5t-168.5 -133.5t-215 -49.5q-242 0 -367 137.5t-125 364.5zM319 535q0 -217 92.5 -329t221.5 -112q61 0 111.5 21.5t85 73 t52 136.5t17.5 210q0 106 -24.5 188t-69.5 139.5t-101.5 86t-117.5 28.5q-135 0 -201 -105.5t-66 -336.5zM258 1391q0 123 119 123q121 0 121 -123q0 -55 -30 -89t-91 -34q-119 0 -119 123zM715 1391q0 123 123 123q117 0 117 -123q0 -55 -28 -89t-89 -34q-123 0 -123 123z "/>
<glyph unicode="÷" d="M172 563v150h940v-150h-940zM512 223q0 125 121 125q119 0 119 -125q0 -121 -119 -121q-121 0 -121 121zM512 1047q0 123 121 122q119 0 119 -122q0 -119 -119 -119q-121 0 -121 119z"/>
<glyph unicode="ø" horiz-adv-x="1218" d="M90 45l96 105q-41 59 -64.5 143t-23.5 178q0 123 33 235.5t100.5 200.5t166 140.5t229.5 52.5q106 0 188 -29t137 -76l82 90l80 -71l-86 -101q94 -127 94 -323q0 -131 -39 -244t-109.5 -198t-168.5 -133t-215 -48q-104 0 -185 28t-143 77l-90 -97zM319 532 q0 -55 9.5 -114.5t25.5 -102.5l457 541q-45 57 -103.5 89t-121.5 32q-131 0 -199 -107t-68 -338zM408 211q39 -55 97 -88t128 -33q61 0 111.5 21.5t85 74t52 138.5t17.5 213q0 57 -9 116.5t-24 96.5z"/>
<glyph unicode="ù" horiz-adv-x="1304" d="M41 985l14 82h353v-633q0 -180 45 -248.5t143 -68.5q80 0 145.5 35.5t122.5 117.5v674l-178 41l16 82h371v-950l178 -33l-14 -84l-317 -23l-52 185q-74 -98 -160.5 -141.5t-203.5 -43.5q-158 0 -231.5 89.5t-73.5 289.5v588zM293 1599q0 43 32 78t81 49l299 -434l-55 -53 l-185 139q-102 78 -137 128t-35 93z"/>
<glyph unicode="ú" horiz-adv-x="1304" d="M41 985l14 82h353v-633q0 -180 45 -248.5t143 -68.5q80 0 145.5 35.5t122.5 117.5v674l-178 41l16 82h371v-950l178 -33l-14 -84l-317 -23l-52 185q-74 -98 -160.5 -141.5t-203.5 -43.5q-158 0 -231.5 89.5t-73.5 289.5v588zM493 1292l297 434q51 -14 83 -49t32 -78 t-35 -93t-137 -128l-184 -139z"/>
<glyph unicode="û" horiz-adv-x="1304" d="M41 985l14 82h353v-633q0 -180 45 -248.5t143 -68.5q80 0 145.5 35.5t122.5 117.5v674l-178 41l16 82h371v-950l178 -33l-14 -84l-317 -23l-52 185q-74 -98 -160.5 -141.5t-203.5 -43.5q-158 0 -231.5 89.5t-73.5 289.5v588zM256 1302l318 334h65l318 -334l-56 -63 l-245 155l-50 84l-49 -84l-245 -155z"/>
<glyph unicode="ü" horiz-adv-x="1304" d="M41 985l14 82h353v-633q0 -180 45 -248.5t143 -68.5q80 0 145.5 35.5t122.5 117.5v674l-178 41l16 82h371v-950l178 -33l-14 -84l-317 -23l-52 185q-74 -98 -160.5 -141.5t-203.5 -43.5q-158 0 -231.5 89.5t-73.5 289.5v588zM258 1391q0 123 119 123q121 0 121 -123 q0 -55 -30 -89t-91 -34q-119 0 -119 123zM715 1391q0 123 123 123q117 0 117 -123q0 -55 -28 -89t-89 -34q-123 0 -123 123z"/>
<glyph unicode="ý" horiz-adv-x="1169" d="M14 985l17 82h487l-16 -82l-140 -18l279 -721l262 721l-147 18l12 82h387l-12 -82q-59 -8 -90 -39t-62 -110l-280 -730q-51 -129 -105.5 -225t-114 -166.5t-126 -118t-142.5 -77.5l-160 157q154 45 275 135.5t178 208.5l-391 947zM524 1292l297 434q51 -14 83 -49t32 -78 t-35 -93t-137 -128l-184 -139z"/>
<glyph unicode="þ" horiz-adv-x="1308" d="M41 1452l18 82l379 45v-649q88 94 170 132t180 38q86 0 163 -33t135.5 -98.5t92 -160.5t33.5 -214q0 -135 -45 -249t-117.5 -198t-167 -131t-196.5 -47q-154 0 -262 70q4 -16 9 -57t5 -82v-248l178 -31l-14 -86h-512l21 86q66 14 92 39t26 82v1671zM438 229 q57 -68 122 -99.5t159 -31.5q76 0 141 25q55 61 90 163.5t35 264.5q0 96 -21.5 172t-56.5 130t-81 83t-91 29q-78 0 -143.5 -31t-153.5 -121v-584z"/>
<glyph unicode="ÿ" horiz-adv-x="1169" d="M14 985l17 82h487l-16 -82l-140 -18l279 -721l262 721l-147 18l12 82h387l-12 -82q-59 -8 -90 -39t-62 -110l-280 -730q-51 -129 -105.5 -225t-114 -166.5t-126 -118t-142.5 -77.5l-160 157q154 45 275 135.5t178 208.5l-391 947zM289 1391q0 123 119 123q121 0 121 -123 q0 -55 -30 -89t-91 -34q-119 0 -119 123zM746 1391q0 123 123 123q117 0 117 -123q0 -55 -28 -89t-89 -34q-123 0 -123 123z"/>
<glyph unicode="ı" horiz-adv-x="698" d="M70 965l20 79l375 48v-969l178 -39l-16 -84h-510l20 84q63 14 91 38.5t28 80.5v719z"/>
<glyph unicode="Œ" horiz-adv-x="2029" d="M131 676q0 176 53.5 325.5t148.5 258t228 170t289 61.5q76 0 143.5 -9t126.5 -14h789l-78 -307h-88l-25 156l-458 29v-512h473l-31 -123h-442v-588l491 37l90 168h88l-51 -328h-813q-43 -14 -113.5 -22.5t-136.5 -8.5q-150 0 -274.5 49.5t-217 140.5t-142.5 222t-50 295z M381 727q0 -139 30.5 -254t92 -196.5t149.5 -126t205 -44.5q57 0 98 4.5t80 14.5v1192q-39 14 -88 24.5t-121 10.5q-92 0 -173 -35t-140 -111t-96 -193.5t-37 -285.5z"/>
<glyph unicode="œ" horiz-adv-x="1851" d="M98 471q0 123 33 235.5t98.5 200.5t165 140.5t230.5 52.5q135 0 234 -52.5t163 -148.5q68 92 169 146.5t218 54.5q170 0 266.5 -89t96.5 -255q0 -49 -14.5 -116t-33.5 -112h-612q4 -219 99.5 -319t287.5 -100q55 0 98 7t84 21l27 -88q-66 -35 -152 -56.5t-184 -21.5 q-133 0 -227 52.5t-160 148.5q-150 -201 -395 -201q-242 0 -367 135.5t-125 364.5zM319 532q0 -217 92.5 -327.5t221.5 -110.5q61 0 111.5 21.5t85 73t52 136.5t17.5 212q0 104 -26.5 186t-69.5 137t-99.5 86t-117.5 31q-135 0 -201 -107t-66 -338zM1112 618l440 31 q4 25 7.5 51.5t3.5 57.5q0 106 -51.5 166.5t-135.5 60.5q-86 0 -170 -41q-31 -49 -60.5 -136.5t-33.5 -189.5z"/>
<glyph unicode="Ÿ" horiz-adv-x="1464" d="M14 1386l17 82h489l-16 -82l-96 -40l342 -601l327 601l-162 40l19 82h422l-19 -82q-35 -8 -59.5 -19t-47 -31.5t-46 -55.5t-54.5 -88l-317 -582v-487l195 -39l-13 -84h-557l21 84q82 16 106.5 51t24.5 107v356l-430 748zM367 1796q0 129 125 129q127 0 127 -129 q0 -127 -127 -127q-125 0 -125 127zM918 1796q0 66 34 97.5t93 31.5q125 0 125 -129q0 -127 -125 -127q-127 0 -127 127z"/>
<glyph unicode="ˆ" horiz-adv-x="974" d="M137 1331l318 334h65l318 -334l-56 -63l-245 155l-50 84l-49 -84l-245 -155z"/>
<glyph unicode="˚" horiz-adv-x="974" d="M199 1454q0 53 21.5 100.5t59 83t89 57t110.5 21.5q57 0 107.5 -21.5t88.5 -57t60.5 -83t22.5 -100.5t-22.5 -100t-60.5 -82t-88 -56.5t-108 -21.5q-59 0 -110.5 21.5t-89 56.5t-59 82t-21.5 100zM334 1454q0 -68 41 -109.5t104 -41.5q68 0 105 41.5t37 109.5 q0 63 -37 108.5t-105 45.5q-63 0 -104 -45.5t-41 -108.5z"/>
<glyph unicode="˜" horiz-adv-x="974" d="M115 1292q84 133 138 182.5t89 49.5q31 0 63.5 -11.5t88.5 -42.5l153 -79l180 131l41 -54q-147 -229 -221 -229q-23 0 -63.5 14.5t-104.5 46.5l-139 78l-184 -135z"/>
<glyph unicode="μ" horiz-adv-x="1312" d="M203 -72q0 39 4 79t10 79q16 100 27.5 204.5t11.5 250.5q0 135 -8 258t-19 221l209 47q4 -47 7.5 -89t3.5 -83q0 -143 -16.5 -260t-16.5 -238q0 -264 174 -264q66 0 137.5 53.5t128.5 171.5q12 49 19.5 117t7.5 150q0 41 -3 94t-7.5 107.5t-9.5 104.5t-11 89l192 47 q6 -53 8.5 -110.5t2.5 -129.5q0 -92 -8.5 -195.5t-18.5 -199.5q-8 -55 -8 -104q0 -94 36 -141.5t120 -47.5q31 0 64.5 7.5t66.5 21.5v-100q-55 -39 -116 -65t-122 -26q-80 0 -140.5 66t-64.5 195q-70 -137 -139.5 -199t-165.5 -62q-66 0 -118 28t-83 75q-2 -10 -5 -37 t-3 -51q0 -125 35 -217t127 -185l-217 -71q-92 194 -92 409z"/>
<glyph unicode=" " horiz-adv-x="1040"/>
<glyph unicode=" " horiz-adv-x="2080"/>
<glyph unicode=" " horiz-adv-x="1040"/>
<glyph unicode=" " horiz-adv-x="2080"/>
<glyph unicode=" " horiz-adv-x="692"/>
<glyph unicode=" " horiz-adv-x="520"/>
<glyph unicode=" " horiz-adv-x="346"/>
<glyph unicode=" " horiz-adv-x="346"/>
<glyph unicode=" " horiz-adv-x="260"/>
<glyph unicode=" " horiz-adv-x="415"/>
<glyph unicode=" " horiz-adv-x="114"/>
<glyph unicode="‐" horiz-adv-x="876" d="M100 489v58q0 66 51.5 95.5t124.5 29.5h512v-62q0 -68 -50 -94.5t-134 -26.5h-504z"/>
<glyph unicode="‑" horiz-adv-x="876" d="M100 489v58q0 66 51.5 95.5t124.5 29.5h512v-62q0 -68 -50 -94.5t-134 -26.5h-504z"/>
<glyph unicode="‒" horiz-adv-x="876" d="M100 489v58q0 66 51.5 95.5t124.5 29.5h512v-62q0 -68 -50 -94.5t-134 -26.5h-504z"/>
<glyph unicode="–" horiz-adv-x="1392" d="M20 528v154h1352v-154h-1352z"/>
<glyph unicode="—" horiz-adv-x="2785" d="M55 528v154h2675v-154h-2675z"/>
<glyph unicode="‘" horiz-adv-x="557" d="M109 1221q0 94 64.5 188t219.5 213l56 -61q-131 -178 -148 -318l64 -131l-181 -96q-39 61 -57 111.5t-18 93.5z"/>
<glyph unicode="’" horiz-adv-x="530" d="M109 1053q117 190 124 329l-71 127l172 107q47 -51 68.5 -107.5t21.5 -113.5q0 -88 -58.5 -183.5t-193.5 -214.5z"/>
<glyph unicode="‚" horiz-adv-x="530" d="M109 -324q117 190 124 330l-71 127l172 107q47 -51 68.5 -107.5t21.5 -112.5q0 -90 -58.5 -184t-193.5 -215z"/>
<glyph unicode="“" horiz-adv-x="829" d="M502 1221q0 94 64.5 188t219.5 213l56 -61q-131 -178 -148 -318l64 -131l-181 -96q-39 61 -57 111.5t-18 93.5zM109 1221q0 94 64.5 188t219.5 213l56 -61q-131 -178 -148 -318l64 -131l-181 -96q-39 61 -57 111.5t-18 93.5z"/>
<glyph unicode="”" horiz-adv-x="854" d="M496 1053q117 190 124 329l-71 127l172 107q47 -51 68.5 -107.5t21.5 -113.5q0 -88 -58.5 -183.5t-193.5 -214.5zM109 1053q117 190 124 329l-71 127l172 107q47 -51 68.5 -107.5t21.5 -113.5q0 -88 -58.5 -183.5t-193.5 -214.5z"/>
<glyph unicode="„" horiz-adv-x="931" d="M510 -324q117 190 124 330l-71 127l172 107q47 -51 68.5 -107.5t21.5 -112.5q0 -90 -58.5 -184t-193.5 -215zM109 -324q117 190 124 330l-71 127l172 107q47 -51 68.5 -107.5t21.5 -112.5q0 -90 -58.5 -184t-193.5 -215z"/>
<glyph unicode="•" horiz-adv-x="964" d="M217 598q0 68 25.5 126t68.5 103t101.5 70t124.5 25q68 0 126 -25t103 -70t69.5 -103t24.5 -126q0 -66 -24.5 -124t-69.5 -102t-103.5 -68.5t-125.5 -24.5q-66 0 -124.5 24.5t-101.5 68.5t-68.5 102t-25.5 124z"/>
<glyph unicode="…" horiz-adv-x="2228" d="M201 137q0 152 151 152q74 0 113 -40t39 -112q0 -74 -38 -112.5t-114 -38.5q-151 -1 -151 151zM963 137q0 152 151 152q74 0 113 -40t39 -112q0 -74 -38 -112.5t-114 -38.5q-151 -1 -151 151zM1725 137q0 152 151 152q74 0 113 -40t39 -112q0 -74 -38 -112.5t-114 -38.5 q-151 -1 -151 151z"/>
<glyph unicode=" " horiz-adv-x="415"/>
<glyph unicode="‹" horiz-adv-x="794" d="M195 465v147l401 396l6 -80l-176 -322l-133 -69l133 -70l176 -320l-6 -77z"/>
<glyph unicode="›" horiz-adv-x="794" d="M195 147l176 320l133 70l-133 69l-176 322l8 80l399 -396v-147l-399 -395z"/>
<glyph unicode="⁄" horiz-adv-x="360" d="M-371 2l969 1540l113 -72l-969 -1538z"/>
<glyph unicode=" " horiz-adv-x="520"/>
<glyph unicode="⁴" horiz-adv-x="835" d="M84 981l467 651h131v-626l154 8v-125h-154v-178h-154v178h-403zM188 981l5 -4l335 22l7 455l-7 2z"/>
<glyph unicode="€" d="M68 682l41 125h178q72 252 216 363.5t363 111.5q102 0 191.5 -35t148.5 -92v-4l-129 -139h-8q-63 63 -138 94t-149 31q-41 0 -83 -6.5t-78 -18.5q-47 -45 -87 -130t-53 -175h563l-40 -125h-539q-2 -23 -4 -59.5t2 -67.5h498l-33 -129h-463q14 -147 104 -227t226 -80 q102 0 187 41t142 102h4l62 -82v-2q-78 -88 -181.5 -143t-234.5 -55q-217 0 -346 117.5t-170 328.5h-160l31 129h119q0 31 1 67.5t5 59.5h-186z"/>
<glyph unicode="™" horiz-adv-x="1589" d="M61 1407h641l-26 -178h-70l-12 102l-139 21v-469l112 -17l-8 -53h-342l8 53q31 6 57.5 15.5t26.5 33.5v437l-137 -21l-12 -102h-74zM686 813l10 53q47 6 62.5 22.5t21.5 49.5l35 399l-86 17l8 53h197l180 -401l180 401h191l-8 -53q-35 -6 -55.5 -19.5t-14.5 -42.5 l49 -409l92 -17l-8 -53h-303l8 53q31 6 50.5 21.5t13.5 54.5l-25 188q-6 33 -6 55v40h-4q-6 -20 -12.5 -42t-18.5 -53l-131 -292h-68l-131 282q-29 61 -32 105h-7q0 -12 -1 -39t-5 -51l-22 -252l80 -17l-11 -53h-229z"/>
<glyph unicode="" horiz-adv-x="1065" d="M0 1065h1065v-1065h-1065v1065z"/>
<glyph unicode="ﬁ" horiz-adv-x="1462" d="M33 989l22 78h209q4 141 41 240.5t110.5 159t185.5 86t267 26.5h9l-72 -203q-33 14 -81 22.5t-91 8.5q-82 0 -125 -12q-18 -43 -26.5 -106.5t-8.5 -164.5v-57h756v-944l178 -39l-14 -84h-512l22 84q63 14 90 38.5t27 80.5v731h-547v-811l195 -39l-17 -84h-528l22 84 q63 14 91 38.5t28 80.5v731zM985 1440q0 129 135 129q125 0 125 -129q0 -131 -125 -131q-74 0 -104.5 34t-30.5 97z"/>
<glyph unicode="ﬂ" horiz-adv-x="1421" d="M33 989l22 78h209q0 133 38 229.5t104.5 159t158.5 93t203 30.5q76 0 145.5 -23.5t120.5 -62.5l142 86h24v-1456l182 -39l-18 -84h-512l22 84q63 14 90 38.5t27 80.5v1100q-49 53 -124.5 85.5t-155.5 32.5q-106 0 -203 -45q-18 -43 -26.5 -97t-8.5 -155v-57h283l-29 -133 h-254v-811l195 -39l-17 -84h-528l22 84q63 14 91 38.5t28 80.5v731z"/>
<glyph unicode="ﬃ" horiz-adv-x="2217" d="M33 989l22 78h209q4 147 43 246.5t115 158t193.5 83t275.5 24.5h16l-61 -203q-49 14 -110.5 22.5t-110.5 8.5q-74 0 -117 -12q-18 -43 -26.5 -106.5t-8.5 -164.5v-57h549q2 141 40 240.5t111.5 159t185 86t267.5 26.5h8l-71 -203q-33 14 -81 22.5t-91 8.5q-82 0 -127 -12 q-16 -43 -24.5 -106.5t-8.5 -164.5v-57h756v-944l178 -39l-15 -84h-512l23 84q63 14 90 38.5t27 80.5v731h-547v-811l194 -39l-16 -84h-528l22 84q63 14 91 38.5t28 80.5v731h-549v-811l195 -39l-17 -84h-528l22 84q63 14 91 38.5t28 80.5v731zM1743 1440q0 129 135 129 q125 0 125 -129q0 -131 -125 -131q-74 0 -104.5 34t-30.5 97z"/>
<glyph unicode="ﬄ" horiz-adv-x="2179" d="M33 989l22 78h209q4 147 43 246.5t115 158t193.5 83t275.5 24.5h16l-61 -203q-49 14 -110.5 22.5t-110.5 8.5q-74 0 -117 -12q-18 -43 -26.5 -106.5t-8.5 -164.5v-57h549q0 133 38 229.5t104.5 159t158.5 93t203 30.5q76 0 145.5 -23.5t118.5 -62.5l143 86h25v-1456 l180 -39l-16 -84h-512l22 84q63 14 90 38.5t27 80.5v1100q-49 53 -125 85.5t-156 32.5q-106 0 -204 -45q-16 -43 -24.5 -97t-8.5 -155v-57h278l-24 -133h-254v-811l194 -39l-16 -84h-528l22 84q63 14 91 38.5t28 80.5v731h-549v-811l195 -39l-17 -84h-528l22 84 q63 14 91 38.5t28 80.5v731z"/>
<glyph horiz-adv-x="0" d="M72 1647l366 231h88l365 -231l-55 -70l-279 94l-70 78h-6l-73 -78l-279 -94z"/>
<glyph horiz-adv-x="0" d="M86 1720q0 129 125 129q127 0 127 -129q0 -127 -127 -127q-125 0 -125 127zM637 1720q0 66 34 97.5t93 31.5q125 0 125 -129q0 -127 -125 -127q-127 0 -127 127z"/>
<glyph horiz-adv-x="0" d="M328 1640l415 326q39 -14 70 -45t31 -70q0 -55 -47 -99t-193 -95l-233 -78z"/>
<glyph horiz-adv-x="0" d="M39 1851q0 39 30.5 70t69.5 45l416 -326l-43 -61l-233 78q-145 51 -192.5 95t-47.5 99z"/>
<glyph horiz-adv-x="0" d="M215 1802q0 49 19.5 94.5t54.5 79t83 54t107 20.5q57 0 106.5 -20.5t84.5 -54t53 -79t18 -94.5q0 -98 -71.5 -172t-190.5 -74q-59 0 -107 19.5t-83 53.5t-54.5 78t-19.5 95zM346 1802q0 -61 37 -99t96 -38q61 0 96 38t35 99q0 57 -34.5 98.5t-96.5 41.5q-59 0 -96 -41.5 t-37 -98.5z"/>
<glyph horiz-adv-x="0" d="M137 1649q78 125 141.5 183t116.5 58q33 0 66 -9t76 -32l200 -100l183 141l53 -57q-145 -240 -256 -240q-37 0 -76 14.5t-86 34.5l-184 93l-183 -142z"/>
</font>
</defs>
</svg>
